<svg width="198" height="206" viewBox="0 0 198 206" fill="none" xmlns="http://www.w3.org/2000/svg">
<path d="M198 0.49707L171.914 205.503L129.046 160.975L134.765 115.541L134.103 114.065L84.7819 164.275L39.4332 118.088C39.1826 117.285 39.881 117.595 40.2342 117.149L87.5097 67.9376L87.8753 66.0279C87.5508 65.5515 83.9932 65.9769 83.2291 66.0534C69.7506 67.406 56.1612 70.4599 42.5964 71.4509L0 27.5056L198 0.49707Z" fill="#B3DBD3" fill-opacity="0.4"/>
<path d="M54.4356 179.842C42.6551 193.935 20.5215 191.251 11.9575 174.991C-0.348971 151.631 23.996 125.805 46.7561 137.833C61.7364 145.751 65.432 166.687 54.4389 179.842H54.4356Z" fill="#B3DBD3" fill-opacity="0.4"/>
</svg>
