<svg width="418" height="94" viewBox="0 0 418 94" fill="none" xmlns="http://www.w3.org/2000/svg">
<path d="M37.2623 89.0596L35.9183 86.0676H29.6783L28.3343 89.0596H27.1023L32.2223 77.8596H33.3903L38.5103 89.0596H37.2623ZM30.1103 85.1076H35.4863L32.7983 79.0916L30.1103 85.1076ZM45.6532 80.6436H46.7732L43.0292 89.0596H41.8612L38.1332 80.6436H39.3172L42.4692 87.8116L45.6532 80.6436ZM55.4827 84.8516C55.4827 84.9476 55.4667 85.0756 55.4667 85.2036H48.4267C48.5547 86.9636 49.8987 88.1316 51.7387 88.1316C52.7627 88.1316 53.6747 87.7636 54.3147 87.0276L54.9547 87.7636C54.2027 88.6596 53.0347 89.1396 51.7067 89.1396C49.0827 89.1396 47.2907 87.3476 47.2907 84.8516C47.2907 82.3556 49.0347 80.5796 51.4027 80.5796C53.7707 80.5796 55.4827 82.3236 55.4827 84.8516ZM51.4027 81.5556C49.7707 81.5556 48.5707 82.7076 48.4267 84.3556H54.3947C54.2507 82.7076 53.0507 81.5556 51.4027 81.5556ZM58.8829 82.2916C59.4109 81.1716 60.4829 80.5796 62.0349 80.5796V81.6836C61.9389 81.6836 61.8429 81.6676 61.7629 81.6676C60.0029 81.6676 58.9309 82.7876 58.9309 84.7716V89.0596H57.7949V80.6436H58.8829V82.2916ZM67.0202 80.5796C69.1962 80.5796 70.4282 81.6676 70.4282 83.8436V89.0596H69.3402V87.7476C68.8282 88.6116 67.8362 89.1396 66.4442 89.1396C64.5402 89.1396 63.3722 88.1476 63.3722 86.6916C63.3722 85.3956 64.2042 84.3076 66.6202 84.3076H69.2922V83.7956C69.2922 82.3556 68.4762 81.5716 66.9082 81.5716C65.8202 81.5716 64.7962 81.9556 64.1082 82.5636L63.5962 81.7156C64.4442 80.9956 65.6922 80.5796 67.0202 80.5796ZM66.6202 88.2436C67.9002 88.2436 68.8442 87.6356 69.2922 86.5316V85.1556H66.6522C65.0202 85.1556 64.4922 85.7956 64.4922 86.6596C64.4922 87.6356 65.2762 88.2436 66.6202 88.2436ZM80.2489 80.6436H81.3369V88.0356C81.3369 90.9316 79.9129 92.2436 77.1289 92.2436C75.5929 92.2436 74.0889 91.7796 73.2089 90.9476L73.7849 90.0836C74.5849 90.8036 75.8009 91.2356 77.0969 91.2356C79.2249 91.2356 80.2009 90.2596 80.2009 88.1796V87.1076C79.4969 88.1796 78.2969 88.7396 76.9209 88.7396C74.5209 88.7396 72.6969 87.0596 72.6969 84.6436C72.6969 82.2276 74.5209 80.5796 76.9209 80.5796C78.3289 80.5796 79.5449 81.1556 80.2489 82.2596V80.6436ZM77.0329 87.7316C78.8889 87.7316 80.2329 86.4676 80.2329 84.6436C80.2329 82.8196 78.8889 81.5716 77.0329 81.5716C75.1769 81.5716 73.8489 82.8196 73.8489 84.6436C73.8489 86.4676 75.1769 87.7316 77.0329 87.7316ZM91.8577 84.8516C91.8577 84.9476 91.8417 85.0756 91.8417 85.2036H84.8017C84.9297 86.9636 86.2737 88.1316 88.1137 88.1316C89.1377 88.1316 90.0497 87.7636 90.6897 87.0276L91.3297 87.7636C90.5777 88.6596 89.4097 89.1396 88.0817 89.1396C85.4577 89.1396 83.6657 87.3476 83.6657 84.8516C83.6657 82.3556 85.4097 80.5796 87.7777 80.5796C90.1457 80.5796 91.8577 82.3236 91.8577 84.8516ZM87.7777 81.5556C86.1457 81.5556 84.9457 82.7076 84.8017 84.3556H90.7697C90.6257 82.7076 89.4257 81.5556 87.7777 81.5556ZM102.789 77.8596C105.637 77.8596 107.365 79.2996 107.365 81.6996C107.365 84.0836 105.637 85.5236 102.789 85.5236H99.7814V89.0596H98.5974V77.8596H102.789ZM102.757 84.4836C104.997 84.4836 106.181 83.4596 106.181 81.6996C106.181 79.9076 104.997 78.8836 102.757 78.8836H99.7814V84.4836H102.757ZM112.551 80.5796C114.727 80.5796 115.959 81.6676 115.959 83.8436V89.0596H114.871V87.7476C114.359 88.6116 113.367 89.1396 111.975 89.1396C110.071 89.1396 108.903 88.1476 108.903 86.6916C108.903 85.3956 109.735 84.3076 112.151 84.3076H114.823V83.7956C114.823 82.3556 114.007 81.5716 112.439 81.5716C111.351 81.5716 110.327 81.9556 109.639 82.5636L109.127 81.7156C109.975 80.9956 111.223 80.5796 112.551 80.5796ZM112.151 88.2436C113.431 88.2436 114.375 87.6356 114.823 86.5316V85.1556H112.183C110.551 85.1556 110.023 85.7956 110.023 86.6596C110.023 87.6356 110.807 88.2436 112.151 88.2436ZM122.564 89.1396C120.052 89.1396 118.228 87.3636 118.228 84.8516C118.228 82.3396 120.052 80.5796 122.564 80.5796C123.988 80.5796 125.188 81.1396 125.86 82.2436L125.012 82.8196C124.436 81.9716 123.54 81.5716 122.564 81.5716C120.724 81.5716 119.38 82.8836 119.38 84.8516C119.38 86.8356 120.724 88.1316 122.564 88.1316C123.54 88.1316 124.436 87.7476 125.012 86.8996L125.86 87.4756C125.188 88.5636 123.988 89.1396 122.564 89.1396ZM134.479 89.0596L131.087 84.8356L129.103 86.6596V89.0596H127.967V77.1876H129.103V85.2356L134.127 80.6436H135.535L131.935 84.0836L135.871 89.0596H134.479ZM140.364 80.5796C142.54 80.5796 143.772 81.6676 143.772 83.8436V89.0596H142.684V87.7476C142.172 88.6116 141.18 89.1396 139.788 89.1396C137.884 89.1396 136.716 88.1476 136.716 86.6916C136.716 85.3956 137.548 84.3076 139.964 84.3076H142.636V83.7956C142.636 82.3556 141.82 81.5716 140.252 81.5716C139.164 81.5716 138.14 81.9556 137.452 82.5636L136.94 81.7156C137.788 80.9956 139.036 80.5796 140.364 80.5796ZM139.964 88.2436C141.244 88.2436 142.188 87.6356 142.636 86.5316V85.1556H139.996C138.364 85.1556 137.836 85.7956 137.836 86.6596C137.836 87.6356 138.62 88.2436 139.964 88.2436ZM153.593 80.6436H154.681V88.0356C154.681 90.9316 153.257 92.2436 150.473 92.2436C148.937 92.2436 147.433 91.7796 146.553 90.9476L147.129 90.0836C147.929 90.8036 149.145 91.2356 150.441 91.2356C152.569 91.2356 153.545 90.2596 153.545 88.1796V87.1076C152.841 88.1796 151.641 88.7396 150.265 88.7396C147.865 88.7396 146.041 87.0596 146.041 84.6436C146.041 82.2276 147.865 80.5796 150.265 80.5796C151.673 80.5796 152.889 81.1556 153.593 82.2596V80.6436ZM150.377 87.7316C152.233 87.7316 153.577 86.4676 153.577 84.6436C153.577 82.8196 152.233 81.5716 150.377 81.5716C148.521 81.5716 147.193 82.8196 147.193 84.6436C147.193 86.4676 148.521 87.7316 150.377 87.7316ZM165.201 84.8516C165.201 84.9476 165.185 85.0756 165.185 85.2036H158.145C158.273 86.9636 159.617 88.1316 161.457 88.1316C162.481 88.1316 163.393 87.7636 164.033 87.0276L164.673 87.7636C163.921 88.6596 162.753 89.1396 161.425 89.1396C158.801 89.1396 157.009 87.3476 157.009 84.8516C157.009 82.3556 158.753 80.5796 161.121 80.5796C163.489 80.5796 165.201 82.3236 165.201 84.8516ZM161.121 81.5556C159.489 81.5556 158.289 82.7076 158.145 84.3556H164.113C163.969 82.7076 162.769 81.5556 161.121 81.5556Z" fill="black"/>
<path d="M174.92 87.9599H182.27C187.03 87.9599 190.89 84.0999 190.89 79.3399V9.78992C190.89 5.02992 187.03 1.16992 182.27 1.16992H9.62C4.86 1.16992 1 5.02992 1 9.78992V79.3399C1 84.0999 4.86 87.9599 9.62 87.9599H17.54" stroke="black" stroke-miterlimit="10"/>
<path d="M70.136 23.512H61.048C62.072 24.536 62.84 25.752 63.416 27.032H70.136V32.344H64.696V33.176C64.696 39.768 61.112 44.504 54.968 46.808L65.592 63H54.456L44.92 48.344H32.312V40.024H44.216C51.32 40.024 54.2 36.632 54.264 32.344H29.688V27.032H52.792C51.192 24.792 48.248 23.448 43.832 23.512H29.688V18.2H70.136V23.512ZM106.215 39.448C110.567 41.624 113.062 45.208 113.062 50.008C113.062 58.456 105.511 63.768 94.1185 63.768C82.7905 63.768 75.3025 58.456 75.3025 50.008C75.3025 45.208 77.7985 41.624 82.0865 39.448C78.7585 37.4 76.9025 34.264 76.9025 30.232C76.9025 22.36 83.9425 17.432 94.1185 17.432C104.423 17.432 111.463 22.36 111.463 30.232C111.463 34.264 109.543 37.4 106.215 39.448ZM94.1185 25.048C89.9585 25.048 87.2065 27.16 87.2065 30.68C87.2065 34.072 89.8945 36.184 94.1185 36.184C98.4065 36.184 101.159 34.072 101.159 30.68C101.159 27.16 98.3425 25.048 94.1185 25.048ZM94.1185 56.152C99.3025 56.152 102.567 53.656 102.567 49.688C102.567 45.72 99.3025 43.288 94.1185 43.288C88.9985 43.288 85.7985 45.72 85.7985 49.688C85.7985 53.656 88.9985 56.152 94.1185 56.152Z" fill="#A22877"/>
<path d="M118.52 63V46.2H120.92V60.912H130.016V63H118.52ZM139.322 46.2C143.69 46.2 146.33 48.408 146.33 52.056C146.33 55.704 143.69 57.912 139.322 57.912H135.17V63H132.77V46.2H139.322ZM139.25 55.824C142.322 55.824 143.93 54.456 143.93 52.056C143.93 49.656 142.322 48.288 139.25 48.288H135.17V55.824H139.25ZM161.564 63L159.716 58.8H150.788L148.94 63H146.468L154.076 46.2H156.452L164.084 63H161.564ZM151.628 56.88H158.876L155.252 48.648L151.628 56.88Z" fill="#A22877"/>
<path d="M264.282 77.8596H265.45V89.0596H264.282V83.8916H257.274V89.0596H256.09V77.8596H257.274V82.8516H264.282V77.8596ZM269.441 78.8036C268.977 78.8036 268.609 78.4356 268.609 77.9876C268.609 77.5556 268.977 77.1876 269.441 77.1876C269.905 77.1876 270.273 77.5396 270.273 77.9716C270.273 78.4356 269.921 78.8036 269.441 78.8036ZM268.865 89.0596V80.6436H270.001V89.0596H268.865ZM279.866 80.6436H280.954V88.0356C280.954 90.9316 279.53 92.2436 276.746 92.2436C275.21 92.2436 273.706 91.7796 272.826 90.9476L273.402 90.0836C274.202 90.8036 275.418 91.2356 276.714 91.2356C278.842 91.2356 279.818 90.2596 279.818 88.1796V87.1076C279.114 88.1796 277.914 88.7396 276.538 88.7396C274.138 88.7396 272.314 87.0596 272.314 84.6436C272.314 82.2276 274.138 80.5796 276.538 80.5796C277.946 80.5796 279.162 81.1556 279.866 82.2596V80.6436ZM276.65 87.7316C278.506 87.7316 279.85 86.4676 279.85 84.6436C279.85 82.8196 278.506 81.5716 276.65 81.5716C274.794 81.5716 273.466 82.8196 273.466 84.6436C273.466 86.4676 274.794 87.7316 276.65 87.7316ZM288.419 80.5796C290.467 80.5796 291.875 81.7636 291.875 84.1796V89.0596H290.739V84.2916C290.739 82.5156 289.811 81.6036 288.211 81.6036C286.403 81.6036 285.267 82.7236 285.267 84.6436V89.0596H284.131V77.1876H285.267V82.1156C285.891 81.1396 286.995 80.5796 288.419 80.5796ZM302.334 84.8516C302.334 84.9476 302.318 85.0756 302.318 85.2036H295.278C295.406 86.9636 296.75 88.1316 298.59 88.1316C299.614 88.1316 300.526 87.7636 301.166 87.0276L301.806 87.7636C301.054 88.6596 299.886 89.1396 298.558 89.1396C295.934 89.1396 294.142 87.3476 294.142 84.8516C294.142 82.3556 295.886 80.5796 298.254 80.5796C300.622 80.5796 302.334 82.3236 302.334 84.8516ZM298.254 81.5556C296.622 81.5556 295.422 82.7076 295.278 84.3556H301.246C301.102 82.7076 299.902 81.5556 298.254 81.5556ZM306.903 89.1396C305.511 89.1396 304.167 88.6916 303.479 88.0996L303.991 87.2036C304.663 87.7316 305.799 88.1476 306.983 88.1476C308.583 88.1476 309.239 87.6036 309.239 86.7716C309.239 84.5796 303.783 86.3076 303.783 82.9796C303.783 81.6036 304.967 80.5796 307.111 80.5796C308.199 80.5796 309.383 80.8836 310.087 81.3636L309.591 82.2756C308.855 81.7636 307.975 81.5556 307.111 81.5556C305.591 81.5556 304.919 82.1476 304.919 82.9476C304.919 85.2196 310.375 83.5076 310.375 86.7396C310.375 88.1956 309.095 89.1396 306.903 89.1396ZM316.507 87.7316L316.907 88.5476C316.459 88.9476 315.787 89.1396 315.131 89.1396C313.547 89.1396 312.667 88.2436 312.667 86.6916V81.6036H311.163V80.6436H312.667V78.8036H313.803V80.6436H316.363V81.6036H313.803V86.6276C313.803 87.6196 314.315 88.1636 315.259 88.1636C315.723 88.1636 316.187 88.0196 316.507 87.7316ZM327.594 77.8596C330.442 77.8596 332.17 79.2996 332.17 81.6996C332.17 84.0836 330.442 85.5236 327.594 85.5236H324.586V89.0596H323.402V77.8596H327.594ZM327.562 84.4836C329.802 84.4836 330.986 83.4596 330.986 81.6996C330.986 79.9076 329.802 78.8836 327.562 78.8836H324.586V84.4836H327.562ZM337.356 80.5796C339.532 80.5796 340.764 81.6676 340.764 83.8436V89.0596H339.676V87.7476C339.164 88.6116 338.172 89.1396 336.78 89.1396C334.876 89.1396 333.708 88.1476 333.708 86.6916C333.708 85.3956 334.54 84.3076 336.956 84.3076H339.628V83.7956C339.628 82.3556 338.812 81.5716 337.244 81.5716C336.156 81.5716 335.132 81.9556 334.444 82.5636L333.932 81.7156C334.78 80.9956 336.028 80.5796 337.356 80.5796ZM336.956 88.2436C338.236 88.2436 339.18 87.6356 339.628 86.5316V85.1556H336.988C335.356 85.1556 334.828 85.7956 334.828 86.6596C334.828 87.6356 335.612 88.2436 336.956 88.2436ZM347.369 89.1396C344.857 89.1396 343.033 87.3636 343.033 84.8516C343.033 82.3396 344.857 80.5796 347.369 80.5796C348.793 80.5796 349.993 81.1396 350.665 82.2436L349.817 82.8196C349.241 81.9716 348.345 81.5716 347.369 81.5716C345.529 81.5716 344.185 82.8836 344.185 84.8516C344.185 86.8356 345.529 88.1316 347.369 88.1316C348.345 88.1316 349.241 87.7476 349.817 86.8996L350.665 87.4756C349.993 88.5636 348.793 89.1396 347.369 89.1396ZM359.284 89.0596L355.891 84.8356L353.908 86.6596V89.0596H352.772V77.1876H353.908V85.2356L358.932 80.6436H360.34L356.74 84.0836L360.676 89.0596H359.284ZM365.169 80.5796C367.345 80.5796 368.577 81.6676 368.577 83.8436V89.0596H367.489V87.7476C366.977 88.6116 365.985 89.1396 364.593 89.1396C362.689 89.1396 361.521 88.1476 361.521 86.6916C361.521 85.3956 362.353 84.3076 364.769 84.3076H367.441V83.7956C367.441 82.3556 366.625 81.5716 365.057 81.5716C363.969 81.5716 362.945 81.9556 362.257 82.5636L361.745 81.7156C362.593 80.9956 363.841 80.5796 365.169 80.5796ZM364.769 88.2436C366.049 88.2436 366.993 87.6356 367.441 86.5316V85.1556H364.801C363.169 85.1556 362.641 85.7956 362.641 86.6596C362.641 87.6356 363.425 88.2436 364.769 88.2436ZM378.397 80.6436H379.485V88.0356C379.485 90.9316 378.061 92.2436 375.277 92.2436C373.741 92.2436 372.237 91.7796 371.357 90.9476L371.933 90.0836C372.733 90.8036 373.949 91.2356 375.245 91.2356C377.373 91.2356 378.349 90.2596 378.349 88.1796V87.1076C377.645 88.1796 376.445 88.7396 375.069 88.7396C372.669 88.7396 370.845 87.0596 370.845 84.6436C370.845 82.2276 372.669 80.5796 375.069 80.5796C376.477 80.5796 377.693 81.1556 378.397 82.2596V80.6436ZM375.181 87.7316C377.037 87.7316 378.381 86.4676 378.381 84.6436C378.381 82.8196 377.037 81.5716 375.181 81.5716C373.325 81.5716 371.997 82.8196 371.997 84.6436C371.997 86.4676 373.325 87.7316 375.181 87.7316ZM390.006 84.8516C390.006 84.9476 389.99 85.0756 389.99 85.2036H382.95C383.078 86.9636 384.422 88.1316 386.262 88.1316C387.286 88.1316 388.198 87.7636 388.838 87.0276L389.478 87.7636C388.726 88.6596 387.558 89.1396 386.23 89.1396C383.606 89.1396 381.814 87.3476 381.814 84.8516C381.814 82.3556 383.558 80.5796 385.926 80.5796C388.294 80.5796 390.006 82.3236 390.006 84.8516ZM385.926 81.5556C384.294 81.5556 383.094 82.7076 382.95 84.3556H388.918C388.774 82.7076 387.574 81.5556 385.926 81.5556Z" fill="black"/>
<path d="M400.92 87.9599H408.27C413.03 87.9599 416.89 84.0999 416.89 79.3399V9.78992C416.89 5.02992 413.03 1.16992 408.27 1.16992H235.62C230.86 1.16992 227 5.02992 227 9.78992V79.3399C227 84.0999 230.86 87.9599 235.62 87.9599H243.54" stroke="black" stroke-miterlimit="10"/>
<path d="M281.136 23.512H272.048C273.072 24.536 273.84 25.752 274.416 27.032H281.136V32.344H275.696V33.176C275.696 39.768 272.112 44.504 265.968 46.808L276.592 63H265.456L255.92 48.344H243.312V40.024H255.216C262.32 40.024 265.2 36.632 265.264 32.344H240.688V27.032H263.792C262.192 24.792 259.248 23.448 254.832 23.512H240.688V18.2H281.136V23.512ZM301.017 54.552H320.281V63H286.424V56.28L303.705 39.96C307.673 36.184 308.377 33.88 308.377 31.704C308.377 28.184 305.945 26.136 301.208 26.136C297.369 26.136 294.105 27.608 291.929 30.616L284.377 25.752C287.833 20.696 294.105 17.432 302.169 17.432C312.153 17.432 318.809 22.552 318.809 30.68C318.809 35.032 317.593 39 311.321 44.824L301.017 54.552ZM323.602 18.2H359.506V24.92L342.866 63H331.602L347.666 26.648H332.818V33.944H323.602V18.2Z" fill="#A22877"/>
<path d="M359.52 63V46.2H361.92V60.912H371.016V63H359.52ZM380.322 46.2C384.69 46.2 387.33 48.408 387.33 52.056C387.33 55.704 384.69 57.912 380.322 57.912H376.17V63H373.77V46.2H380.322ZM380.25 55.824C383.322 55.824 384.93 54.456 384.93 52.056C384.93 49.656 383.322 48.288 380.25 48.288H376.17V55.824H380.25ZM402.564 63L400.716 58.8H391.788L389.94 63H387.468L395.076 46.2H397.452L405.084 63H402.564ZM392.628 56.88H399.876L396.252 48.648L392.628 56.88Z" fill="#A22877"/>
</svg>
