<svg width="398" height="96" viewBox="0 0 398 96" fill="none" xmlns="http://www.w3.org/2000/svg">
<path d="M36.0778 87.0596L40.5578 77.2596H41.5798L46.0598 87.0596H44.9678L40.8518 77.8616H41.2718L37.1558 87.0596H36.0778ZM37.8418 84.4416L38.1498 83.6016H43.8478L44.1558 84.4416H37.8418ZM48.9918 87.0596L45.7298 79.7096H46.7658L49.7618 86.5276H49.2718L52.3098 79.7096H53.2898L50.0138 87.0596H48.9918ZM57.6066 87.1296C56.8413 87.1296 56.1693 86.9709 55.5906 86.6536C55.012 86.3269 54.5593 85.8836 54.2326 85.3236C53.906 84.7542 53.7426 84.1056 53.7426 83.3776C53.7426 82.6496 53.8966 82.0056 54.2046 81.4456C54.522 80.8856 54.9513 80.4469 55.4926 80.1296C56.0433 79.8029 56.6593 79.6396 57.3406 79.6396C58.0313 79.6396 58.6426 79.7982 59.1746 80.1156C59.716 80.4236 60.1406 80.8622 60.4486 81.4316C60.7566 81.9916 60.9106 82.6402 60.9106 83.3776C60.9106 83.4242 60.906 83.4756 60.8966 83.5316C60.8966 83.5782 60.8966 83.6296 60.8966 83.6856H54.4986V82.9436H60.3646L59.9726 83.2376C59.9726 82.7056 59.856 82.2342 59.6226 81.8236C59.3986 81.4036 59.0906 81.0769 58.6986 80.8436C58.3066 80.6102 57.854 80.4936 57.3406 80.4936C56.8366 80.4936 56.384 80.6102 55.9826 80.8436C55.5813 81.0769 55.2686 81.4036 55.0446 81.8236C54.8206 82.2436 54.7086 82.7242 54.7086 83.2656V83.4196C54.7086 83.9796 54.83 84.4742 55.0726 84.9036C55.3246 85.3236 55.67 85.6549 56.1086 85.8976C56.5566 86.1309 57.0653 86.2476 57.6346 86.2476C58.0826 86.2476 58.498 86.1682 58.8806 86.0096C59.2726 85.8509 59.6086 85.6082 59.8886 85.2816L60.4486 85.9256C60.122 86.3176 59.7113 86.6162 59.2166 86.8216C58.7313 87.0269 58.1946 87.1296 57.6066 87.1296ZM62.9339 87.0596V79.7096H63.8859V81.7116L63.7879 81.3616C63.9932 80.8016 64.3385 80.3769 64.8239 80.0876C65.3092 79.7889 65.9112 79.6396 66.6299 79.6396V80.6056C66.5925 80.6056 66.5552 80.6056 66.5179 80.6056C66.4805 80.5962 66.4432 80.5916 66.4059 80.5916C65.6312 80.5916 65.0245 80.8296 64.5859 81.3056C64.1472 81.7722 63.9279 82.4396 63.9279 83.3076V87.0596H62.9339ZM72.5848 87.0596V85.4356L72.5428 85.1696V82.4536C72.5428 81.8282 72.3654 81.3476 72.0108 81.0116C71.6654 80.6756 71.1474 80.5076 70.4568 80.5076C69.9808 80.5076 69.5281 80.5869 69.0988 80.7456C68.6694 80.9042 68.3054 81.1142 68.0068 81.3756L67.5588 80.6336C67.9321 80.3162 68.3801 80.0736 68.9028 79.9056C69.4254 79.7282 69.9761 79.6396 70.5548 79.6396C71.5068 79.6396 72.2394 79.8776 72.7528 80.3536C73.2754 80.8202 73.5368 81.5342 73.5368 82.4956V87.0596H72.5848ZM70.0508 87.1296C69.5001 87.1296 69.0194 87.0409 68.6088 86.8636C68.2074 86.6769 67.8994 86.4249 67.6848 86.1076C67.4701 85.7809 67.3628 85.4076 67.3628 84.9876C67.3628 84.6049 67.4514 84.2596 67.6288 83.9516C67.8154 83.6342 68.1141 83.3822 68.5248 83.1956C68.9448 82.9996 69.5048 82.9016 70.2048 82.9016H72.7388V83.6436H70.2328C69.5234 83.6436 69.0288 83.7696 68.7488 84.0216C68.4781 84.2736 68.3428 84.5862 68.3428 84.9596C68.3428 85.3796 68.5061 85.7156 68.8328 85.9676C69.1594 86.2196 69.6168 86.3456 70.2048 86.3456C70.7648 86.3456 71.2454 86.2196 71.6468 85.9676C72.0574 85.7062 72.3561 85.3329 72.5428 84.8476L72.7668 85.5336C72.5801 86.0189 72.2534 86.4062 71.7868 86.6956C71.3294 86.9849 70.7508 87.1296 70.0508 87.1296ZM79.3726 89.8456C78.7006 89.8456 78.0566 89.7476 77.4406 89.5516C76.8246 89.3556 76.3253 89.0756 75.9426 88.7116L76.4466 87.9556C76.7919 88.2636 77.2166 88.5062 77.7206 88.6836C78.2339 88.8702 78.7753 88.9636 79.3446 88.9636C80.2779 88.9636 80.9639 88.7442 81.4026 88.3056C81.8413 87.8762 82.0606 87.2042 82.0606 86.2896V84.4556L82.2006 83.1956L82.1026 81.9356V79.7096H83.0546V86.1636C83.0546 87.4329 82.7419 88.3616 82.1166 88.9496C81.5006 89.5469 80.5859 89.8456 79.3726 89.8456ZM79.1906 86.7796C78.4906 86.7796 77.8606 86.6302 77.3006 86.3316C76.7406 86.0236 76.2973 85.5989 75.9706 85.0576C75.6533 84.5162 75.4946 83.8956 75.4946 83.1956C75.4946 82.4956 75.6533 81.8796 75.9706 81.3476C76.2973 80.8062 76.7406 80.3862 77.3006 80.0876C77.8606 79.7889 78.4906 79.6396 79.1906 79.6396C79.8439 79.6396 80.4319 79.7749 80.9546 80.0456C81.4773 80.3162 81.8926 80.7176 82.2006 81.2496C82.5086 81.7816 82.6626 82.4302 82.6626 83.1956C82.6626 83.9609 82.5086 84.6096 82.2006 85.1416C81.8926 85.6736 81.4773 86.0796 80.9546 86.3596C80.4319 86.6396 79.8439 86.7796 79.1906 86.7796ZM79.2886 85.8976C79.8299 85.8976 80.3106 85.7856 80.7306 85.5616C81.1506 85.3282 81.4819 85.0109 81.7246 84.6096C81.9673 84.1989 82.0886 83.7276 82.0886 83.1956C82.0886 82.6636 81.9673 82.1969 81.7246 81.7956C81.4819 81.3942 81.1506 81.0816 80.7306 80.8576C80.3106 80.6242 79.8299 80.5076 79.2886 80.5076C78.7566 80.5076 78.2759 80.6242 77.8466 80.8576C77.4266 81.0816 77.0953 81.3942 76.8526 81.7956C76.6193 82.1969 76.5026 82.6636 76.5026 83.1956C76.5026 83.7276 76.6193 84.1989 76.8526 84.6096C77.0953 85.0109 77.4266 85.3282 77.8466 85.5616C78.2759 85.7856 78.7566 85.8976 79.2886 85.8976ZM88.9426 87.1296C88.1772 87.1296 87.5052 86.9709 86.9266 86.6536C86.3479 86.3269 85.8952 85.8836 85.5686 85.3236C85.2419 84.7542 85.0786 84.1056 85.0786 83.3776C85.0786 82.6496 85.2326 82.0056 85.5406 81.4456C85.8579 80.8856 86.2872 80.4469 86.8286 80.1296C87.3792 79.8029 87.9952 79.6396 88.6766 79.6396C89.3672 79.6396 89.9786 79.7982 90.5106 80.1156C91.0519 80.4236 91.4766 80.8622 91.7846 81.4316C92.0926 81.9916 92.2466 82.6402 92.2466 83.3776C92.2466 83.4242 92.2419 83.4756 92.2326 83.5316C92.2326 83.5782 92.2326 83.6296 92.2326 83.6856H85.8346V82.9436H91.7006L91.3086 83.2376C91.3086 82.7056 91.1919 82.2342 90.9586 81.8236C90.7346 81.4036 90.4266 81.0769 90.0346 80.8436C89.6426 80.6102 89.1899 80.4936 88.6766 80.4936C88.1726 80.4936 87.7199 80.6102 87.3186 80.8436C86.9172 81.0769 86.6046 81.4036 86.3806 81.8236C86.1566 82.2436 86.0446 82.7242 86.0446 83.2656V83.4196C86.0446 83.9796 86.1659 84.4742 86.4086 84.9036C86.6606 85.3236 87.0059 85.6549 87.4446 85.8976C87.8926 86.1309 88.4012 86.2476 88.9706 86.2476C89.4186 86.2476 89.8339 86.1682 90.2166 86.0096C90.6086 85.8509 90.9446 85.6082 91.2246 85.2816L91.7846 85.9256C91.4579 86.3176 91.0472 86.6162 90.5526 86.8216C90.0672 87.0269 89.5306 87.1296 88.9426 87.1296ZM98.1439 87.0596V77.2596H101.812C102.643 77.2596 103.357 77.3949 103.954 77.6656C104.551 77.9269 105.009 78.3096 105.326 78.8136C105.653 79.3082 105.816 79.9102 105.816 80.6196C105.816 81.3102 105.653 81.9076 105.326 82.4116C105.009 82.9062 104.551 83.2889 103.954 83.5596C103.357 83.8302 102.643 83.9656 101.812 83.9656H98.7179L99.1799 83.4756V87.0596H98.1439ZM99.1799 83.5596L98.7179 83.0556H101.784C102.764 83.0556 103.506 82.8456 104.01 82.4256C104.523 81.9962 104.78 81.3942 104.78 80.6196C104.78 79.8356 104.523 79.2289 104.01 78.7996C103.506 78.3702 102.764 78.1556 101.784 78.1556H98.7179L99.1799 77.6656V83.5596ZM112.384 87.0596V85.4356L112.342 85.1696V82.4536C112.342 81.8282 112.164 81.3476 111.81 81.0116C111.464 80.6756 110.946 80.5076 110.256 80.5076C109.78 80.5076 109.327 80.5869 108.898 80.7456C108.468 80.9042 108.104 81.1142 107.806 81.3756L107.358 80.6336C107.731 80.3162 108.179 80.0736 108.702 79.9056C109.224 79.7282 109.775 79.6396 110.354 79.6396C111.306 79.6396 112.038 79.8776 112.552 80.3536C113.074 80.8202 113.336 81.5342 113.336 82.4956V87.0596H112.384ZM109.85 87.1296C109.299 87.1296 108.818 87.0409 108.408 86.8636C108.006 86.6769 107.698 86.4249 107.484 86.1076C107.269 85.7809 107.162 85.4076 107.162 84.9876C107.162 84.6049 107.25 84.2596 107.428 83.9516C107.614 83.6342 107.913 83.3822 108.324 83.1956C108.744 82.9996 109.304 82.9016 110.004 82.9016H112.538V83.6436H110.032C109.322 83.6436 108.828 83.7696 108.548 84.0216C108.277 84.2736 108.142 84.5862 108.142 84.9596C108.142 85.3796 108.305 85.7156 108.632 85.9676C108.958 86.2196 109.416 86.3456 110.004 86.3456C110.564 86.3456 111.044 86.2196 111.446 85.9676C111.856 85.7062 112.155 85.3329 112.342 84.8476L112.566 85.5336C112.379 86.0189 112.052 86.4062 111.586 86.6956C111.128 86.9849 110.55 87.1296 109.85 87.1296ZM119.087 87.1296C118.359 87.1296 117.706 86.9709 117.127 86.6536C116.558 86.3269 116.11 85.8836 115.783 85.3236C115.457 84.7542 115.293 84.1056 115.293 83.3776C115.293 82.6402 115.457 81.9916 115.783 81.4316C116.11 80.8716 116.558 80.4329 117.127 80.1156C117.706 79.7982 118.359 79.6396 119.087 79.6396C119.713 79.6396 120.277 79.7609 120.781 80.0036C121.285 80.2462 121.682 80.6102 121.971 81.0956L121.229 81.5996C120.977 81.2262 120.665 80.9509 120.291 80.7736C119.918 80.5962 119.512 80.5076 119.073 80.5076C118.551 80.5076 118.079 80.6289 117.659 80.8716C117.239 81.1049 116.908 81.4362 116.665 81.8656C116.423 82.2949 116.301 82.7989 116.301 83.3776C116.301 83.9562 116.423 84.4602 116.665 84.8896C116.908 85.3189 117.239 85.6549 117.659 85.8976C118.079 86.1309 118.551 86.2476 119.073 86.2476C119.512 86.2476 119.918 86.1589 120.291 85.9816C120.665 85.8042 120.977 85.5336 121.229 85.1696L121.971 85.6736C121.682 86.1496 121.285 86.5136 120.781 86.7656C120.277 87.0082 119.713 87.1296 119.087 87.1296ZM124.599 85.1556L124.627 83.8816L129.205 79.7096H130.423L127.189 82.8036L126.629 83.2796L124.599 85.1556ZM123.815 87.0596V76.6716H124.809V87.0596H123.815ZM129.513 87.0596L126.447 83.2376L127.091 82.4676L130.731 87.0596H129.513ZM136.651 87.0596V85.4356L136.609 85.1696V82.4536C136.609 81.8282 136.432 81.3476 136.077 81.0116C135.732 80.6756 135.214 80.5076 134.523 80.5076C134.047 80.5076 133.595 80.5869 133.165 80.7456C132.736 80.9042 132.372 81.1142 132.073 81.3756L131.625 80.6336C131.999 80.3162 132.447 80.0736 132.969 79.9056C133.492 79.7282 134.043 79.6396 134.621 79.6396C135.573 79.6396 136.306 79.8776 136.819 80.3536C137.342 80.8202 137.603 81.5342 137.603 82.4956V87.0596H136.651ZM134.117 87.1296C133.567 87.1296 133.086 87.0409 132.675 86.8636C132.274 86.6769 131.966 86.4249 131.751 86.1076C131.537 85.7809 131.429 85.4076 131.429 84.9876C131.429 84.6049 131.518 84.2596 131.695 83.9516C131.882 83.6342 132.181 83.3822 132.591 83.1956C133.011 82.9996 133.571 82.9016 134.271 82.9016H136.805V83.6436H134.299C133.59 83.6436 133.095 83.7696 132.815 84.0216C132.545 84.2736 132.409 84.5862 132.409 84.9596C132.409 85.3796 132.573 85.7156 132.899 85.9676C133.226 86.2196 133.683 86.3456 134.271 86.3456C134.831 86.3456 135.312 86.2196 135.713 85.9676C136.124 85.7062 136.423 85.3329 136.609 84.8476L136.833 85.5336C136.647 86.0189 136.32 86.4062 135.853 86.6956C135.396 86.9849 134.817 87.1296 134.117 87.1296ZM143.439 89.8456C142.767 89.8456 142.123 89.7476 141.507 89.5516C140.891 89.3556 140.392 89.0756 140.009 88.7116L140.513 87.9556C140.858 88.2636 141.283 88.5062 141.787 88.6836C142.3 88.8702 142.842 88.9636 143.411 88.9636C144.344 88.9636 145.03 88.7442 145.469 88.3056C145.908 87.8762 146.127 87.2042 146.127 86.2896V84.4556L146.267 83.1956L146.169 81.9356V79.7096H147.121V86.1636C147.121 87.4329 146.808 88.3616 146.183 88.9496C145.567 89.5469 144.652 89.8456 143.439 89.8456ZM143.257 86.7796C142.557 86.7796 141.927 86.6302 141.367 86.3316C140.807 86.0236 140.364 85.5989 140.037 85.0576C139.72 84.5162 139.561 83.8956 139.561 83.1956C139.561 82.4956 139.72 81.8796 140.037 81.3476C140.364 80.8062 140.807 80.3862 141.367 80.0876C141.927 79.7889 142.557 79.6396 143.257 79.6396C143.91 79.6396 144.498 79.7749 145.021 80.0456C145.544 80.3162 145.959 80.7176 146.267 81.2496C146.575 81.7816 146.729 82.4302 146.729 83.1956C146.729 83.9609 146.575 84.6096 146.267 85.1416C145.959 85.6736 145.544 86.0796 145.021 86.3596C144.498 86.6396 143.91 86.7796 143.257 86.7796ZM143.355 85.8976C143.896 85.8976 144.377 85.7856 144.797 85.5616C145.217 85.3282 145.548 85.0109 145.791 84.6096C146.034 84.1989 146.155 83.7276 146.155 83.1956C146.155 82.6636 146.034 82.1969 145.791 81.7956C145.548 81.3942 145.217 81.0816 144.797 80.8576C144.377 80.6242 143.896 80.5076 143.355 80.5076C142.823 80.5076 142.342 80.6242 141.913 80.8576C141.493 81.0816 141.162 81.3942 140.919 81.7956C140.686 82.1969 140.569 82.6636 140.569 83.1956C140.569 83.7276 140.686 84.1989 140.919 84.6096C141.162 85.0109 141.493 85.3282 141.913 85.5616C142.342 85.7856 142.823 85.8976 143.355 85.8976ZM153.009 87.1296C152.244 87.1296 151.572 86.9709 150.993 86.6536C150.414 86.3269 149.962 85.8836 149.635 85.3236C149.308 84.7542 149.145 84.1056 149.145 83.3776C149.145 82.6496 149.299 82.0056 149.607 81.4456C149.924 80.8856 150.354 80.4469 150.895 80.1296C151.446 79.8029 152.062 79.6396 152.743 79.6396C153.434 79.6396 154.045 79.7982 154.577 80.1156C155.118 80.4236 155.543 80.8622 155.851 81.4316C156.159 81.9916 156.313 82.6402 156.313 83.3776C156.313 83.4242 156.308 83.4756 156.299 83.5316C156.299 83.5782 156.299 83.6296 156.299 83.6856H149.901V82.9436H155.767L155.375 83.2376C155.375 82.7056 155.258 82.2342 155.025 81.8236C154.801 81.4036 154.493 81.0769 154.101 80.8436C153.709 80.6102 153.256 80.4936 152.743 80.4936C152.239 80.4936 151.786 80.6102 151.385 80.8436C150.984 81.0769 150.671 81.4036 150.447 81.8236C150.223 82.2436 150.111 82.7242 150.111 83.2656V83.4196C150.111 83.9796 150.232 84.4742 150.475 84.9036C150.727 85.3236 151.072 85.6549 151.511 85.8976C151.959 86.1309 152.468 86.2476 153.037 86.2476C153.485 86.2476 153.9 86.1682 154.283 86.0096C154.675 85.8509 155.011 85.6082 155.291 85.2816L155.851 85.9256C155.524 86.3176 155.114 86.6162 154.619 86.8216C154.134 87.0269 153.597 87.1296 153.009 87.1296Z" fill="black"/>
<path d="M174.92 87.9599H182.27C187.03 87.9599 190.89 84.0999 190.89 79.3399V9.78992C190.89 5.02992 187.03 1.16992 182.27 1.16992H9.62C4.86 1.16992 1 5.02992 1 9.78992V79.3399C1 84.0999 4.86 87.9599 9.62 87.9599H17.54" stroke="black" stroke-miterlimit="10"/>
<path d="M40.652 47.924V42.204H48.836C51.3293 42.204 53.104 41.6907 54.16 40.664C55.216 39.608 55.744 38.332 55.744 36.836C55.744 35.0467 55.172 33.5947 54.028 32.48C52.884 31.3653 51.0653 30.8227 48.572 30.852H38.848V27.2H66.656V30.852H56.052L57.548 28.872C59.4253 29.7227 60.7893 30.9253 61.64 32.48C62.4907 34.0347 62.916 35.7067 62.916 37.496C62.916 39.696 62.3733 41.5733 61.288 43.128C60.232 44.6827 58.7067 45.8707 56.712 46.692C54.7173 47.5133 52.3413 47.924 49.584 47.924H40.652ZM55.832 58L47.824 45.636H55.436L63.532 58H55.832ZM38.848 36.924V33.272H66.656V36.924H38.848ZM83.144 58.528C80.5626 58.528 78.304 58.1467 76.368 57.384C74.432 56.592 72.9213 55.492 71.836 54.084C70.7506 52.6467 70.208 50.9747 70.208 49.068C70.208 47.1613 70.736 45.548 71.792 44.228C72.8773 42.8787 74.388 41.8667 76.324 41.192C78.26 40.488 80.5333 40.136 83.144 40.136C85.784 40.136 88.072 40.488 90.008 41.192C91.9733 41.8667 93.484 42.8787 94.54 44.228C95.6253 45.548 96.168 47.1613 96.168 49.068C96.168 50.9747 95.6253 52.6467 94.54 54.084C93.4546 55.492 91.9293 56.592 89.964 57.384C88.028 58.1467 85.7546 58.528 83.144 58.528ZM83.144 53.292C84.9333 53.292 86.3413 52.896 87.368 52.104C88.424 51.312 88.952 50.2267 88.952 48.848C88.952 47.4693 88.424 46.3987 87.368 45.636C86.3413 44.844 84.9333 44.448 83.144 44.448C81.384 44.448 79.9906 44.844 78.964 45.636C77.9373 46.3987 77.424 47.4693 77.424 48.848C77.424 50.2267 77.9373 51.312 78.964 52.104C79.9906 52.896 81.384 53.292 83.144 53.292ZM83.144 39.564C84.64 39.564 85.8133 39.2267 86.664 38.552C87.544 37.8773 87.984 36.9533 87.984 35.78C87.984 34.548 87.5293 33.5947 86.62 32.92C85.74 32.2453 84.5813 31.908 83.144 31.908C81.736 31.908 80.592 32.2453 79.712 32.92C78.832 33.5947 78.392 34.548 78.392 35.78C78.392 36.9533 78.8173 37.8773 79.668 38.552C80.5186 39.2267 81.6773 39.564 83.144 39.564ZM83.144 43.744C80.768 43.744 78.6853 43.4213 76.896 42.776C75.136 42.1307 73.7573 41.192 72.76 39.96C71.792 38.6987 71.308 37.2027 71.308 35.472C71.308 33.6533 71.8066 32.0987 72.804 30.808C73.8013 29.488 75.1946 28.476 76.984 27.772C78.7733 27.0387 80.8266 26.672 83.144 26.672C85.52 26.672 87.588 27.0387 89.348 27.772C91.1373 28.476 92.5306 29.488 93.528 30.808C94.5546 32.0987 95.068 33.6533 95.068 35.472C95.068 37.2027 94.5693 38.6987 93.572 39.96C92.604 41.192 91.2253 42.1307 89.436 42.776C87.6466 43.4213 85.5493 43.744 83.144 43.744Z" fill="#A22877"/>
<path d="M111.1 49V35H113.1V47.26H120.68V49H111.1ZM122.975 49V35H128.435C129.662 35 130.708 35.1933 131.575 35.58C132.442 35.9667 133.108 36.5267 133.575 37.26C134.042 37.9933 134.275 38.8667 134.275 39.88C134.275 40.8933 134.042 41.7667 133.575 42.5C133.108 43.22 132.442 43.78 131.575 44.18C130.708 44.5667 129.662 44.76 128.435 44.76H124.075L124.975 43.82V49H122.975ZM124.975 44.02L124.075 43.02H128.375C129.655 43.02 130.622 42.7467 131.275 42.2C131.942 41.6533 132.275 40.88 132.275 39.88C132.275 38.88 131.942 38.1067 131.275 37.56C130.622 37.0133 129.655 36.74 128.375 36.74H124.075L124.975 35.74V44.02ZM134.39 49L140.73 35H142.71L149.07 49H146.97L141.31 36.12H142.11L136.45 49H134.39ZM137.09 45.5L137.63 43.9H145.51L146.09 45.5H137.09Z" fill="#A22877"/>
<path d="M252.648 89.8896V80.0896H253.67V89.8896H252.648ZM245.48 89.8896V80.0896H246.516V89.8896H245.48ZM246.404 85.3676V84.4576H252.746V85.3676H246.404ZM256.658 89.8896V82.5396H257.652V89.8896H256.658ZM257.162 80.9156C256.957 80.9156 256.784 80.8456 256.644 80.7056C256.504 80.5656 256.434 80.3976 256.434 80.2016C256.434 80.0056 256.504 79.8423 256.644 79.7116C256.784 79.5716 256.957 79.5016 257.162 79.5016C257.368 79.5016 257.54 79.567 257.68 79.6976C257.82 79.8283 257.89 79.9916 257.89 80.1876C257.89 80.393 257.82 80.5656 257.68 80.7056C257.55 80.8456 257.377 80.9156 257.162 80.9156ZM263.554 92.6756C262.882 92.6756 262.238 92.5776 261.622 92.3816C261.006 92.1856 260.507 91.9056 260.124 91.5416L260.628 90.7856C260.974 91.0936 261.398 91.3363 261.902 91.5136C262.416 91.7003 262.957 91.7936 263.526 91.7936C264.46 91.7936 265.146 91.5743 265.584 91.1356C266.023 90.7063 266.242 90.0343 266.242 89.1196V87.2856L266.382 86.0256L266.284 84.7656V82.5396H267.236V88.9936C267.236 90.263 266.924 91.1916 266.298 91.7796C265.682 92.377 264.768 92.6756 263.554 92.6756ZM263.372 89.6096C262.672 89.6096 262.042 89.4603 261.482 89.1616C260.922 88.8536 260.479 88.429 260.152 87.8876C259.835 87.3463 259.676 86.7256 259.676 86.0256C259.676 85.3256 259.835 84.7096 260.152 84.1776C260.479 83.6363 260.922 83.2163 261.482 82.9176C262.042 82.619 262.672 82.4696 263.372 82.4696C264.026 82.4696 264.614 82.605 265.136 82.8756C265.659 83.1463 266.074 83.5476 266.382 84.0796C266.69 84.6116 266.844 85.2603 266.844 86.0256C266.844 86.791 266.69 87.4396 266.382 87.9716C266.074 88.5036 265.659 88.9096 265.136 89.1896C264.614 89.4696 264.026 89.6096 263.372 89.6096ZM263.47 88.7276C264.012 88.7276 264.492 88.6156 264.912 88.3916C265.332 88.1583 265.664 87.841 265.906 87.4396C266.149 87.029 266.27 86.5576 266.27 86.0256C266.27 85.4936 266.149 85.027 265.906 84.6256C265.664 84.2243 265.332 83.9116 264.912 83.6876C264.492 83.4543 264.012 83.3376 263.47 83.3376C262.938 83.3376 262.458 83.4543 262.028 83.6876C261.608 83.9116 261.277 84.2243 261.034 84.6256C260.801 85.027 260.684 85.4936 260.684 86.0256C260.684 86.5576 260.801 87.029 261.034 87.4396C261.277 87.841 261.608 88.1583 262.028 88.3916C262.458 88.6156 262.938 88.7276 263.47 88.7276ZM270.002 89.8896V79.5016H270.996V84.5556L270.8 84.1776C271.034 83.6456 271.407 83.2303 271.92 82.9316C272.434 82.6236 273.045 82.4696 273.754 82.4696C274.352 82.4696 274.874 82.5863 275.322 82.8196C275.78 83.0436 276.134 83.389 276.386 83.8556C276.648 84.3223 276.778 84.9103 276.778 85.6196V89.8896H275.784V85.7176C275.784 84.943 275.588 84.3596 275.196 83.9676C274.814 83.5663 274.272 83.3656 273.572 83.3656C273.05 83.3656 272.592 83.473 272.2 83.6876C271.818 83.893 271.519 84.1963 271.304 84.5976C271.099 84.9896 270.996 85.4656 270.996 86.0256V89.8896H270.002ZM282.585 89.9596C281.82 89.9596 281.148 89.801 280.569 89.4836C279.99 89.157 279.538 88.7136 279.211 88.1536C278.884 87.5843 278.721 86.9356 278.721 86.2076C278.721 85.4796 278.875 84.8356 279.183 84.2756C279.5 83.7156 279.93 83.277 280.471 82.9596C281.022 82.633 281.638 82.4696 282.319 82.4696C283.01 82.4696 283.621 82.6283 284.153 82.9456C284.694 83.2536 285.119 83.6923 285.427 84.2616C285.735 84.8216 285.889 85.4703 285.889 86.2076C285.889 86.2543 285.884 86.3056 285.875 86.3616C285.875 86.4083 285.875 86.4596 285.875 86.5156H279.477V85.7736H285.343L284.951 86.0676C284.951 85.5356 284.834 85.0643 284.601 84.6536C284.377 84.2336 284.069 83.907 283.677 83.6736C283.285 83.4403 282.832 83.3236 282.319 83.3236C281.815 83.3236 281.362 83.4403 280.961 83.6736C280.56 83.907 280.247 84.2336 280.023 84.6536C279.799 85.0736 279.687 85.5543 279.687 86.0956V86.2496C279.687 86.8096 279.808 87.3043 280.051 87.7336C280.303 88.1536 280.648 88.485 281.087 88.7276C281.535 88.961 282.044 89.0776 282.613 89.0776C283.061 89.0776 283.476 88.9983 283.859 88.8396C284.251 88.681 284.587 88.4383 284.867 88.1116L285.427 88.7556C285.1 89.1476 284.69 89.4463 284.195 89.6516C283.71 89.857 283.173 89.9596 282.585 89.9596ZM289.886 89.9596C289.28 89.9596 288.706 89.8756 288.164 89.7076C287.623 89.5303 287.198 89.311 286.89 89.0496L287.338 88.2656C287.637 88.4896 288.02 88.6856 288.486 88.8536C288.953 89.0123 289.443 89.0916 289.956 89.0916C290.656 89.0916 291.16 88.9843 291.468 88.7696C291.776 88.5456 291.93 88.2516 291.93 87.8876C291.93 87.617 291.842 87.407 291.664 87.2576C291.496 87.099 291.272 86.9823 290.992 86.9076C290.712 86.8236 290.4 86.7536 290.054 86.6976C289.709 86.6416 289.364 86.5763 289.018 86.5016C288.682 86.427 288.374 86.3196 288.094 86.1796C287.814 86.0303 287.586 85.8296 287.408 85.5776C287.24 85.3256 287.156 84.9896 287.156 84.5696C287.156 84.1683 287.268 83.809 287.492 83.4916C287.716 83.1743 288.043 82.927 288.472 82.7496C288.911 82.563 289.443 82.4696 290.068 82.4696C290.544 82.4696 291.02 82.535 291.496 82.6656C291.972 82.787 292.364 82.9503 292.672 83.1556L292.238 83.9536C291.912 83.7296 291.562 83.571 291.188 83.4776C290.815 83.375 290.442 83.3236 290.068 83.3236C289.406 83.3236 288.916 83.4403 288.598 83.6736C288.29 83.8976 288.136 84.187 288.136 84.5416C288.136 84.8216 288.22 85.041 288.388 85.1996C288.566 85.3583 288.794 85.4843 289.074 85.5776C289.364 85.6616 289.676 85.7316 290.012 85.7876C290.358 85.8436 290.698 85.9136 291.034 85.9976C291.38 86.0723 291.692 86.1796 291.972 86.3196C292.262 86.4503 292.49 86.6416 292.658 86.8936C292.836 87.1363 292.924 87.4583 292.924 87.8596C292.924 88.289 292.803 88.6623 292.56 88.9796C292.327 89.2876 291.982 89.5303 291.524 89.7076C291.076 89.8756 290.53 89.9596 289.886 89.9596ZM297.072 89.9596C296.382 89.9596 295.85 89.773 295.476 89.3996C295.103 89.0263 294.916 88.499 294.916 87.8176V80.9156H295.91V87.7616C295.91 88.191 296.018 88.5223 296.232 88.7556C296.456 88.989 296.774 89.1056 297.184 89.1056C297.623 89.1056 297.987 88.9796 298.276 88.7276L298.626 89.4416C298.43 89.619 298.192 89.7496 297.912 89.8336C297.642 89.9176 297.362 89.9596 297.072 89.9596ZM293.6 83.3656V82.5396H298.15V83.3656H293.6ZM304.31 89.8896V80.0896H307.978C308.809 80.0896 309.523 80.225 310.12 80.4956C310.717 80.757 311.175 81.1396 311.492 81.6436C311.819 82.1383 311.982 82.7403 311.982 83.4496C311.982 84.1403 311.819 84.7376 311.492 85.2416C311.175 85.7363 310.717 86.119 310.12 86.3896C309.523 86.6603 308.809 86.7956 307.978 86.7956H304.884L305.346 86.3056V89.8896H304.31ZM305.346 86.3896L304.884 85.8856H307.95C308.93 85.8856 309.672 85.6756 310.176 85.2556C310.689 84.8263 310.946 84.2243 310.946 83.4496C310.946 82.6656 310.689 82.059 310.176 81.6296C309.672 81.2003 308.93 80.9856 307.95 80.9856H304.884L305.346 80.4956V86.3896ZM318.55 89.8896V88.2656L318.508 87.9996V85.2836C318.508 84.6583 318.33 84.1776 317.976 83.8416C317.63 83.5056 317.112 83.3376 316.422 83.3376C315.946 83.3376 315.493 83.417 315.064 83.5756C314.634 83.7343 314.27 83.9443 313.972 84.2056L313.524 83.4636C313.897 83.1463 314.345 82.9036 314.868 82.7356C315.39 82.5583 315.941 82.4696 316.52 82.4696C317.472 82.4696 318.204 82.7076 318.718 83.1836C319.24 83.6503 319.502 84.3643 319.502 85.3256V89.8896H318.55ZM316.016 89.9596C315.465 89.9596 314.984 89.871 314.574 89.6936C314.172 89.507 313.864 89.255 313.65 88.9376C313.435 88.611 313.328 88.2376 313.328 87.8176C313.328 87.435 313.416 87.0896 313.594 86.7816C313.78 86.4643 314.079 86.2123 314.49 86.0256C314.91 85.8296 315.47 85.7316 316.17 85.7316H318.704V86.4736H316.198C315.488 86.4736 314.994 86.5996 314.714 86.8516C314.443 87.1036 314.308 87.4163 314.308 87.7896C314.308 88.2096 314.471 88.5456 314.798 88.7976C315.124 89.0496 315.582 89.1756 316.17 89.1756C316.73 89.1756 317.21 89.0496 317.612 88.7976C318.022 88.5363 318.321 88.163 318.508 87.6776L318.732 88.3636C318.545 88.849 318.218 89.2363 317.752 89.5256C317.294 89.815 316.716 89.9596 316.016 89.9596ZM325.253 89.9596C324.525 89.9596 323.872 89.801 323.293 89.4836C322.724 89.157 322.276 88.7136 321.949 88.1536C321.623 87.5843 321.459 86.9356 321.459 86.2076C321.459 85.4703 321.623 84.8216 321.949 84.2616C322.276 83.7016 322.724 83.263 323.293 82.9456C323.872 82.6283 324.525 82.4696 325.253 82.4696C325.879 82.4696 326.443 82.591 326.947 82.8336C327.451 83.0763 327.848 83.4403 328.137 83.9256L327.395 84.4296C327.143 84.0563 326.831 83.781 326.457 83.6036C326.084 83.4263 325.678 83.3376 325.239 83.3376C324.717 83.3376 324.245 83.459 323.825 83.7016C323.405 83.935 323.074 84.2663 322.831 84.6956C322.589 85.125 322.467 85.629 322.467 86.2076C322.467 86.7863 322.589 87.2903 322.831 87.7196C323.074 88.149 323.405 88.485 323.825 88.7276C324.245 88.961 324.717 89.0776 325.239 89.0776C325.678 89.0776 326.084 88.989 326.457 88.8116C326.831 88.6343 327.143 88.3636 327.395 87.9996L328.137 88.5036C327.848 88.9796 327.451 89.3436 326.947 89.5956C326.443 89.8383 325.879 89.9596 325.253 89.9596ZM330.765 87.9856L330.793 86.7116L335.371 82.5396H336.589L333.355 85.6336L332.795 86.1096L330.765 87.9856ZM329.981 89.8896V79.5016H330.975V89.8896H329.981ZM335.679 89.8896L332.613 86.0676L333.257 85.2976L336.897 89.8896H335.679ZM342.817 89.8896V88.2656L342.775 87.9996V85.2836C342.775 84.6583 342.598 84.1776 342.243 83.8416C341.898 83.5056 341.38 83.3376 340.689 83.3376C340.213 83.3376 339.761 83.417 339.331 83.5756C338.902 83.7343 338.538 83.9443 338.239 84.2056L337.791 83.4636C338.165 83.1463 338.613 82.9036 339.135 82.7356C339.658 82.5583 340.209 82.4696 340.787 82.4696C341.739 82.4696 342.472 82.7076 342.985 83.1836C343.508 83.6503 343.769 84.3643 343.769 85.3256V89.8896H342.817ZM340.283 89.9596C339.733 89.9596 339.252 89.871 338.841 89.6936C338.44 89.507 338.132 89.255 337.917 88.9376C337.703 88.611 337.595 88.2376 337.595 87.8176C337.595 87.435 337.684 87.0896 337.861 86.7816C338.048 86.4643 338.347 86.2123 338.757 86.0256C339.177 85.8296 339.737 85.7316 340.437 85.7316H342.971V86.4736H340.465C339.756 86.4736 339.261 86.5996 338.981 86.8516C338.711 87.1036 338.575 87.4163 338.575 87.7896C338.575 88.2096 338.739 88.5456 339.065 88.7976C339.392 89.0496 339.849 89.1756 340.437 89.1756C340.997 89.1756 341.478 89.0496 341.879 88.7976C342.29 88.5363 342.589 88.163 342.775 87.6776L342.999 88.3636C342.813 88.849 342.486 89.2363 342.019 89.5256C341.562 89.815 340.983 89.9596 340.283 89.9596ZM349.605 92.6756C348.933 92.6756 348.289 92.5776 347.673 92.3816C347.057 92.1856 346.558 91.9056 346.175 91.5416L346.679 90.7856C347.024 91.0936 347.449 91.3363 347.953 91.5136C348.466 91.7003 349.008 91.7936 349.577 91.7936C350.51 91.7936 351.196 91.5743 351.635 91.1356C352.074 90.7063 352.293 90.0343 352.293 89.1196V87.2856L352.433 86.0256L352.335 84.7656V82.5396H353.287V88.9936C353.287 90.263 352.974 91.1916 352.349 91.7796C351.733 92.377 350.818 92.6756 349.605 92.6756ZM349.423 89.6096C348.723 89.6096 348.093 89.4603 347.533 89.1616C346.973 88.8536 346.53 88.429 346.203 87.8876C345.886 87.3463 345.727 86.7256 345.727 86.0256C345.727 85.3256 345.886 84.7096 346.203 84.1776C346.53 83.6363 346.973 83.2163 347.533 82.9176C348.093 82.619 348.723 82.4696 349.423 82.4696C350.076 82.4696 350.664 82.605 351.187 82.8756C351.71 83.1463 352.125 83.5476 352.433 84.0796C352.741 84.6116 352.895 85.2603 352.895 86.0256C352.895 86.791 352.741 87.4396 352.433 87.9716C352.125 88.5036 351.71 88.9096 351.187 89.1896C350.664 89.4696 350.076 89.6096 349.423 89.6096ZM349.521 88.7276C350.062 88.7276 350.543 88.6156 350.963 88.3916C351.383 88.1583 351.714 87.841 351.957 87.4396C352.2 87.029 352.321 86.5576 352.321 86.0256C352.321 85.4936 352.2 85.027 351.957 84.6256C351.714 84.2243 351.383 83.9116 350.963 83.6876C350.543 83.4543 350.062 83.3376 349.521 83.3376C348.989 83.3376 348.508 83.4543 348.079 83.6876C347.659 83.9116 347.328 84.2243 347.085 84.6256C346.852 85.027 346.735 85.4936 346.735 86.0256C346.735 86.5576 346.852 87.029 347.085 87.4396C347.328 87.841 347.659 88.1583 348.079 88.3916C348.508 88.6156 348.989 88.7276 349.521 88.7276ZM359.175 89.9596C358.41 89.9596 357.738 89.801 357.159 89.4836C356.58 89.157 356.128 88.7136 355.801 88.1536C355.474 87.5843 355.311 86.9356 355.311 86.2076C355.311 85.4796 355.465 84.8356 355.773 84.2756C356.09 83.7156 356.52 83.277 357.061 82.9596C357.612 82.633 358.228 82.4696 358.909 82.4696C359.6 82.4696 360.211 82.6283 360.743 82.9456C361.284 83.2536 361.709 83.6923 362.017 84.2616C362.325 84.8216 362.479 85.4703 362.479 86.2076C362.479 86.2543 362.474 86.3056 362.465 86.3616C362.465 86.4083 362.465 86.4596 362.465 86.5156H356.067V85.7736H361.933L361.541 86.0676C361.541 85.5356 361.424 85.0643 361.191 84.6536C360.967 84.2336 360.659 83.907 360.267 83.6736C359.875 83.4403 359.422 83.3236 358.909 83.3236C358.405 83.3236 357.952 83.4403 357.551 83.6736C357.15 83.907 356.837 84.2336 356.613 84.6536C356.389 85.0736 356.277 85.5543 356.277 86.0956V86.2496C356.277 86.8096 356.398 87.3043 356.641 87.7336C356.893 88.1536 357.238 88.485 357.677 88.7276C358.125 88.961 358.634 89.0776 359.203 89.0776C359.651 89.0776 360.066 88.9983 360.449 88.8396C360.841 88.681 361.177 88.4383 361.457 88.1116L362.017 88.7556C361.69 89.1476 361.28 89.4463 360.785 89.6516C360.3 89.857 359.763 89.9596 359.175 89.9596Z" fill="black"/>
<path d="M380.92 87.79H388.27C393.03 87.79 396.89 83.93 396.89 79.17V9.62C396.89 4.85999 393.03 1 388.27 1H215.62C210.86 1 207 4.85999 207 9.62V79.17C207 83.93 210.86 87.79 215.62 87.79H223.54" stroke="black" stroke-miterlimit="10"/>
<path d="M236.652 45.7541V40.0341H244.836C247.329 40.0341 249.104 39.5207 250.16 38.4941C251.216 37.4381 251.744 36.1621 251.744 34.6661C251.744 32.8767 251.172 31.4247 250.028 30.3101C248.884 29.1954 247.065 28.6527 244.572 28.6821H234.848V25.0301H262.656V28.6821H252.052L253.548 26.7021C255.425 27.5527 256.789 28.7554 257.64 30.3101C258.491 31.8647 258.916 33.5367 258.916 35.3261C258.916 37.5261 258.373 39.4034 257.288 40.9581C256.232 42.5127 254.707 43.7007 252.712 44.5221C250.717 45.3434 248.341 45.7541 245.584 45.7541H236.652ZM251.832 55.8301L243.824 43.4661H251.436L259.532 55.8301H251.832ZM234.848 34.7541V31.1021H262.656V34.7541H234.848ZM266.292 55.8301V51.2101L278.172 39.9901C279.111 39.1394 279.8 38.3767 280.24 37.7021C280.68 37.0274 280.973 36.4114 281.12 35.8541C281.296 35.2967 281.384 34.7834 281.384 34.3141C281.384 33.0821 280.959 32.1434 280.108 31.4981C279.287 30.8234 278.069 30.4861 276.456 30.4861C275.165 30.4861 273.963 30.7354 272.848 31.2341C271.763 31.7327 270.839 32.5101 270.076 33.5661L264.884 30.2221C266.057 28.4621 267.7 27.0687 269.812 26.0421C271.924 25.0154 274.359 24.5021 277.116 24.5021C279.404 24.5021 281.399 24.8834 283.1 25.6461C284.831 26.3794 286.165 27.4207 287.104 28.7701C288.072 30.1194 288.556 31.7327 288.556 33.6101C288.556 34.6074 288.424 35.6047 288.16 36.6021C287.925 37.5701 287.427 38.5967 286.664 39.6821C285.931 40.7674 284.845 41.9847 283.408 43.3341L273.552 52.6181L272.188 50.0221H289.568V55.8301H266.292ZM297.437 55.8301L309.845 27.7581L311.693 30.8381H295.105L298.273 27.4941V35.8541H291.937V25.0301H316.621V29.6501L305.181 55.8301H297.437Z" fill="#A22877"/>
<path d="M330.1 46.8301V32.8301H332.1V45.0901H339.68V46.8301H330.1ZM341.975 46.8301V32.8301H347.435C348.662 32.8301 349.708 33.0234 350.575 33.4101C351.442 33.7967 352.108 34.3567 352.575 35.0901C353.042 35.8234 353.275 36.6967 353.275 37.7101C353.275 38.7234 353.042 39.5967 352.575 40.3301C352.108 41.0501 351.442 41.6101 350.575 42.0101C349.708 42.3967 348.662 42.5901 347.435 42.5901H343.075L343.975 41.6501V46.8301H341.975ZM343.975 41.8501L343.075 40.8501H347.375C348.655 40.8501 349.622 40.5767 350.275 40.0301C350.942 39.4834 351.275 38.7101 351.275 37.7101C351.275 36.7101 350.942 35.9367 350.275 35.3901C349.622 34.8434 348.655 34.5701 347.375 34.5701H343.075L343.975 33.5701V41.8501ZM353.39 46.8301L359.73 32.8301H361.71L368.07 46.8301H365.97L360.31 33.9501H361.11L355.45 46.8301H353.39ZM356.09 43.3301L356.63 41.7301H364.51L365.09 43.3301H356.09Z" fill="#A22877"/>
</svg>
