<svg width="71" height="74" viewBox="0 0 71 74" fill="none" xmlns="http://www.w3.org/2000/svg">
<path d="M70.9123 0L61.5697 73.4213L46.217 57.474L48.265 41.2021L48.0281 40.6735L30.3641 58.656L14.1227 42.1146C14.033 41.8267 14.2831 41.9379 14.4096 41.7779L31.341 24.1534L31.4719 23.4694C31.3557 23.2988 30.0816 23.4511 29.8079 23.4786C24.9807 23.963 20.1137 25.0567 15.2556 25.4116L0 9.67293L70.9123 0Z" fill="#EEC3C5"/>
<path d="M19.496 64.2308C15.2769 69.2782 7.34991 68.3168 4.28278 62.4935C-0.124705 54.1272 8.59428 44.878 16.7457 49.1857C22.1107 52.0213 23.4343 59.5196 19.4972 64.2308H19.496Z" fill="#EEC3C5"/>
</svg>
