<svg width="71" height="74" viewBox="0 0 71 74" fill="none" xmlns="http://www.w3.org/2000/svg">
<path d="M71.0002 0L61.6576 73.4213L46.3049 57.474L48.3529 41.2021L48.116 40.6735L30.452 58.656L14.2106 42.1146C14.1209 41.8267 14.371 41.9379 14.4975 41.7779L31.4289 24.1534L31.5598 23.4694C31.4436 23.2988 30.1695 23.4511 29.8958 23.4786C25.0686 23.963 20.2016 25.0567 15.3435 25.4116L0.0878906 9.67293L71.0002 0Z" fill="#AFE3D8"/>
<path d="M19.5839 64.2308C15.3648 69.2782 7.4378 68.3168 4.37068 62.4935C-0.0368142 54.1272 8.68217 44.878 16.8336 49.1857C22.1986 52.0213 23.5222 59.5196 19.5851 64.2308H19.5839Z" fill="#AFE3D8"/>
</svg>
