<svg width="198" height="205" viewBox="0 0 198 205" fill="none" xmlns="http://www.w3.org/2000/svg">
<path d="M198 0L171.914 205.006L129.046 160.478L134.765 115.044L134.103 113.568L84.7819 163.778L39.4332 117.591C39.1826 116.788 39.881 117.098 40.2342 116.651L87.5097 67.4406L87.8753 65.5308C87.5508 65.0545 83.9932 65.4798 83.2291 65.5564C69.7506 66.9089 56.1612 69.9628 42.5964 70.9538L0 27.0086L198 0Z" fill="#B3DBD3" fill-opacity="0.4"/>
<path d="M54.4356 179.345C42.6551 193.438 20.5215 190.754 11.9575 174.494C-0.348971 151.134 23.996 125.308 46.7561 137.336C61.7364 145.254 65.432 166.19 54.4389 179.345H54.4356Z" fill="#B3DBD3" fill-opacity="0.4"/>
</svg>
