<svg width="109" height="113" viewBox="0 0 109 113" fill="none" xmlns="http://www.w3.org/2000/svg">
<path d="M109 0.5L94.7482 112.5L71.3285 88.1732L74.4526 63.3514L74.0913 62.5451L47.1458 89.9764L22.3705 64.7433C22.2336 64.3041 22.6152 64.4738 22.8082 64.2298L48.636 37.3446L48.8358 36.3012C48.6585 36.041 46.7149 36.2734 46.2974 36.3152C38.9338 37.0541 31.5095 38.7225 24.0987 39.264L0.827148 15.2555L109 0.5Z" fill="#B3DBD3" fill-opacity="0.4"/>
<path d="M30.5655 98.4806C24.1295 106.18 12.0373 104.714 7.35863 95.8305C0.635257 83.0683 13.9356 68.9591 26.37 75.5302C34.5541 79.8558 36.5732 91.294 30.5673 98.4806H30.5655Z" fill="#B3DBD3" fill-opacity="0.4"/>
</svg>
