<svg width="225" height="43" viewBox="0 0 225 43" fill="none" xmlns="http://www.w3.org/2000/svg">
<g clip-path="url(#clip0_2370_8087)">
<path d="M8.67594 9.12666V10.4059H1.19531V0.118164H8.47143V1.39741H2.66991V4.55791H7.83639V5.80491H2.66991V9.12666H8.67594Z" fill="white"/>
<path d="M24.5316 10.4059V2.91316L20.7967 9.15891H20.1186L16.3944 2.95616V10.4059H14.9844V0.118164H16.1899L20.4845 7.35291L24.7146 0.118164H25.9201V10.4059H24.5208H24.5316Z" fill="white"/>
<path d="M41.2655 3.70866C41.2655 5.94466 39.651 7.29916 36.9709 7.29916H34.4199V10.4167H32.9453V0.118164H36.9601C39.6402 0.118164 41.2547 1.47266 41.2547 3.70866H41.2655ZM39.7909 3.70866C39.7909 2.23591 38.8007 1.39741 36.917 1.39741H34.4199V6.00916H36.917C38.8007 6.00916 39.7909 5.17066 39.7909 3.69791V3.70866Z" fill="white"/>
<path d="M46.6484 5.2675C46.6484 2.2575 48.9734 0 52.1378 0C55.3023 0 57.5949 2.236 57.5949 5.2675C57.5949 8.299 55.27 10.535 52.1378 10.535C49.0056 10.535 46.6484 8.28825 46.6484 5.2675ZM56.1311 5.2675C56.1311 2.9885 54.4197 1.3115 52.1378 1.3115C49.856 1.3115 48.123 2.9885 48.123 5.2675C48.123 7.5465 49.8344 9.2235 52.1378 9.2235C54.4412 9.2235 56.1311 7.5465 56.1311 5.2675Z" fill="white"/>
<path d="M78.0036 0.118164L74.5593 10.4059H73.0093L70.2001 2.19291L67.3908 10.4059H65.8193L62.375 0.118164H63.8927L66.6696 8.48166L69.565 0.118164H70.9212L73.7628 8.52466L76.6043 0.118164H78.0036Z" fill="white"/>
<path d="M91.1994 9.12666V10.4059H83.7188V0.118164H90.9949V1.39741H85.1934V4.55791H90.3598V5.80491H85.1934V9.12666H91.1994Z" fill="white"/>
<path d="M104.384 10.4059L102.156 7.24541C101.951 7.25616 101.725 7.27766 101.51 7.27766H98.959V10.4059H97.4844V0.118164H101.499C104.179 0.118164 105.794 1.47266 105.794 3.70866C105.794 5.29966 104.965 6.43916 103.523 6.95516L105.966 10.4059H104.362H104.384ZM104.341 3.70866C104.341 2.23591 103.35 1.39741 101.467 1.39741H98.959V6.03066H101.467C103.35 6.03066 104.341 5.18141 104.341 3.70866Z" fill="white"/>
<path d="M112.109 0.118164H113.584V10.4059H112.109V0.118164Z" fill="white"/>
<path d="M129.452 0.118164V10.4059H128.247L122.068 2.73041V10.4059H120.594V0.118164H121.799L127.978 7.79366V0.118164H129.452Z" fill="white"/>
<path d="M143.601 5.20301H145.011V9.21276C143.977 10.0835 142.557 10.5243 141.114 10.5243C137.95 10.5243 135.625 8.30976 135.625 5.25676C135.625 2.20376 137.95 -0.0107422 141.147 -0.0107422C142.783 -0.0107422 144.16 0.537508 145.108 1.58026L144.193 2.49401C143.342 1.66626 142.363 1.30076 141.2 1.30076C138.822 1.30076 137.089 2.95626 137.089 5.25676C137.089 7.55726 138.811 9.21276 141.179 9.21276C142.051 9.21276 142.858 9.01926 143.59 8.54626V5.19226L143.601 5.20301Z" fill="white"/>
<path d="M169.172 10.4059V2.91316L165.437 9.15891H164.759L161.035 2.95616V10.4059H159.625V0.118164H160.831L165.125 7.35291L169.366 0.118164H170.571V10.4059H169.172Z" fill="white"/>
<path d="M177.586 0.118164H179.061V10.4059H177.586V0.118164Z" fill="white"/>
<path d="M194.929 0.118164V10.4059H193.723L187.545 2.73041V10.4059H186.07V0.118164H187.276L193.454 7.79366V0.118164H194.929Z" fill="white"/>
<path d="M201.938 0.118164H206.275C209.59 0.118164 211.84 2.20366 211.84 5.26741C211.84 8.33116 209.59 10.4167 206.275 10.4167H201.938V0.118164ZM206.189 9.12666C208.74 9.12666 210.365 7.56791 210.365 5.25666C210.365 2.94541 208.729 1.38666 206.189 1.38666H203.412V9.11591H206.189V9.12666Z" fill="white"/>
<path d="M217.07 9.23425L217.619 8.084C218.383 8.772 219.697 9.27725 221.021 9.27725C222.796 9.27725 223.571 8.58925 223.571 7.68625C223.571 5.17075 217.329 6.76175 217.329 2.93475C217.329 1.34375 218.566 0 221.268 0C222.474 0 223.722 0.3225 224.583 0.91375L224.099 2.0855C223.206 1.51575 222.183 1.247 221.268 1.247C219.514 1.247 218.771 1.978 218.771 2.881C218.771 5.3965 225.014 3.827 225.014 7.60025C225.014 9.16975 223.744 10.5243 221.021 10.5243C219.449 10.5243 217.899 9.9975 217.081 9.23425H217.07Z" fill="white"/>
<path d="M0 41.0544L2.05583 36.4104C3.84257 37.4639 6.2213 38.1412 8.29865 38.1412C10.1069 38.1412 10.7635 37.7649 10.7635 37.1199C10.7635 34.7442 0.301378 36.6577 0.301378 29.6164C0.301378 26.1119 3.25057 23.2417 9.11668 23.2417C11.6569 23.2417 14.2832 23.7792 16.2529 24.8864L14.337 29.4982C12.4749 28.5522 10.7097 28.0899 9.06286 28.0899C7.20078 28.0899 6.60878 28.6274 6.60878 29.2724C6.60878 31.5407 17.0709 29.6487 17.0709 36.6147C17.0709 40.0655 14.1217 42.9895 8.2556 42.9895C5.09113 42.9895 1.90514 42.2047 0.0107635 41.0437L0 41.0544Z" fill="white"/>
<path d="M18.9531 23.6719H25.3359V42.5704H18.9531V23.6719Z" fill="white"/>
<path d="M47.0672 23.6719V42.5704H41.8254L34.6354 33.9811V42.5704H28.4141V23.6719H33.6559L40.8459 32.2611V23.6719H47.0672Z" fill="white"/>
<path d="M49.4062 33.1209C49.4062 27.3159 53.8623 23.2417 59.9437 23.2417C63.6463 23.2417 66.5633 24.5962 68.4361 27.0257L64.4106 30.6162C63.3019 29.2079 61.978 28.4017 60.2774 28.4017C57.6296 28.4017 55.8428 30.2399 55.8428 33.1209C55.8428 36.0019 57.6296 37.8509 60.2774 37.8509C61.978 37.8509 63.3019 37.0447 64.4106 35.6364L68.4361 39.2269C66.574 41.6564 63.6463 43.0109 59.9437 43.0109C53.8623 43.0109 49.4062 38.9367 49.4062 33.1317V33.1209Z" fill="white"/>
<path d="M86.0097 37.7651V42.5704H70.2734V23.6719H85.6545V28.4771H76.5486V30.6916H84.5458V35.2819H76.5486V37.7651H86.0097Z" fill="white"/>
<path d="M104.802 23.6719V42.5704H98.4195V28.4771H95.1797V23.6719H104.802Z" fill="white"/>
<path d="M123.438 32.5297C123.438 39.1409 119.198 43.0002 112.955 43.0002C110.716 43.0002 108.52 42.4627 107.089 41.5167L109.381 37.0662C110.49 37.8509 111.62 38.0659 112.815 38.0659C114.978 38.0659 116.485 36.9587 116.927 34.8517C115.979 35.5289 114.763 35.9052 113.17 35.9052C109.715 35.9052 106.68 33.5509 106.68 29.8529C106.68 25.8002 110.081 23.2417 114.354 23.2417C119.757 23.2417 123.438 26.3484 123.438 32.5297ZM116.733 29.5519C116.733 28.3587 115.926 27.6384 114.785 27.6384C113.644 27.6384 112.836 28.3694 112.836 29.5519C112.836 30.7344 113.644 31.4977 114.785 31.4977C115.926 31.4977 116.733 30.7452 116.733 29.5519Z" fill="white"/>
<path d="M141.306 32.5297C141.306 39.1409 137.065 43.0002 130.822 43.0002C128.583 43.0002 126.387 42.4627 124.956 41.5167L127.249 37.0662C128.357 37.8509 129.487 38.0659 130.682 38.0659C132.846 38.0659 134.363 36.9587 134.794 34.8517C133.847 35.5289 132.63 35.9052 131.037 35.9052C127.582 35.9052 124.547 33.5509 124.547 29.8529C124.547 25.8002 127.948 23.2417 132.221 23.2417C137.625 23.2417 141.306 26.3484 141.306 32.5297ZM134.6 29.5519C134.6 28.3587 133.793 27.6384 132.652 27.6384C131.511 27.6384 130.704 28.3694 130.704 29.5519C130.704 30.7344 131.511 31.4977 132.652 31.4977C133.793 31.4977 134.6 30.7452 134.6 29.5519Z" fill="white"/>
<path d="M161.243 39.3239H158.724V42.5596H152.535V39.3239H142.719V35.2711L150.748 23.6611H157.293L150.156 34.3789H152.729V31.4871H158.724V34.3789H161.243V39.3239Z" fill="white"/>
</g>
<defs>
<clipPath id="clip0_2370_8087">
<rect width="225" height="43" fill="white"/>
</clipPath>
</defs>
</svg>
