<svg width="229" height="238" viewBox="0 0 229 238" fill="none" xmlns="http://www.w3.org/2000/svg">
<path d="M229 0L198.83 237.103L149.251 185.603L155.864 133.056L155.099 131.349L98.056 189.42L45.6071 136.002C45.3173 135.073 46.125 135.432 46.5336 134.915L101.211 77.9995L101.634 75.7908C101.258 75.2398 97.1437 75.7318 96.26 75.8203C80.6712 77.3846 64.9541 80.9166 49.2656 82.0628L0 31.2372L229 0Z" fill="#B3DBD3" fill-opacity="0.4"/>
<path d="M62.9559 207.424C49.331 223.724 23.732 220.619 13.8272 201.814C-0.406105 174.797 27.7505 144.928 54.0741 158.839C71.3997 167.996 75.674 192.21 62.9597 207.424H62.9559Z" fill="#B3DBD3" fill-opacity="0.4"/>
</svg>
