<svg width="29" height="29" viewBox="0 0 29 29" fill="none" xmlns="http://www.w3.org/2000/svg">
<path d="M27.5609 7.73037L24.8422 5.06147C24.5025 4.72285 24.0423 4.53271 23.5627 4.53271C23.083 4.53271 22.6229 4.72285 22.2832 5.06147L11.7831 15.4324L7.62684 11.3996C7.2864 11.062 6.82611 10.8731 6.34672 10.8742C5.86733 10.8753 5.40789 11.0662 5.06895 11.4052L2.3502 14.124C2.01089 14.4638 1.82031 14.9244 1.82031 15.4046C1.82031 15.8848 2.01089 16.3454 2.3502 16.6853L10.4634 24.8415C10.6317 25.0099 10.8315 25.1434 11.0515 25.2345C11.2714 25.3256 11.5071 25.3725 11.7452 25.3725C11.9832 25.3725 12.219 25.3256 12.4389 25.2345C12.6588 25.1434 12.8586 25.0099 13.027 24.8415L27.5666 10.2985C27.7353 10.1297 27.8689 9.92929 27.96 9.70874C28.051 9.48819 28.0976 9.25184 28.0971 9.01324C28.0965 8.77464 28.0489 8.5385 27.9569 8.31836C27.8649 8.09821 27.7303 7.8984 27.5609 7.73037ZM11.7401 23.5626L3.62688 15.4063L6.34563 12.6876C6.34893 12.6903 6.35196 12.6933 6.35469 12.6966L11.1521 17.3513C11.3215 17.5171 11.549 17.6099 11.786 17.6099C12.0229 17.6099 12.2504 17.5171 12.4198 17.3513L23.5712 6.34381L26.2831 9.01725L11.7401 23.5626Z" fill="#0C2165"/>
</svg>
