<svg width="71" height="74" viewBox="0 0 71 74" fill="none" xmlns="http://www.w3.org/2000/svg">
<path d="M70.9982 0L61.6557 73.4213L46.303 57.474L48.351 41.2021L48.1141 40.6735L30.45 58.656L14.2087 42.1146C14.1189 41.8267 14.369 41.9379 14.4956 41.7779L31.4269 24.1534L31.5579 23.4694C31.4417 23.2988 30.1675 23.4511 29.8939 23.4786C25.0666 23.963 20.1997 25.0567 15.3415 25.4116L0.0859375 9.67293L70.9982 0Z" fill="#AFE3D8"/>
<path d="M19.5858 64.2303C15.3668 69.2777 7.43975 68.3163 4.37263 62.493C-0.0348611 54.1267 8.68412 44.8775 16.8355 49.1852C22.2006 52.0208 23.5241 59.5191 19.587 64.2303H19.5858Z" fill="#AFE3D8"/>
</svg>
