<svg width="71" height="74" viewBox="0 0 71 74" fill="none" xmlns="http://www.w3.org/2000/svg">
<path d="M70.9123 0L61.5697 73.4213L46.217 57.474L48.265 41.2021L48.0281 40.6735L30.3641 58.656L14.1227 42.1146C14.033 41.8267 14.2831 41.9379 14.4096 41.7779L31.341 24.1534L31.4719 23.4694C31.3557 23.2988 30.0816 23.4511 29.8079 23.4786C24.9807 23.963 20.1137 25.0567 15.2556 25.4116L0 9.67293L70.9123 0Z" fill="#EEC3C5"/>
<path d="M19.4921 64.2303C15.273 69.2777 7.346 68.3163 4.27888 62.493C-0.128611 54.1267 8.59037 44.8775 16.7418 49.1852C22.1068 52.0208 23.4304 59.5191 19.4933 64.2303H19.4921Z" fill="#EEC3C5"/>
</svg>
