<svg width="340" height="693" viewBox="0 0 340 693" fill="none" xmlns="http://www.w3.org/2000/svg">
<path d="M360.745 1C559.466 1.00025 720.489 155.53 720.489 346.064C720.489 536.599 559.466 691.129 360.745 691.129C162.024 691.129 1.00014 536.599 1 346.064C1 155.529 162.024 1 360.745 1Z" stroke="#A22877" stroke-width="2"/>
<path d="M361.422 204.872C443.144 204.872 509.322 268.415 509.322 346.713C509.322 425.011 443.144 488.554 361.422 488.554C279.699 488.554 213.522 425.011 213.521 346.713C213.521 268.415 279.699 204.872 361.422 204.872Z" stroke="#A22877" stroke-width="2"/>
<path d="M361.325 101.958C502.654 101.958 617.15 211.777 617.15 347.156C617.15 482.536 502.654 592.353 361.325 592.354C219.997 592.354 105.5 482.536 105.5 347.156C105.5 211.777 219.997 101.958 361.325 101.958Z" stroke="#A22877" stroke-width="2"/>
</svg>
