<svg xmlns="http://www.w3.org/2000/svg" version="1.1" xmlns:xlink="http://www.w3.org/1999/xlink" width="209.82" height="199.66"><svg id="SvgjsSvg1003" data-name="Layer 2" xmlns="http://www.w3.org/2000/svg" viewBox="0 0 209.82 199.66">
  <defs>
    <style>
      .cls-1 {
        fill: #a4d9d0;
      }

      .cls-1, .cls-2, .cls-3 {
        fill-rule: evenodd;
      }

      .cls-2 {
        fill: #f15f22;
      }

      .cls-4, .cls-3 {
        fill: #9f257f;
      }

      .cls-5 {
        fill: #a3238e;
      }

      .cls-6 {
        fill: #fff;
      }

      .cls-7 {
        fill: #f9b5b5;
      }
    </style>
  </defs>
  <g id="SvgjsG1002" data-name="Layer 1">
    <g>
      <polygon class="cls-2" points="49.31 97.88 29.63 131.98 93.23 131.81 49.31 97.88"></polygon>
      <path class="cls-5" d="M189.69,1.56c1.82,1.04,3.25,2.47,4.3,4.29,1.04,1.82,1.56,3.84,1.56,6.06s-.53,4.25-1.6,6.1c-1.06,1.84-2.51,3.3-4.35,4.36-1.83,1.06-3.86,1.6-6.08,1.6s-4.24-.53-6.06-1.6c-1.82-1.06-3.26-2.51-4.31-4.35-1.05-1.83-1.58-3.85-1.58-6.04s.53-4.21,1.58-6.04c1.05-1.83,2.5-3.28,4.33-4.35s3.87-1.6,6.11-1.6,4.27.52,6.09,1.56ZM188.82,21.05c1.58-.93,2.84-2.2,3.75-3.8.92-1.61,1.37-3.38,1.37-5.33s-.45-3.71-1.34-5.3c-.89-1.58-2.13-2.83-3.7-3.73-1.57-.9-3.34-1.36-5.31-1.36s-3.72.46-5.32,1.39-2.85,2.19-3.75,3.79c-.91,1.6-1.36,3.36-1.36,5.28s.45,3.68,1.36,5.28c.9,1.6,2.15,2.86,3.73,3.79,1.58.93,3.34,1.39,5.26,1.39s3.71-.46,5.3-1.39ZM188.93,12.43c-.5.72-1.2,1.24-2.11,1.56l3.09,4.79h-2.34l-2.82-4.35h-3.7v4.35h-2.31V5.19h5.43c1.7,0,3.04.42,4.02,1.26.98.84,1.48,1.96,1.48,3.36,0,1.02-.25,1.89-.75,2.61ZM186.53,11.82c.6-.48.9-1.14.9-2s-.3-1.52-.9-1.99-1.44-.7-2.53-.7h-2.99v5.4h2.99c1.09,0,1.93-.24,2.53-.71Z"></path>
      <polygon class="cls-2" points="93.67 61.5 104.5 38.18 115.54 61.94 129.09 43.73 104.84 1.73 80.53 43.83 93.67 61.5"></polygon>
      <polygon class="cls-2" points="116.83 131.75 179.81 131.58 160.38 97.91 116.83 131.75"></polygon>
      <polygon class="cls-3" points="179.81 131.58 116.83 131.75 104.93 140.93 93.23 131.81 29.62 131.98 2.84 177.73 206.37 177.73 179.81 131.58"></polygon>
      <polygon class="cls-6" points="170.54 90.04 190.01 37.88 159.27 61.48 161.48 38.05 137.56 61.42 133.24 38.15 115.54 61.94 104.5 38.18 93.67 61.5 76.31 38.15 71.99 61.49 48 38.05 50.2 61.33 19.67 37.88 39.1 89.89 39.15 90.04 104.93 140.93 170.54 90.04"></polygon>
      <g>
        <polygon class="cls-7" points="104.5 40.84 94.43 62.52 102.52 73.39 104.91 68.24 107.2 73.15 114.78 62.96 104.5 40.84"></polygon>
        <polygon class="cls-7" points="132.61 40.87 107.73 74.3 112.53 84.62 124.74 68.2 125.64 73.06 136.59 62.36 132.61 40.87"></polygon>
        <polygon class="cls-7" points="144.39 72.9 158.06 62.4 160.08 40.98 125.89 74.38 127.81 84.74 144.84 68.1 144.39 72.9"></polygon>
        <polygon class="cls-7" points="144.25 74.42 143.27 84.78 165.22 67.93 152.25 102.67 169.6 89.35 187.6 41.14 144.25 74.42"></polygon>
        <polygon class="cls-7" points="65.32 74.35 22.08 41.14 40.09 89.35 57.77 102.92 44.69 67.93 66.28 84.51 65.32 74.35"></polygon>
        <polygon class="cls-7" points="72.95 62.43 83.79 73.03 84.68 68.2 97.14 84.96 101.98 74.55 76.94 40.88 72.95 62.43"></polygon>
        <polygon class="cls-7" points="51.41 62.26 65.18 72.83 64.73 68.1 81.64 84.63 83.54 74.35 49.4 40.98 51.41 62.26"></polygon>
      </g>
      <g>
        <polygon class="cls-1" points="143.13 86.3 141.38 104.94 141.23 105.08 111.07 134.56 150.43 104.34 162.81 71.19 143.13 86.3"></polygon>
        <polygon class="cls-1" points="66.43 86.03 47.11 71.2 59.49 104.34 97.26 133.34 68.21 104.94 66.43 86.03"></polygon>
        <polygon class="cls-1" points="81.4 85.96 66.13 71.03 69.29 104.43 99.77 134.24 77.9 104.82 81.4 85.96"></polygon>
        <polygon class="cls-1" points="96.61 86.11 85.32 70.93 79.09 104.55 102.58 136.14 87.97 104.7 96.61 86.11"></polygon>
        <polygon class="cls-1" points="143.44 71.03 128.06 86.07 131.54 104.82 131.39 105.02 109.26 134.77 140.3 104.43 143.44 71.03"></polygon>
        <polygon class="cls-1" points="124.11 70.93 113.07 85.77 121.86 104.68 107.91 134.71 130.35 104.55 124.11 70.93"></polygon>
        <polygon class="cls-1" points="104.91 70.89 89.2 104.7 104.91 138.5 120.63 104.68 104.91 70.89"></polygon>
      </g>
      <g>
        <path class="cls-6" d="M74.82,163.22h-13.87l-2.87,6.53h-3.84l11.82-26.11h3.69l11.86,26.11h-3.92l-2.87-6.53ZM73.52,160.24l-5.63-12.79-5.63,12.79h11.26Z"></path>
        <path class="cls-6" d="M85.49,143.64h3.73v26.11h-3.73v-26.11Z"></path>
        <path class="cls-6" d="M121.26,169.75l-.04-19.02-9.44,15.85h-1.71l-9.44-15.74v18.91h-3.58v-26.11h3.06l10.89,18.35,10.74-18.35h3.06l.04,26.11h-3.58Z"></path>
        <path class="cls-6" d="M134.59,169.13c-1.83-.61-3.26-1.4-4.31-2.37l1.38-2.91c.99.9,2.27,1.62,3.82,2.18,1.55.56,3.15.84,4.79.84,2.16,0,3.78-.37,4.85-1.1,1.07-.73,1.6-1.71,1.6-2.93,0-.9-.29-1.62-.88-2.18s-1.31-.99-2.16-1.29c-.86-.3-2.07-.63-3.64-1.01-1.97-.47-3.55-.94-4.76-1.42-1.21-.47-2.24-1.2-3.1-2.18-.86-.98-1.29-2.3-1.29-3.97,0-1.39.37-2.65,1.1-3.77.73-1.12,1.85-2.02,3.34-2.69s3.34-1.01,5.56-1.01c1.54,0,3.06.2,4.55.6s2.77.97,3.84,1.71l-1.23,2.98c-1.09-.7-2.26-1.22-3.51-1.58s-2.46-.54-3.65-.54c-2.11,0-3.7.39-4.76,1.16-1.06.77-1.58,1.76-1.58,2.98,0,.89.3,1.62.9,2.18.6.56,1.34,1,2.22,1.31.88.31,2.08.64,3.6.99,1.96.47,3.54.95,4.74,1.42,1.19.47,2.22,1.19,3.08,2.16.86.97,1.29,2.27,1.29,3.92,0,1.37-.37,2.62-1.12,3.75-.75,1.13-1.88,2.03-3.4,2.69-1.52.66-3.38.99-5.59.99-1.96,0-3.86-.3-5.69-.91Z"></path>
      </g>
      <g>
        <path class="cls-4" d="M4.12,188.14l-.8,3.99h6.53l-.32,1.58H3.01l-.83,4.19h7.59l-.32,1.61H0l2.6-12.99h9.16l-.32,1.61h-7.33Z"></path>
        <path class="cls-4" d="M28.85,186.52l-2.6,12.99h-1.78l1.89-9.39-6.14,7.81h-.85l-3.25-8-1.91,9.57h-1.78l2.6-12.99h1.5l3.62,9.15,7.1-9.15h1.6Z"></path>
        <path class="cls-4" d="M41.08,187.52c.83.66,1.25,1.6,1.25,2.81,0,1.1-.24,2.04-.73,2.83-.49.79-1.19,1.39-2.11,1.8-.91.42-2,.62-3.25.62h-3.47l-.78,3.93h-1.86l2.6-12.99h4.82c1.51,0,2.68.33,3.52.99ZM39.39,193.07c.73-.59,1.09-1.45,1.09-2.58,0-.77-.27-1.35-.8-1.75-.53-.4-1.29-.6-2.28-.6h-3.12l-1.17,5.83h3.17c1.34,0,2.37-.3,3.1-.89Z"></path>
        <path class="cls-4" d="M46.51,198.97c-.92-.46-1.61-1.1-2.1-1.92s-.72-1.78-.72-2.87c0-1.45.33-2.76.98-3.95.66-1.19,1.58-2.13,2.77-2.82,1.19-.69,2.57-1.04,4.13-1.04,1.27,0,2.37.23,3.29.69.92.46,1.62,1.1,2.11,1.92.48.82.72,1.78.72,2.87,0,1.45-.33,2.76-.98,3.95-.66,1.19-1.58,2.13-2.78,2.82-1.2.69-2.58,1.04-4.14,1.04-1.27,0-2.37-.23-3.28-.69ZM53.04,197.19c.89-.54,1.58-1.28,2.06-2.2s.72-1.93.72-3.03c0-1.2-.38-2.16-1.14-2.87-.76-.71-1.85-1.07-3.26-1.07-1.16,0-2.19.27-3.08.82-.89.55-1.58,1.28-2.07,2.21-.49.93-.73,1.94-.73,3.02,0,1.2.38,2.15,1.15,2.87s1.85,1.07,3.26,1.07c1.16,0,2.19-.27,3.08-.82Z"></path>
        <path class="cls-4" d="M79.68,186.52l-6.94,12.99h-1.97l-1.45-10.31-5.66,10.31h-1.97l-1.74-12.99h1.82l1.41,10.59,5.75-10.59h1.73l1.45,10.61,5.71-10.61h1.86Z"></path>
        <path class="cls-4" d="M83.45,188.14l-.8,3.99h6.53l-.32,1.58h-6.53l-.83,4.19h7.59l-.32,1.61h-9.44l2.6-12.99h9.16l-.32,1.61h-7.33Z"></path>
        <path class="cls-4" d="M102.96,193.52c-.68.85-1.64,1.44-2.88,1.76l2.37,4.23h-1.97l-2.26-3.97h-3.82l-.78,3.97h-1.87l2.6-12.99h4.84c1.52,0,2.7.33,3.53.99s1.25,1.6,1.25,2.81c0,1.27-.34,2.34-1.02,3.19ZM101.03,193.07c.73-.59,1.09-1.45,1.09-2.58,0-.78-.27-1.37-.8-1.76s-1.3-.59-2.3-.59h-3.14l-1.17,5.83h3.21c1.34,0,2.37-.3,3.1-.89Z"></path>
        <path class="cls-4" d="M107.84,186.52h1.85l-2.6,12.99h-1.86l2.6-12.99Z"></path>
        <path class="cls-4" d="M124.76,186.52l-2.6,12.99h-1.52l-5.81-10-1.98,10h-1.86l2.6-12.99h1.52l5.81,10,1.99-10h1.85Z"></path>
        <path class="cls-4" d="M136.37,192.94h1.78l-1.02,5.1c-.62.51-1.34.9-2.17,1.19-.83.28-1.68.43-2.56.43-1.26,0-2.36-.23-3.29-.69-.93-.46-1.65-1.1-2.15-1.92-.5-.82-.75-1.78-.75-2.87,0-1.45.33-2.76.98-3.95.66-1.19,1.59-2.13,2.8-2.82,1.21-.69,2.62-1.04,4.21-1.04,1.13,0,2.11.17,2.96.52.85.35,1.53.84,2.05,1.48l-1.34,1.13c-.43-.51-.96-.88-1.58-1.12-.62-.24-1.34-.36-2.17-.36-1.21,0-2.28.27-3.19.8-.91.53-1.62,1.26-2.12,2.18-.5.92-.75,1.94-.75,3.07,0,1.2.39,2.15,1.17,2.87.78.71,1.9,1.07,3.38,1.07,1.08,0,2.05-.27,2.93-.82l.83-4.25Z"></path>
        <path class="cls-4" d="M161.79,186.52l-2.6,12.99h-1.78l1.89-9.39-6.14,7.81h-.85l-3.25-8-1.91,9.57h-1.78l2.6-12.99h1.5l3.62,9.15,7.1-9.15h1.6Z"></path>
        <path class="cls-4" d="M165.69,186.52h1.85l-2.6,12.99h-1.86l2.6-12.99Z"></path>
        <path class="cls-4" d="M182.61,186.52l-2.6,12.99h-1.52l-5.81-10-1.98,10h-1.86l2.6-12.99h1.52l5.81,10,1.99-10h1.85Z"></path>
        <path class="cls-4" d="M186.5,186.52h5.08c1.3,0,2.41.22,3.35.66s1.64,1.06,2.13,1.85c.49.8.73,1.73.73,2.81,0,1.51-.34,2.84-1.01,4.01s-1.62,2.06-2.84,2.7c-1.22.64-2.63.96-4.24.96h-5.81l2.6-12.99ZM189.77,197.9c1.25,0,2.34-.25,3.26-.76.93-.51,1.64-1.21,2.14-2.11.5-.9.75-1.92.75-3.07s-.38-2.14-1.15-2.81c-.77-.67-1.89-1.01-3.38-1.01h-3.38l-1.95,9.76h3.69Z"></path>
        <path class="cls-4" d="M200.44,199.21c-.9-.3-1.59-.67-2.07-1.13l.82-1.48c.49.46,1.12.82,1.87,1.09.75.27,1.53.4,2.34.4,1.06,0,1.91-.19,2.55-.58.64-.39.95-.93.95-1.62,0-.37-.12-.68-.37-.93-.25-.25-.55-.45-.91-.59-.36-.15-.87-.32-1.52-.52-.83-.25-1.5-.48-2-.71-.51-.22-.94-.55-1.31-.99-.37-.44-.55-1.02-.55-1.73,0-.82.23-1.53.69-2.13.46-.61,1.09-1.07,1.91-1.4.82-.33,1.75-.49,2.8-.49.8,0,1.57.1,2.29.29.72.19,1.35.46,1.88.81l-.74,1.52c-.48-.35-1.02-.61-1.62-.78-.6-.17-1.23-.26-1.9-.26-1.06,0-1.91.21-2.54.62-.63.42-.95.97-.95,1.66,0,.38.13.71.38.96s.57.46.95.61c.38.15.89.32,1.55.52.82.25,1.48.48,1.98.69.5.22.93.54,1.28.96.35.42.53.96.53,1.63,0,.83-.23,1.55-.7,2.15-.46.61-1.11,1.07-1.94,1.4s-1.78.49-2.86.49c-.96,0-1.9-.15-2.79-.45Z"></path>
      </g>
    </g>
  </g>
</svg><style>@media (prefers-color-scheme: light) { :root { filter: none; } }
@media (prefers-color-scheme: dark) { :root { filter: none; } }
</style></svg>