<svg width="322" height="585" viewBox="0 0 322 585" fill="none" xmlns="http://www.w3.org/2000/svg">
<g opacity="0.2">
<path d="M304.499 1C472.156 1.00025 607.997 131.372 607.997 292.107C607.997 452.842 472.156 583.214 304.499 583.214C136.842 583.214 1.00021 452.842 1 292.107C1 131.372 136.842 1 304.499 1Z" stroke="#A22877" stroke-width="2"/>
<path d="M305.07 173.086C373.971 173.087 429.754 226.658 429.754 292.656C429.754 358.653 373.971 412.225 305.07 412.225C236.17 412.225 180.386 358.653 180.386 292.656C180.386 226.658 236.17 173.086 305.07 173.086Z" stroke="#A22877" stroke-width="2"/>
<path d="M304.99 86.2183C424.203 86.2185 520.771 178.85 520.771 293.03C520.771 407.209 424.203 499.841 304.99 499.841C185.777 499.841 89.208 407.209 89.208 293.03C89.208 178.85 185.777 86.2183 304.99 86.2183Z" stroke="#A22877" stroke-width="2"/>
</g>
</svg>
