<svg width="27" height="25" viewBox="0 0 27 25" fill="none" xmlns="http://www.w3.org/2000/svg">
<path d="M13.9636 20.6363L20.8036 24.8426C20.9811 24.9503 21.1865 25.003 21.3939 24.994C21.6013 24.985 21.8014 24.9148 21.9689 24.7921C22.1364 24.6694 22.2638 24.4999 22.3349 24.3048C22.406 24.1098 22.4178 23.898 22.3686 23.6963L20.5086 15.8476L26.5961 10.5976C26.7513 10.4613 26.8632 10.2825 26.918 10.0834C26.9728 9.88423 26.968 9.67339 26.9043 9.4769C26.8407 9.28041 26.7208 9.10687 26.5597 8.97771C26.3985 8.84854 26.203 8.76941 25.9973 8.75007L18.0086 8.10007L14.9311 0.650071C14.8526 0.457869 14.7187 0.293391 14.5464 0.177612C14.3741 0.0618325 14.1712 0 13.9636 0C13.756 0 13.5531 0.0618325 13.3808 0.177612C13.2085 0.293391 13.0746 0.457869 12.9961 0.650071L9.9186 8.10007L1.92985 8.75007C1.7228 8.76825 1.52571 8.84704 1.36318 8.97659C1.20066 9.10614 1.07991 9.28071 1.01603 9.47849C0.952152 9.67626 0.947967 9.88848 1.004 10.0886C1.06004 10.2888 1.17381 10.468 1.3311 10.6038L7.4186 15.8538L5.5586 23.6963C5.50942 23.898 5.52115 24.1098 5.59229 24.3048C5.66343 24.4999 5.7908 24.6694 5.95829 24.7921C6.12578 24.9148 6.32588 24.985 6.53329 24.994C6.74071 25.003 6.94613 24.9503 7.1236 24.8426L13.9636 20.6363Z" fill="#F3971B"/>
</svg>
