<svg width="229" height="238" viewBox="0 0 229 238" fill="none" xmlns="http://www.w3.org/2000/svg">
<path d="M229 0.448242L198.83 237.551L149.251 186.051L155.864 133.504L155.099 131.797L98.056 189.869L45.6071 136.451C45.3173 135.521 46.125 135.88 46.5336 135.363L101.211 78.4478L101.634 76.239C101.258 75.6881 97.1437 76.18 96.26 76.2686C80.6712 77.8329 64.9541 81.3649 49.2656 82.5111L0 31.6854L229 0.448242Z" fill="#B3DBD3" fill-opacity="0.4"/>
<path d="M62.9559 207.873C49.331 224.172 23.732 221.068 13.8272 202.262C-0.406105 175.245 27.7505 145.376 54.0741 159.287C71.3997 168.444 75.674 192.659 62.9597 207.873H62.9559Z" fill="#B3DBD3" fill-opacity="0.4"/>
</svg>
