<svg width="1302" height="251" viewBox="0 0 1302 251" fill="none" xmlns="http://www.w3.org/2000/svg">
<path d="M8.85645 0.5V250.5H226.133L288.79 182.805C297.976 172.88 297.976 156.774 288.79 146.849L220.987 73.5938L153.334 0.5H8.85645Z" stroke="#A22877"/>
<path d="M280.801 183.145C290.165 173.028 290.165 156.625 280.801 146.509L212.999 73.2544L145.197 1.55283e-05L0.00112915 0L0.00119019 251L217.996 251L280.801 183.145Z" fill="#F5BBBC"/>
<path d="M343.856 0.5V250.5H561.133L623.79 182.805C632.976 172.88 632.976 156.774 623.79 146.849L555.987 73.5938L488.334 0.5H343.856Z" stroke="#A22877"/>
<path d="M615.801 183.145C625.165 173.028 625.165 156.625 615.801 146.509L547.999 73.2544L480.197 1.55283e-05L335.001 0L335.001 251L552.996 251L615.801 183.145Z" fill="#F5BBBC"/>
<path d="M678.856 0.5V250.5H896.133L958.79 182.805C967.976 172.88 967.976 156.774 958.79 146.849L890.987 73.5938L823.334 0.5H678.856Z" stroke="#A22877"/>
<path d="M950.801 183.145C960.165 173.028 960.165 156.625 950.801 146.509L882.999 73.2544L815.197 1.55283e-05L670.001 0L670.001 251L887.996 251L950.801 183.145Z" fill="#F5BBBC"/>
<path d="M1013.86 0.5V250.5H1231.13L1293.79 182.805C1302.98 172.88 1302.98 156.774 1293.79 146.849L1225.99 73.5938L1158.33 0.5H1013.86Z" stroke="#A22877"/>
<path d="M1285.8 183.145C1295.16 173.028 1295.16 156.625 1285.8 146.509L1218 73.2544L1150.2 1.55283e-05L1005 0L1005 251L1222.99 251L1285.8 183.145Z" fill="#F5BBBC"/>
<path d="M21.89 108V95.4H27.2C31.25 95.4 34.004 97.956 34.004 101.7C34.004 105.444 31.25 108 27.2 108H21.89ZM23.69 106.434H27.092C30.206 106.434 32.204 104.526 32.204 101.7C32.204 98.874 30.206 96.966 27.092 96.966H23.69V106.434ZM43.2591 98.46H44.9511L40.3251 108.954C39.4791 110.97 38.3811 111.6 36.9231 111.6C36.0051 111.6 35.0691 111.294 34.4751 110.718L35.2131 109.422C35.6811 109.872 36.2751 110.124 36.9231 110.124C37.7511 110.124 38.2731 109.746 38.7411 108.648L39.0471 107.982L34.8351 98.46H36.6351L39.9651 106.092L43.2591 98.46ZM51.6578 98.37C53.9798 98.37 55.6178 99.702 55.6178 102.51V108H53.8898V102.708C53.8898 100.836 52.9538 99.918 51.3158 99.918C49.4798 99.918 48.2918 101.016 48.2918 103.086V108H46.5638V98.46H48.2198V99.9C48.9218 98.928 50.1458 98.37 51.6578 98.37ZM62.2897 98.37C64.8997 98.37 66.3757 99.63 66.3757 102.24V108H64.7377V106.74C64.1617 107.604 63.0997 108.108 61.6057 108.108C59.4457 108.108 58.0777 106.956 58.0777 105.3C58.0777 103.77 59.0677 102.51 61.9117 102.51H64.6477V102.168C64.6477 100.71 63.8017 99.864 62.0917 99.864C60.9577 99.864 59.8057 100.26 59.0677 100.89L58.3477 99.594C59.3377 98.802 60.7597 98.37 62.2897 98.37ZM61.8937 106.776C63.1897 106.776 64.2157 106.182 64.6477 105.084V103.752H61.9837C60.2737 103.752 59.7877 104.418 59.7877 105.228C59.7877 106.182 60.5797 106.776 61.8937 106.776ZM81.5075 98.37C83.8295 98.37 85.4135 99.702 85.4135 102.51V108H83.6855V102.708C83.6855 100.836 82.7855 99.918 81.2195 99.918C79.4915 99.918 78.3575 101.016 78.3575 103.086V108H76.6295V102.708C76.6295 100.836 75.7295 99.918 74.1635 99.918C72.4355 99.918 71.3015 101.016 71.3015 103.086V108H69.5735V98.46H71.2295V99.882C71.9135 98.91 73.0835 98.37 74.5235 98.37C75.9815 98.37 77.2055 98.946 77.8355 100.134C78.5555 99.054 79.8875 98.37 81.5075 98.37ZM89.4571 96.624C88.7911 96.624 88.2871 96.138 88.2871 95.508C88.2871 94.878 88.7911 94.374 89.4571 94.374C90.1231 94.374 90.6271 94.86 90.6271 95.472C90.6271 96.12 90.1411 96.624 89.4571 96.624ZM88.5931 108V98.46H90.3211V108H88.5931ZM97.7784 108.108C94.8444 108.108 92.7384 106.074 92.7384 103.23C92.7384 100.386 94.8444 98.37 97.7784 98.37C99.4884 98.37 100.91 99.072 101.666 100.404L100.352 101.25C99.7404 100.314 98.8044 99.882 97.7604 99.882C95.8884 99.882 94.4844 101.196 94.4844 103.23C94.4844 105.3 95.8884 106.596 97.7604 106.596C98.8044 106.596 99.7404 106.164 100.352 105.228L101.666 106.056C100.91 107.388 99.4884 108.108 97.7784 108.108ZM21.638 132V118.644H23.366V132H21.638ZM35.2873 127.284C35.2873 127.428 35.2693 127.644 35.2513 127.806H27.5113C27.7273 129.48 29.0773 130.596 30.9673 130.596C32.0833 130.596 33.0193 130.218 33.7213 129.444L34.6753 130.56C33.8113 131.568 32.4973 132.108 30.9133 132.108C27.8353 132.108 25.7833 130.074 25.7833 127.23C25.7833 124.404 27.8173 122.37 30.5713 122.37C33.3253 122.37 35.2873 124.35 35.2873 127.284ZM30.5713 123.828C28.9153 123.828 27.6913 124.944 27.5113 126.564H33.6313C33.4513 124.962 32.2453 123.828 30.5713 123.828ZM40.8972 122.37C43.5072 122.37 44.9832 123.63 44.9832 126.24V132H43.3452V130.74C42.7692 131.604 41.7072 132.108 40.2132 132.108C38.0532 132.108 36.6852 130.956 36.6852 129.3C36.6852 127.77 37.6752 126.51 40.5192 126.51H43.2552V126.168C43.2552 124.71 42.4092 123.864 40.6992 123.864C39.5652 123.864 38.4132 124.26 37.6752 124.89L36.9552 123.594C37.9452 122.802 39.3672 122.37 40.8972 122.37ZM40.5012 130.776C41.7972 130.776 42.8232 130.182 43.2552 129.084V127.752H40.5912C38.8812 127.752 38.3952 128.418 38.3952 129.228C38.3952 130.182 39.1872 130.776 40.5012 130.776ZM55.5057 118.644H57.2337V132H55.5777V130.488C54.8037 131.568 53.5797 132.108 52.1757 132.108C49.3857 132.108 47.3517 130.146 47.3517 127.23C47.3517 124.314 49.3857 122.37 52.1757 122.37C53.5257 122.37 54.7137 122.874 55.5057 123.9V118.644ZM52.3197 130.596C54.1377 130.596 55.5237 129.264 55.5237 127.23C55.5237 125.196 54.1377 123.882 52.3197 123.882C50.4837 123.882 49.0977 125.196 49.0977 127.23C49.0977 129.264 50.4837 130.596 52.3197 130.596ZM69.1252 127.284C69.1252 127.428 69.1072 127.644 69.0892 127.806H61.3492C61.5652 129.48 62.9152 130.596 64.8052 130.596C65.9212 130.596 66.8572 130.218 67.5592 129.444L68.5132 130.56C67.6492 131.568 66.3352 132.108 64.7512 132.108C61.6732 132.108 59.6212 130.074 59.6212 127.23C59.6212 124.404 61.6552 122.37 64.4092 122.37C67.1632 122.37 69.1252 124.35 69.1252 127.284ZM64.4092 123.828C62.7532 123.828 61.5292 124.944 61.3492 126.564H67.4692C67.2892 124.962 66.0832 123.828 64.4092 123.828ZM73.1807 124.062C73.7927 122.946 74.9807 122.37 76.6547 122.37V124.044C76.5107 124.026 76.3847 124.026 76.2587 124.026C74.4047 124.026 73.2527 125.16 73.2527 127.248V132H71.5247V122.46H73.1807V124.062ZM81.5908 132.108C80.0068 132.108 78.4408 131.622 77.6488 130.992L78.3688 129.624C79.1788 130.2 80.4748 130.614 81.7168 130.614C83.3188 130.614 83.9848 130.128 83.9848 129.318C83.9848 127.176 77.9548 129.03 77.9548 125.232C77.9548 123.522 79.4848 122.37 81.9328 122.37C83.1748 122.37 84.5788 122.694 85.4068 123.234L84.6688 124.602C83.8048 124.044 82.8508 123.846 81.9148 123.846C80.4028 123.846 79.6648 124.404 79.6648 125.16C79.6648 127.41 85.7128 125.574 85.7128 129.282C85.7128 131.01 84.1288 132.108 81.5908 132.108ZM96.1984 119.958C95.1724 119.958 94.6504 120.534 94.6504 121.632V122.46H97.4224V123.882H94.6864V132H92.9584V123.882H91.3384V122.46H92.9584V121.614C92.9584 119.76 94.0744 118.536 96.1084 118.536C96.8464 118.536 97.5664 118.716 98.0524 119.094L97.5304 120.408C97.1704 120.138 96.7024 119.958 96.1984 119.958ZM102.997 132.108C100.135 132.108 98.0294 130.074 98.0294 127.23C98.0294 124.386 100.135 122.37 102.997 122.37C105.859 122.37 107.947 124.386 107.947 127.23C107.947 130.074 105.859 132.108 102.997 132.108ZM102.997 130.596C104.833 130.596 106.201 129.264 106.201 127.23C106.201 125.196 104.833 123.882 102.997 123.882C101.161 123.882 99.7754 125.196 99.7754 127.23C99.7754 129.264 101.161 130.596 102.997 130.596ZM111.993 124.062C112.605 122.946 113.793 122.37 115.467 122.37V124.044C115.323 124.026 115.197 124.026 115.071 124.026C113.217 124.026 112.065 125.16 112.065 127.248V132H110.337V122.46H111.993V124.062ZM127.378 130.2L127.918 131.442C127.396 131.892 126.604 132.108 125.83 132.108C123.904 132.108 122.806 131.046 122.806 129.12V123.882H121.186V122.46H122.806V120.372H124.534V122.46H127.27V123.882H124.534V129.048C124.534 130.074 125.074 130.65 126.028 130.65C126.532 130.65 127.018 130.488 127.378 130.2ZM135.101 122.37C137.423 122.37 139.061 123.702 139.061 126.51V132H137.333V126.708C137.333 124.836 136.397 123.918 134.759 123.918C132.923 123.918 131.735 125.016 131.735 127.086V132H130.007V118.644H131.735V123.81C132.455 122.892 133.643 122.37 135.101 122.37ZM150.934 127.284C150.934 127.428 150.916 127.644 150.898 127.806H143.158C143.374 129.48 144.724 130.596 146.614 130.596C147.73 130.596 148.666 130.218 149.368 129.444L150.322 130.56C149.458 131.568 148.144 132.108 146.56 132.108C143.482 132.108 141.43 130.074 141.43 127.23C141.43 124.404 143.464 122.37 146.218 122.37C148.972 122.37 150.934 124.35 150.934 127.284ZM146.218 123.828C144.562 123.828 143.338 124.944 143.158 126.564H149.278C149.098 124.962 147.892 123.828 146.218 123.828ZM22.502 144.624C21.836 144.624 21.332 144.138 21.332 143.508C21.332 142.878 21.836 142.374 22.502 142.374C23.168 142.374 23.672 142.86 23.672 143.472C23.672 144.12 23.186 144.624 22.502 144.624ZM21.638 156V146.46H23.366V156H21.638ZM31.7593 146.37C34.0813 146.37 35.7193 147.702 35.7193 150.51V156H33.9913V150.708C33.9913 148.836 33.0553 147.918 31.4173 147.918C29.5813 147.918 28.3933 149.016 28.3933 151.086V156H26.6653V146.46H28.3213V147.9C29.0233 146.928 30.2473 146.37 31.7593 146.37ZM46.242 142.644H47.97V156H46.314V154.488C45.54 155.568 44.316 156.108 42.912 156.108C40.122 156.108 38.088 154.146 38.088 151.23C38.088 148.314 40.122 146.37 42.912 146.37C44.262 146.37 45.45 146.874 46.242 147.9V142.644ZM43.056 154.596C44.874 154.596 46.26 153.264 46.26 151.23C46.26 149.196 44.874 147.882 43.056 147.882C41.22 147.882 39.834 149.196 39.834 151.23C39.834 153.264 41.22 154.596 43.056 154.596ZM58.4036 146.46H60.1316V156H58.4936V154.56C57.7916 155.55 56.6036 156.108 55.2536 156.108C52.7876 156.108 51.1496 154.758 51.1496 151.95V146.46H52.8776V151.752C52.8776 153.624 53.8136 154.56 55.4516 154.56C57.2516 154.56 58.4036 153.444 58.4036 151.392V146.46ZM66.1572 156.108C64.5732 156.108 63.0072 155.622 62.2152 154.992L62.9352 153.624C63.7452 154.2 65.0412 154.614 66.2832 154.614C67.8852 154.614 68.5512 154.128 68.5512 153.318C68.5512 151.176 62.5212 153.03 62.5212 149.232C62.5212 147.522 64.0512 146.37 66.4992 146.37C67.7412 146.37 69.1452 146.694 69.9732 147.234L69.2352 148.602C68.3712 148.044 67.4172 147.846 66.4812 147.846C64.9692 147.846 64.2312 148.404 64.2312 149.16C64.2312 151.41 70.2792 149.574 70.2792 153.282C70.2792 155.01 68.6952 156.108 66.1572 156.108ZM77.2628 154.2L77.8028 155.442C77.2808 155.892 76.4888 156.108 75.7148 156.108C73.7888 156.108 72.6908 155.046 72.6908 153.12V147.882H71.0708V146.46H72.6908V144.372H74.4188V146.46H77.1548V147.882H74.4188V153.048C74.4188 154.074 74.9588 154.65 75.9128 154.65C76.4168 154.65 76.9028 154.488 77.2628 154.2ZM81.5479 148.062C82.1599 146.946 83.3479 146.37 85.0219 146.37V148.044C84.8779 148.026 84.7519 148.026 84.6259 148.026C82.7719 148.026 81.6199 149.16 81.6199 151.248V156H79.8919V146.46H81.5479V148.062ZM94.2884 146.46H95.9804L91.3544 156.954C90.5084 158.97 89.4104 159.6 87.9524 159.6C87.0344 159.6 86.0984 159.294 85.5044 158.718L86.2424 157.422C86.7104 157.872 87.3044 158.124 87.9524 158.124C88.7804 158.124 89.3024 157.746 89.7704 156.648L90.0764 155.982L85.8644 146.46H87.6644L90.9944 154.092L94.2884 146.46Z" fill="black"/>
<path d="M366.304 108L364.918 104.85H358.222L356.836 108H354.982L360.688 95.4H362.47L368.194 108H366.304ZM358.852 103.41H364.288L361.57 97.236L358.852 103.41ZM373.892 108.108C370.958 108.108 368.852 106.074 368.852 103.23C368.852 100.386 370.958 98.37 373.892 98.37C375.602 98.37 377.024 99.072 377.78 100.404L376.466 101.25C375.854 100.314 374.918 99.882 373.874 99.882C372.002 99.882 370.598 101.196 370.598 103.23C370.598 105.3 372.002 106.596 373.874 106.596C374.918 106.596 375.854 106.164 376.466 105.228L377.78 106.056C377.024 107.388 375.602 108.108 373.892 108.108ZM383.491 98.37C386.101 98.37 387.577 99.63 387.577 102.24V108H385.939V106.74C385.363 107.604 384.301 108.108 382.807 108.108C380.647 108.108 379.279 106.956 379.279 105.3C379.279 103.77 380.269 102.51 383.113 102.51H385.849V102.168C385.849 100.71 385.003 99.864 383.293 99.864C382.159 99.864 381.007 100.26 380.269 100.89L379.549 99.594C380.539 98.802 381.961 98.37 383.491 98.37ZM383.095 106.776C384.391 106.776 385.417 106.182 385.849 105.084V103.752H383.185C381.475 103.752 380.989 104.418 380.989 105.228C380.989 106.182 381.781 106.776 383.095 106.776ZM398.099 94.644H399.827V108H398.171V106.488C397.397 107.568 396.173 108.108 394.769 108.108C391.979 108.108 389.945 106.146 389.945 103.23C389.945 100.314 391.979 98.37 394.769 98.37C396.119 98.37 397.307 98.874 398.099 99.9V94.644ZM394.913 106.596C396.731 106.596 398.117 105.264 398.117 103.23C398.117 101.196 396.731 99.882 394.913 99.882C393.077 99.882 391.691 101.196 391.691 103.23C391.691 105.264 393.077 106.596 394.913 106.596ZM411.719 103.284C411.719 103.428 411.701 103.644 411.683 103.806H403.943C404.159 105.48 405.509 106.596 407.399 106.596C408.515 106.596 409.451 106.218 410.153 105.444L411.107 106.56C410.243 107.568 408.929 108.108 407.345 108.108C404.267 108.108 402.215 106.074 402.215 103.23C402.215 100.404 404.249 98.37 407.003 98.37C409.757 98.37 411.719 100.35 411.719 103.284ZM407.003 99.828C405.347 99.828 404.123 100.944 403.943 102.564H410.063C409.883 100.962 408.677 99.828 407.003 99.828ZM426.052 98.37C428.374 98.37 429.958 99.702 429.958 102.51V108H428.23V102.708C428.23 100.836 427.33 99.918 425.764 99.918C424.036 99.918 422.902 101.016 422.902 103.086V108H421.174V102.708C421.174 100.836 420.274 99.918 418.708 99.918C416.98 99.918 415.846 101.016 415.846 103.086V108H414.118V98.46H415.774V99.882C416.458 98.91 417.628 98.37 419.068 98.37C420.526 98.37 421.75 98.946 422.38 100.134C423.1 99.054 424.432 98.37 426.052 98.37ZM434.002 96.624C433.336 96.624 432.832 96.138 432.832 95.508C432.832 94.878 433.336 94.374 434.002 94.374C434.668 94.374 435.172 94.86 435.172 95.472C435.172 96.12 434.686 96.624 434.002 96.624ZM433.138 108V98.46H434.866V108H433.138ZM442.323 108.108C439.389 108.108 437.283 106.074 437.283 103.23C437.283 100.386 439.389 98.37 442.323 98.37C444.033 98.37 445.455 99.072 446.211 100.404L444.897 101.25C444.285 100.314 443.349 99.882 442.305 99.882C440.433 99.882 439.029 101.196 439.029 103.23C439.029 105.3 440.433 106.596 442.305 106.596C443.349 106.596 444.285 106.164 444.897 105.228L446.211 106.056C445.455 107.388 444.033 108.108 442.323 108.108ZM449.313 96.624C448.647 96.624 448.143 96.138 448.143 95.508C448.143 94.878 448.647 94.374 449.313 94.374C449.979 94.374 450.483 94.86 450.483 95.472C450.483 96.12 449.997 96.624 449.313 96.624ZM448.449 108V98.46H450.177V108H448.449ZM456.95 98.37C459.56 98.37 461.036 99.63 461.036 102.24V108H459.398V106.74C458.822 107.604 457.76 108.108 456.266 108.108C454.106 108.108 452.738 106.956 452.738 105.3C452.738 103.77 453.728 102.51 456.572 102.51H459.308V102.168C459.308 100.71 458.462 99.864 456.752 99.864C455.618 99.864 454.466 100.26 453.728 100.89L453.008 99.594C453.998 98.802 455.42 98.37 456.95 98.37ZM456.554 106.776C457.85 106.776 458.876 106.182 459.308 105.084V103.752H456.644C454.934 103.752 454.448 104.418 454.448 105.228C454.448 106.182 455.24 106.776 456.554 106.776ZM469.328 98.37C471.65 98.37 473.288 99.702 473.288 102.51V108H471.56V102.708C471.56 100.836 470.624 99.918 468.986 99.918C467.15 99.918 465.962 101.016 465.962 103.086V108H464.234V98.46H465.89V99.9C466.592 98.928 467.816 98.37 469.328 98.37ZM479.222 108.108C477.638 108.108 476.072 107.622 475.28 106.992L476 105.624C476.81 106.2 478.106 106.614 479.348 106.614C480.95 106.614 481.616 106.128 481.616 105.318C481.616 103.176 475.586 105.03 475.586 101.232C475.586 99.522 477.116 98.37 479.564 98.37C480.806 98.37 482.21 98.694 483.038 99.234L482.3 100.602C481.436 100.044 480.482 99.846 479.546 99.846C478.034 99.846 477.296 100.404 477.296 101.16C477.296 103.41 483.344 101.574 483.344 105.282C483.344 107.01 481.76 108.108 479.222 108.108ZM360.112 122.37C362.722 122.37 364.198 123.63 364.198 126.24V132H362.56V130.74C361.984 131.604 360.922 132.108 359.428 132.108C357.268 132.108 355.9 130.956 355.9 129.3C355.9 127.77 356.89 126.51 359.734 126.51H362.47V126.168C362.47 124.71 361.624 123.864 359.914 123.864C358.78 123.864 357.628 124.26 356.89 124.89L356.17 123.594C357.16 122.802 358.582 122.37 360.112 122.37ZM359.716 130.776C361.012 130.776 362.038 130.182 362.47 129.084V127.752H359.806C358.096 127.752 357.61 128.418 357.61 129.228C357.61 130.182 358.402 130.776 359.716 130.776ZM372.49 122.37C374.812 122.37 376.45 123.702 376.45 126.51V132H374.722V126.708C374.722 124.836 373.786 123.918 372.148 123.918C370.312 123.918 369.124 125.016 369.124 127.086V132H367.396V122.46H369.052V123.9C369.754 122.928 370.978 122.37 372.49 122.37ZM386.973 118.644H388.701V132H387.045V130.488C386.271 131.568 385.047 132.108 383.643 132.108C380.853 132.108 378.819 130.146 378.819 127.23C378.819 124.314 380.853 122.37 383.643 122.37C384.993 122.37 386.181 122.874 386.973 123.9V118.644ZM383.787 130.596C385.605 130.596 386.991 129.264 386.991 127.23C386.991 125.196 385.605 123.882 383.787 123.882C381.951 123.882 380.565 125.196 380.565 127.23C380.565 129.264 381.951 130.596 383.787 130.596ZM398.46 124.062C399.072 122.946 400.26 122.37 401.934 122.37V124.044C401.79 124.026 401.664 124.026 401.538 124.026C399.684 124.026 398.532 125.16 398.532 127.248V132H396.804V122.46H398.46V124.062ZM412.598 127.284C412.598 127.428 412.58 127.644 412.562 127.806H404.822C405.038 129.48 406.388 130.596 408.278 130.596C409.394 130.596 410.33 130.218 411.032 129.444L411.986 130.56C411.122 131.568 409.808 132.108 408.224 132.108C405.146 132.108 403.094 130.074 403.094 127.23C403.094 124.404 405.128 122.37 407.882 122.37C410.636 122.37 412.598 124.35 412.598 127.284ZM407.882 123.828C406.226 123.828 405.002 124.944 404.822 126.564H410.942C410.762 124.962 409.556 123.828 407.882 123.828ZM417.733 132.108C416.149 132.108 414.583 131.622 413.791 130.992L414.511 129.624C415.321 130.2 416.617 130.614 417.859 130.614C419.461 130.614 420.127 130.128 420.127 129.318C420.127 127.176 414.097 129.03 414.097 125.232C414.097 123.522 415.627 122.37 418.075 122.37C419.317 122.37 420.721 122.694 421.549 123.234L420.811 124.602C419.947 124.044 418.993 123.846 418.057 123.846C416.545 123.846 415.807 124.404 415.807 125.16C415.807 127.41 421.855 125.574 421.855 129.282C421.855 131.01 420.271 132.108 417.733 132.108ZM432.637 127.284C432.637 127.428 432.619 127.644 432.601 127.806H424.861C425.077 129.48 426.427 130.596 428.317 130.596C429.433 130.596 430.369 130.218 431.071 129.444L432.025 130.56C431.161 131.568 429.847 132.108 428.263 132.108C425.185 132.108 423.133 130.074 423.133 127.23C423.133 124.404 425.167 122.37 427.921 122.37C430.675 122.37 432.637 124.35 432.637 127.284ZM427.921 123.828C426.265 123.828 425.041 124.944 424.861 126.564H430.981C430.801 124.962 429.595 123.828 427.921 123.828ZM438.247 122.37C440.857 122.37 442.333 123.63 442.333 126.24V132H440.695V130.74C440.119 131.604 439.057 132.108 437.563 132.108C435.403 132.108 434.035 130.956 434.035 129.3C434.035 127.77 435.025 126.51 437.869 126.51H440.605V126.168C440.605 124.71 439.759 123.864 438.049 123.864C436.915 123.864 435.763 124.26 435.025 124.89L434.305 123.594C435.295 122.802 436.717 122.37 438.247 122.37ZM437.851 130.776C439.147 130.776 440.173 130.182 440.605 129.084V127.752H437.941C436.231 127.752 435.745 128.418 435.745 129.228C435.745 130.182 436.537 130.776 437.851 130.776ZM447.187 124.062C447.799 122.946 448.987 122.37 450.661 122.37V124.044C450.517 124.026 450.391 124.026 450.265 124.026C448.411 124.026 447.259 125.16 447.259 127.248V132H445.531V122.46H447.187V124.062ZM456.86 132.108C453.926 132.108 451.82 130.074 451.82 127.23C451.82 124.386 453.926 122.37 456.86 122.37C458.57 122.37 459.992 123.072 460.748 124.404L459.434 125.25C458.822 124.314 457.886 123.882 456.842 123.882C454.97 123.882 453.566 125.196 453.566 127.23C453.566 129.3 454.97 130.596 456.842 130.596C457.886 130.596 458.822 130.164 459.434 129.228L460.748 130.056C459.992 131.388 458.57 132.108 456.86 132.108ZM467.957 122.37C470.279 122.37 471.917 123.702 471.917 126.51V132H470.189V126.708C470.189 124.836 469.253 123.918 467.615 123.918C465.779 123.918 464.591 125.016 464.591 127.086V132H462.863V118.644H464.591V123.81C465.311 122.892 466.499 122.37 467.957 122.37ZM483.789 127.284C483.789 127.428 483.771 127.644 483.753 127.806H476.013C476.229 129.48 477.579 130.596 479.469 130.596C480.585 130.596 481.521 130.218 482.223 129.444L483.177 130.56C482.313 131.568 480.999 132.108 479.415 132.108C476.337 132.108 474.285 130.074 474.285 127.23C474.285 124.404 476.319 122.37 479.073 122.37C481.827 122.37 483.789 124.35 483.789 127.284ZM479.073 123.828C477.417 123.828 476.193 124.944 476.013 126.564H482.133C481.953 124.962 480.747 123.828 479.073 123.828ZM487.845 124.062C488.457 122.946 489.645 122.37 491.319 122.37V124.044C491.175 124.026 491.049 124.026 490.923 124.026C489.069 124.026 487.917 125.16 487.917 127.248V132H486.189V122.46H487.845V124.062ZM496.255 132.108C494.671 132.108 493.105 131.622 492.313 130.992L493.033 129.624C493.843 130.2 495.139 130.614 496.381 130.614C497.983 130.614 498.649 130.128 498.649 129.318C498.649 127.176 492.619 129.03 492.619 125.232C492.619 123.522 494.149 122.37 496.597 122.37C497.839 122.37 499.243 122.694 500.071 123.234L499.333 124.602C498.469 124.044 497.515 123.846 496.579 123.846C495.067 123.846 494.329 124.404 494.329 125.16C494.329 127.41 500.377 125.574 500.377 129.282C500.377 131.01 498.793 132.108 496.255 132.108ZM369.526 146.46H371.074L367.51 156H365.854L363.1 148.764L360.31 156H358.654L355.108 146.46H356.746L359.518 154.056L362.398 146.46H363.856L366.682 154.092L369.526 146.46ZM373.691 144.624C373.025 144.624 372.521 144.138 372.521 143.508C372.521 142.878 373.025 142.374 373.691 142.374C374.357 142.374 374.861 142.86 374.861 143.472C374.861 144.12 374.375 144.624 373.691 144.624ZM372.827 156V146.46H374.555V156H372.827ZM382.679 154.2L383.219 155.442C382.697 155.892 381.905 156.108 381.131 156.108C379.205 156.108 378.107 155.046 378.107 153.12V147.882H376.487V146.46H378.107V144.372H379.835V146.46H382.571V147.882H379.835V153.048C379.835 154.074 380.375 154.65 381.329 154.65C381.833 154.65 382.319 154.488 382.679 154.2ZM390.402 146.37C392.724 146.37 394.362 147.702 394.362 150.51V156H392.634V150.708C392.634 148.836 391.698 147.918 390.06 147.918C388.224 147.918 387.036 149.016 387.036 151.086V156H385.308V142.644H387.036V147.81C387.756 146.892 388.944 146.37 390.402 146.37ZM404.05 148.062C404.662 146.946 405.85 146.37 407.524 146.37V148.044C407.38 148.026 407.254 148.026 407.128 148.026C405.274 148.026 404.122 149.16 404.122 151.248V156H402.394V146.46H404.05V148.062ZM418.188 151.284C418.188 151.428 418.17 151.644 418.152 151.806H410.412C410.628 153.48 411.978 154.596 413.868 154.596C414.984 154.596 415.92 154.218 416.622 153.444L417.576 154.56C416.712 155.568 415.398 156.108 413.814 156.108C410.736 156.108 408.684 154.074 408.684 151.23C408.684 148.404 410.718 146.37 413.472 146.37C416.226 146.37 418.188 148.35 418.188 151.284ZM413.472 147.828C411.816 147.828 410.592 148.944 410.412 150.564H416.532C416.352 148.962 415.146 147.828 413.472 147.828ZM420.587 156V142.644H422.315V156H420.587ZM434.237 151.284C434.237 151.428 434.219 151.644 434.201 151.806H426.461C426.677 153.48 428.027 154.596 429.917 154.596C431.033 154.596 431.969 154.218 432.671 153.444L433.625 154.56C432.761 155.568 431.447 156.108 429.863 156.108C426.785 156.108 424.733 154.074 424.733 151.23C424.733 148.404 426.767 146.37 429.521 146.37C432.275 146.37 434.237 148.35 434.237 151.284ZM429.521 147.828C427.865 147.828 426.641 148.944 426.461 150.564H432.581C432.401 148.962 431.195 147.828 429.521 147.828ZM443.21 146.46H444.902L440.726 156H438.962L434.786 146.46H436.586L439.862 154.11L443.21 146.46ZM449.69 146.37C452.3 146.37 453.776 147.63 453.776 150.24V156H452.138V154.74C451.562 155.604 450.5 156.108 449.006 156.108C446.846 156.108 445.478 154.956 445.478 153.3C445.478 151.77 446.468 150.51 449.312 150.51H452.048V150.168C452.048 148.71 451.202 147.864 449.492 147.864C448.358 147.864 447.206 148.26 446.468 148.89L445.748 147.594C446.738 146.802 448.16 146.37 449.69 146.37ZM449.294 154.776C450.59 154.776 451.616 154.182 452.048 153.084V151.752H449.384C447.674 151.752 447.188 152.418 447.188 153.228C447.188 154.182 447.98 154.776 449.294 154.776ZM462.068 146.37C464.39 146.37 466.028 147.702 466.028 150.51V156H464.3V150.708C464.3 148.836 463.364 147.918 461.726 147.918C459.89 147.918 458.702 149.016 458.702 151.086V156H456.974V146.46H458.63V147.9C459.332 146.928 460.556 146.37 462.068 146.37ZM474.05 154.2L474.59 155.442C474.068 155.892 473.276 156.108 472.502 156.108C470.576 156.108 469.478 155.046 469.478 153.12V147.882H467.858V146.46H469.478V144.372H471.206V146.46H473.942V147.882H471.206V153.048C471.206 154.074 471.746 154.65 472.7 154.65C473.204 154.65 473.69 154.488 474.05 154.2ZM363.928 180L360.346 175.554L358.366 177.39V180H356.638V166.644H358.366V175.212L363.568 170.46H365.656L361.642 174.402L366.052 180H363.928ZM372.701 170.37C375.023 170.37 376.661 171.702 376.661 174.51V180H374.933V174.708C374.933 172.836 373.997 171.918 372.359 171.918C370.523 171.918 369.335 173.016 369.335 175.086V180H367.607V170.46H369.263V171.9C369.965 170.928 371.189 170.37 372.701 170.37ZM383.997 180.108C381.135 180.108 379.029 178.074 379.029 175.23C379.029 172.386 381.135 170.37 383.997 170.37C386.859 170.37 388.947 172.386 388.947 175.23C388.947 178.074 386.859 180.108 383.997 180.108ZM383.997 178.596C385.833 178.596 387.201 177.264 387.201 175.23C387.201 173.196 385.833 171.882 383.997 171.882C382.161 171.882 380.775 173.196 380.775 175.23C380.775 177.264 382.161 178.596 383.997 178.596ZM403.962 170.46H405.51L401.946 180H400.29L397.536 172.764L394.746 180H393.09L389.544 170.46H391.182L393.954 178.056L396.834 170.46H398.292L401.118 178.092L403.962 170.46ZM407.263 180V166.644H408.991V180H407.263ZM420.912 175.284C420.912 175.428 420.894 175.644 420.876 175.806H413.136C413.352 177.48 414.702 178.596 416.592 178.596C417.708 178.596 418.644 178.218 419.346 177.444L420.3 178.56C419.436 179.568 418.122 180.108 416.538 180.108C413.46 180.108 411.408 178.074 411.408 175.23C411.408 172.404 413.442 170.37 416.196 170.37C418.95 170.37 420.912 172.35 420.912 175.284ZM416.196 171.828C414.54 171.828 413.316 172.944 413.136 174.564H419.256C419.076 172.962 417.87 171.828 416.196 171.828ZM430.584 166.644H432.312V180H430.656V178.488C429.882 179.568 428.658 180.108 427.254 180.108C424.464 180.108 422.43 178.146 422.43 175.23C422.43 172.314 424.464 170.37 427.254 170.37C428.604 170.37 429.792 170.874 430.584 171.9V166.644ZM427.398 178.596C429.216 178.596 430.602 177.264 430.602 175.23C430.602 173.196 429.216 171.882 427.398 171.882C425.562 171.882 424.176 173.196 424.176 175.23C424.176 177.264 425.562 178.596 427.398 178.596ZM443.069 170.46H444.707V178.704C444.707 182.07 442.997 183.6 439.757 183.6C438.011 183.6 436.247 183.114 435.203 182.178L436.031 180.846C436.913 181.602 438.299 182.088 439.703 182.088C441.953 182.088 442.979 181.044 442.979 178.884V178.128C442.151 179.118 440.909 179.604 439.541 179.604C436.787 179.604 434.699 177.732 434.699 174.978C434.699 172.224 436.787 170.37 439.541 170.37C440.963 170.37 442.259 170.892 443.069 171.936V170.46ZM439.739 178.092C441.647 178.092 443.015 176.814 443.015 174.978C443.015 173.124 441.647 171.882 439.739 171.882C437.813 171.882 436.445 173.124 436.445 174.978C436.445 176.814 437.813 178.092 439.739 178.092ZM456.631 175.284C456.631 175.428 456.613 175.644 456.595 175.806H448.855C449.071 177.48 450.421 178.596 452.311 178.596C453.427 178.596 454.363 178.218 455.065 177.444L456.019 178.56C455.155 179.568 453.841 180.108 452.257 180.108C449.179 180.108 447.127 178.074 447.127 175.23C447.127 172.404 449.161 170.37 451.915 170.37C454.669 170.37 456.631 172.35 456.631 175.284ZM451.915 171.828C450.259 171.828 449.035 172.944 448.855 174.564H454.975C454.795 172.962 453.589 171.828 451.915 171.828Z" fill="black"/>
<path d="M693.69 106.434H701.034V108H691.89V95.4H700.782V96.966H693.69V100.836H700.008V102.366H693.69V106.434ZM708.791 98.37C711.113 98.37 712.751 99.702 712.751 102.51V108H711.023V102.708C711.023 100.836 710.087 99.918 708.449 99.918C706.613 99.918 705.425 101.016 705.425 103.086V108H703.697V98.46H705.353V99.9C706.055 98.928 707.279 98.37 708.791 98.37ZM720.773 106.2L721.313 107.442C720.791 107.892 719.999 108.108 719.225 108.108C717.299 108.108 716.201 107.046 716.201 105.12V99.882H714.581V98.46H716.201V96.372H717.929V98.46H720.665V99.882H717.929V105.048C717.929 106.074 718.469 106.65 719.423 106.65C719.927 106.65 720.413 106.488 720.773 106.2ZM725.058 100.062C725.67 98.946 726.858 98.37 728.532 98.37V100.044C728.388 100.026 728.262 100.026 728.136 100.026C726.282 100.026 725.13 101.16 725.13 103.248V108H723.402V98.46H725.058V100.062ZM739.196 103.284C739.196 103.428 739.178 103.644 739.16 103.806H731.42C731.636 105.48 732.986 106.596 734.876 106.596C735.992 106.596 736.928 106.218 737.63 105.444L738.584 106.56C737.72 107.568 736.406 108.108 734.822 108.108C731.744 108.108 729.692 106.074 729.692 103.23C729.692 100.404 731.726 98.37 734.48 98.37C737.234 98.37 739.196 100.35 739.196 103.284ZM734.48 99.828C732.824 99.828 731.6 100.944 731.42 102.564H737.54C737.36 100.962 736.154 99.828 734.48 99.828ZM746.653 98.37C749.443 98.37 751.477 100.314 751.477 103.23C751.477 106.164 749.443 108.108 746.653 108.108C745.303 108.108 744.115 107.586 743.323 106.56V111.492H741.595V98.46H743.251V99.972C744.025 98.91 745.249 98.37 746.653 98.37ZM746.509 106.596C748.345 106.596 749.731 105.264 749.731 103.23C749.731 101.214 748.345 99.882 746.509 99.882C744.691 99.882 743.305 101.214 743.305 103.23C743.305 105.264 744.691 106.596 746.509 106.596ZM755.521 100.062C756.133 98.946 757.321 98.37 758.995 98.37V100.044C758.851 100.026 758.725 100.026 758.599 100.026C756.745 100.026 755.593 101.16 755.593 103.248V108H753.865V98.46H755.521V100.062ZM769.658 103.284C769.658 103.428 769.64 103.644 769.622 103.806H761.882C762.098 105.48 763.448 106.596 765.338 106.596C766.454 106.596 767.39 106.218 768.092 105.444L769.046 106.56C768.182 107.568 766.868 108.108 765.284 108.108C762.206 108.108 760.154 106.074 760.154 103.23C760.154 100.404 762.188 98.37 764.942 98.37C767.696 98.37 769.658 100.35 769.658 103.284ZM764.942 99.828C763.286 99.828 762.062 100.944 761.882 102.564H768.002C767.822 100.962 766.616 99.828 764.942 99.828ZM777.152 98.37C779.474 98.37 781.112 99.702 781.112 102.51V108H779.384V102.708C779.384 100.836 778.448 99.918 776.81 99.918C774.974 99.918 773.786 101.016 773.786 103.086V108H772.058V98.46H773.714V99.9C774.416 98.928 775.64 98.37 777.152 98.37ZM792.985 103.284C792.985 103.428 792.967 103.644 792.949 103.806H785.209C785.425 105.48 786.775 106.596 788.665 106.596C789.781 106.596 790.717 106.218 791.419 105.444L792.373 106.56C791.509 107.568 790.195 108.108 788.611 108.108C785.533 108.108 783.481 106.074 783.481 103.23C783.481 100.404 785.515 98.37 788.269 98.37C791.023 98.37 792.985 100.35 792.985 103.284ZM788.269 99.828C786.613 99.828 785.389 100.944 785.209 102.564H791.329C791.149 100.962 789.943 99.828 788.269 99.828ZM802.548 98.46H804.276V108H802.638V106.56C801.936 107.55 800.748 108.108 799.398 108.108C796.932 108.108 795.294 106.758 795.294 103.95V98.46H797.022V103.752C797.022 105.624 797.958 106.56 799.596 106.56C801.396 106.56 802.548 105.444 802.548 103.392V98.46ZM809.222 100.062C809.834 98.946 811.022 98.37 812.696 98.37V100.044C812.552 100.026 812.426 100.026 812.3 100.026C810.446 100.026 809.294 101.16 809.294 103.248V108H807.566V98.46H809.222V100.062ZM817.632 108.108C816.048 108.108 814.482 107.622 813.69 106.992L814.41 105.624C815.22 106.2 816.516 106.614 817.758 106.614C819.36 106.614 820.026 106.128 820.026 105.318C820.026 103.176 813.996 105.03 813.996 101.232C813.996 99.522 815.526 98.37 817.974 98.37C819.216 98.37 820.62 98.694 821.448 99.234L820.71 100.602C819.846 100.044 818.892 99.846 817.956 99.846C816.444 99.846 815.706 100.404 815.706 101.16C815.706 103.41 821.754 101.574 821.754 105.282C821.754 107.01 820.17 108.108 817.632 108.108ZM695.112 122.37C697.722 122.37 699.198 123.63 699.198 126.24V132H697.56V130.74C696.984 131.604 695.922 132.108 694.428 132.108C692.268 132.108 690.9 130.956 690.9 129.3C690.9 127.77 691.89 126.51 694.734 126.51H697.47V126.168C697.47 124.71 696.624 123.864 694.914 123.864C693.78 123.864 692.628 124.26 691.89 124.89L691.17 123.594C692.16 122.802 693.582 122.37 695.112 122.37ZM694.716 130.776C696.012 130.776 697.038 130.182 697.47 129.084V127.752H694.806C693.096 127.752 692.61 128.418 692.61 129.228C692.61 130.182 693.402 130.776 694.716 130.776ZM707.49 122.37C709.812 122.37 711.45 123.702 711.45 126.51V132H709.722V126.708C709.722 124.836 708.786 123.918 707.148 123.918C705.312 123.918 704.124 125.016 704.124 127.086V132H702.396V122.46H704.052V123.9C704.754 122.928 705.978 122.37 707.49 122.37ZM721.973 118.644H723.701V132H722.045V130.488C721.271 131.568 720.047 132.108 718.643 132.108C715.853 132.108 713.819 130.146 713.819 127.23C713.819 124.314 715.853 122.37 718.643 122.37C719.993 122.37 721.181 122.874 721.973 123.9V118.644ZM718.787 130.596C720.605 130.596 721.991 129.264 721.991 127.23C721.991 125.196 720.605 123.882 718.787 123.882C716.951 123.882 715.565 125.196 715.565 127.23C715.565 129.264 716.951 130.596 718.787 130.596ZM736.862 122.37C739.652 122.37 741.686 124.314 741.686 127.23C741.686 130.164 739.652 132.108 736.862 132.108C735.512 132.108 734.324 131.586 733.532 130.56V135.492H731.804V122.46H733.46V123.972C734.234 122.91 735.458 122.37 736.862 122.37ZM736.718 130.596C738.554 130.596 739.94 129.264 739.94 127.23C739.94 125.214 738.554 123.882 736.718 123.882C734.9 123.882 733.514 125.214 733.514 127.23C733.514 129.264 734.9 130.596 736.718 130.596ZM745.73 124.062C746.342 122.946 747.53 122.37 749.204 122.37V124.044C749.06 124.026 748.934 124.026 748.808 124.026C746.954 124.026 745.802 125.16 745.802 127.248V132H744.074V122.46H745.73V124.062ZM755.331 132.108C752.469 132.108 750.363 130.074 750.363 127.23C750.363 124.386 752.469 122.37 755.331 122.37C758.193 122.37 760.281 124.386 760.281 127.23C760.281 130.074 758.193 132.108 755.331 132.108ZM755.331 130.596C757.167 130.596 758.535 129.264 758.535 127.23C758.535 125.196 757.167 123.882 755.331 123.882C753.495 123.882 752.109 125.196 752.109 127.23C752.109 129.264 753.495 130.596 755.331 130.596ZM766.163 119.958C765.137 119.958 764.615 120.534 764.615 121.632V122.46H767.387V123.882H764.651V132H762.923V123.882H761.303V122.46H762.923V121.614C762.923 119.76 764.039 118.536 766.073 118.536C766.811 118.536 767.531 118.716 768.017 119.094L767.495 120.408C767.135 120.138 766.667 119.958 766.163 119.958ZM777.498 127.284C777.498 127.428 777.48 127.644 777.462 127.806H769.722C769.938 129.48 771.288 130.596 773.178 130.596C774.294 130.596 775.23 130.218 775.932 129.444L776.886 130.56C776.022 131.568 774.708 132.108 773.124 132.108C770.046 132.108 767.994 130.074 767.994 127.23C767.994 124.404 770.028 122.37 772.782 122.37C775.536 122.37 777.498 124.35 777.498 127.284ZM772.782 123.828C771.126 123.828 769.902 124.944 769.722 126.564H775.842C775.662 124.962 774.456 123.828 772.782 123.828ZM782.634 132.108C781.05 132.108 779.484 131.622 778.692 130.992L779.412 129.624C780.222 130.2 781.518 130.614 782.76 130.614C784.362 130.614 785.028 130.128 785.028 129.318C785.028 127.176 778.998 129.03 778.998 125.232C778.998 123.522 780.528 122.37 782.976 122.37C784.218 122.37 785.622 122.694 786.45 123.234L785.712 124.602C784.848 124.044 783.894 123.846 782.958 123.846C781.446 123.846 780.708 124.404 780.708 125.16C780.708 127.41 786.756 125.574 786.756 129.282C786.756 131.01 785.172 132.108 782.634 132.108ZM791.651 132.108C790.067 132.108 788.501 131.622 787.709 130.992L788.429 129.624C789.239 130.2 790.535 130.614 791.777 130.614C793.379 130.614 794.045 130.128 794.045 129.318C794.045 127.176 788.015 129.03 788.015 125.232C788.015 123.522 789.545 122.37 791.993 122.37C793.235 122.37 794.639 122.694 795.467 123.234L794.729 124.602C793.865 124.044 792.911 123.846 791.975 123.846C790.463 123.846 789.725 124.404 789.725 125.16C789.725 127.41 795.773 125.574 795.773 129.282C795.773 131.01 794.189 132.108 791.651 132.108ZM798.797 120.624C798.131 120.624 797.627 120.138 797.627 119.508C797.627 118.878 798.131 118.374 798.797 118.374C799.463 118.374 799.967 118.86 799.967 119.472C799.967 120.12 799.481 120.624 798.797 120.624ZM797.933 132V122.46H799.661V132H797.933ZM807.046 132.108C804.184 132.108 802.078 130.074 802.078 127.23C802.078 124.386 804.184 122.37 807.046 122.37C809.908 122.37 811.996 124.386 811.996 127.23C811.996 130.074 809.908 132.108 807.046 132.108ZM807.046 130.596C808.882 130.596 810.25 129.264 810.25 127.23C810.25 125.196 808.882 123.882 807.046 123.882C805.21 123.882 803.824 125.196 803.824 127.23C803.824 129.264 805.21 130.596 807.046 130.596ZM819.48 122.37C821.802 122.37 823.44 123.702 823.44 126.51V132H821.712V126.708C821.712 124.836 820.776 123.918 819.138 123.918C817.302 123.918 816.114 125.016 816.114 127.086V132H814.386V122.46H816.042V123.9C816.744 122.928 817.968 122.37 819.48 122.37ZM830.112 122.37C832.722 122.37 834.198 123.63 834.198 126.24V132H832.56V130.74C831.984 131.604 830.922 132.108 829.428 132.108C827.268 132.108 825.9 130.956 825.9 129.3C825.9 127.77 826.89 126.51 829.734 126.51H832.47V126.168C832.47 124.71 831.624 123.864 829.914 123.864C828.78 123.864 827.628 124.26 826.89 124.89L826.17 123.594C827.16 122.802 828.582 122.37 830.112 122.37ZM829.716 130.776C831.012 130.776 832.038 130.182 832.47 129.084V127.752H829.806C828.096 127.752 827.61 128.418 827.61 129.228C827.61 130.182 828.402 130.776 829.716 130.776ZM837.396 132V118.644H839.124V132H837.396ZM845.159 132.108C843.575 132.108 842.009 131.622 841.217 130.992L841.937 129.624C842.747 130.2 844.043 130.614 845.285 130.614C846.887 130.614 847.553 130.128 847.553 129.318C847.553 127.176 841.523 129.03 841.523 125.232C841.523 123.522 843.053 122.37 845.501 122.37C846.743 122.37 848.147 122.694 848.975 123.234L848.237 124.602C847.373 124.044 846.419 123.846 845.483 123.846C843.971 123.846 843.233 124.404 843.233 125.16C843.233 127.41 849.281 125.574 849.281 129.282C849.281 131.01 847.697 132.108 845.159 132.108ZM695.724 156.108C692.862 156.108 690.756 154.074 690.756 151.23C690.756 148.386 692.862 146.37 695.724 146.37C698.586 146.37 700.674 148.386 700.674 151.23C700.674 154.074 698.586 156.108 695.724 156.108ZM695.724 154.596C697.56 154.596 698.928 153.264 698.928 151.23C698.928 149.196 697.56 147.882 695.724 147.882C693.888 147.882 692.502 149.196 692.502 151.23C692.502 153.264 693.888 154.596 695.724 154.596ZM706.556 143.958C705.53 143.958 705.008 144.534 705.008 145.632V146.46H707.78V147.882H705.044V156H703.316V147.882H701.696V146.46H703.316V145.614C703.316 143.76 704.432 142.536 706.466 142.536C707.204 142.536 707.924 142.716 708.41 143.094L707.888 144.408C707.528 144.138 707.06 143.958 706.556 143.958ZM719.337 146.37C721.659 146.37 723.297 147.702 723.297 150.51V156H721.569V150.708C721.569 148.836 720.633 147.918 718.995 147.918C717.159 147.918 715.971 149.016 715.971 151.086V156H714.243V142.644H715.971V147.81C716.691 146.892 717.879 146.37 719.337 146.37ZM727.359 144.624C726.693 144.624 726.189 144.138 726.189 143.508C726.189 142.878 726.693 142.374 727.359 142.374C728.025 142.374 728.529 142.86 728.529 143.472C728.529 144.12 728.043 144.624 727.359 144.624ZM726.495 156V146.46H728.223V156H726.495ZM739.011 146.46H740.649V154.704C740.649 158.07 738.939 159.6 735.699 159.6C733.953 159.6 732.189 159.114 731.145 158.178L731.973 156.846C732.855 157.602 734.241 158.088 735.645 158.088C737.895 158.088 738.921 157.044 738.921 154.884V154.128C738.093 155.118 736.851 155.604 735.483 155.604C732.729 155.604 730.641 153.732 730.641 150.978C730.641 148.224 732.729 146.37 735.483 146.37C736.905 146.37 738.201 146.892 739.011 147.936V146.46ZM735.681 154.092C737.589 154.092 738.957 152.814 738.957 150.978C738.957 149.124 737.589 147.882 735.681 147.882C733.755 147.882 732.387 149.124 732.387 150.978C732.387 152.814 733.755 154.092 735.681 154.092ZM749.045 146.37C751.367 146.37 753.005 147.702 753.005 150.51V156H751.277V150.708C751.277 148.836 750.341 147.918 748.703 147.918C746.867 147.918 745.679 149.016 745.679 151.086V156H743.951V142.644H745.679V147.81C746.399 146.892 747.587 146.37 749.045 146.37ZM765.194 156.108C762.26 156.108 760.154 154.074 760.154 151.23C760.154 148.386 762.26 146.37 765.194 146.37C766.904 146.37 768.326 147.072 769.082 148.404L767.768 149.25C767.156 148.314 766.22 147.882 765.176 147.882C763.304 147.882 761.9 149.196 761.9 151.23C761.9 153.3 763.304 154.596 765.176 154.596C766.22 154.596 767.156 154.164 767.768 153.228L769.082 154.056C768.326 155.388 766.904 156.108 765.194 156.108ZM774.794 146.37C777.404 146.37 778.88 147.63 778.88 150.24V156H777.242V154.74C776.666 155.604 775.604 156.108 774.11 156.108C771.95 156.108 770.582 154.956 770.582 153.3C770.582 151.77 771.572 150.51 774.416 150.51H777.152V150.168C777.152 148.71 776.306 147.864 774.596 147.864C773.462 147.864 772.31 148.26 771.572 148.89L770.852 147.594C771.842 146.802 773.264 146.37 774.794 146.37ZM774.398 154.776C775.694 154.776 776.72 154.182 777.152 153.084V151.752H774.488C772.778 151.752 772.292 152.418 772.292 153.228C772.292 154.182 773.084 154.776 774.398 154.776ZM782.077 156V142.644H783.805V156H782.077ZM787.969 144.624C787.303 144.624 786.799 144.138 786.799 143.508C786.799 142.878 787.303 142.374 787.969 142.374C788.635 142.374 789.139 142.86 789.139 143.472C789.139 144.12 788.653 144.624 787.969 144.624ZM787.105 156V146.46H788.833V156H787.105ZM797.19 146.37C799.98 146.37 802.014 148.314 802.014 151.23C802.014 154.146 799.98 156.108 797.19 156.108C795.786 156.108 794.562 155.568 793.788 154.488V156H792.132V142.644H793.86V147.9C794.652 146.874 795.84 146.37 797.19 146.37ZM797.046 154.596C798.882 154.596 800.268 153.264 800.268 151.23C800.268 149.196 798.882 147.882 797.046 147.882C795.228 147.882 793.842 149.196 793.842 151.23C793.842 153.264 795.228 154.596 797.046 154.596ZM813.024 151.284C813.024 151.428 813.006 151.644 812.988 151.806H805.248C805.464 153.48 806.814 154.596 808.704 154.596C809.82 154.596 810.756 154.218 811.458 153.444L812.412 154.56C811.548 155.568 810.234 156.108 808.65 156.108C805.572 156.108 803.52 154.074 803.52 151.23C803.52 148.404 805.554 146.37 808.308 146.37C811.062 146.37 813.024 148.35 813.024 151.284ZM808.308 147.828C806.652 147.828 805.428 148.944 805.248 150.564H811.368C811.188 148.962 809.982 147.828 808.308 147.828ZM817.079 148.062C817.691 146.946 818.879 146.37 820.553 146.37V148.044C820.409 148.026 820.283 148.026 820.157 148.026C818.303 148.026 817.151 149.16 817.151 151.248V156H815.423V146.46H817.079V148.062Z" fill="black"/>
<path d="M1032.52 108.144C1031.56 108.144 1030.68 107.988 1029.86 107.676C1029.06 107.352 1028.35 106.902 1027.75 106.326C1027.17 105.738 1026.7 105.054 1026.37 104.274C1026.03 103.494 1025.86 102.636 1025.86 101.7C1025.86 100.764 1026.03 99.906 1026.37 99.126C1026.7 98.346 1027.17 97.668 1027.77 97.092C1028.37 96.504 1029.07 96.054 1029.88 95.742C1030.69 95.418 1031.58 95.256 1032.54 95.256C1033.51 95.256 1034.41 95.424 1035.22 95.76C1036.05 96.084 1036.75 96.57 1037.33 97.218L1036.16 98.352C1035.68 97.848 1035.14 97.476 1034.54 97.236C1033.94 96.984 1033.3 96.858 1032.61 96.858C1031.91 96.858 1031.25 96.978 1030.63 97.218C1030.03 97.458 1029.51 97.794 1029.07 98.226C1028.62 98.658 1028.28 99.174 1028.02 99.774C1027.78 100.362 1027.66 101.004 1027.66 101.7C1027.66 102.396 1027.78 103.044 1028.02 103.644C1028.28 104.232 1028.62 104.742 1029.07 105.174C1029.51 105.606 1030.03 105.942 1030.63 106.182C1031.25 106.422 1031.91 106.542 1032.61 106.542C1033.3 106.542 1033.94 106.422 1034.54 106.182C1035.14 105.93 1035.68 105.546 1036.16 105.03L1037.33 106.164C1036.75 106.812 1036.05 107.304 1035.22 107.64C1034.41 107.976 1033.51 108.144 1032.52 108.144ZM1039.65 108V98.46H1041.37V108H1039.65ZM1040.51 96.624C1040.17 96.624 1039.89 96.516 1039.66 96.3C1039.45 96.084 1039.34 95.82 1039.34 95.508C1039.34 95.184 1039.45 94.914 1039.66 94.698C1039.89 94.482 1040.17 94.374 1040.51 94.374C1040.85 94.374 1041.12 94.482 1041.34 94.698C1041.57 94.902 1041.68 95.16 1041.68 95.472C1041.68 95.796 1041.57 96.072 1041.36 96.3C1041.14 96.516 1040.86 96.624 1040.51 96.624ZM1047.95 108.108C1046.99 108.108 1046.25 107.85 1045.72 107.334C1045.19 106.818 1044.93 106.08 1044.93 105.12V96.372H1046.65V105.048C1046.65 105.564 1046.78 105.96 1047.03 106.236C1047.3 106.512 1047.67 106.65 1048.15 106.65C1048.69 106.65 1049.14 106.5 1049.5 106.2L1050.04 107.442C1049.77 107.67 1049.46 107.838 1049.08 107.946C1048.72 108.054 1048.35 108.108 1047.95 108.108ZM1043.31 99.882V98.46H1049.39V99.882H1043.31ZM1052.13 108V98.46H1053.85V108H1052.13ZM1052.99 96.624C1052.65 96.624 1052.37 96.516 1052.14 96.3C1051.93 96.084 1051.82 95.82 1051.82 95.508C1051.82 95.184 1051.93 94.914 1052.14 94.698C1052.37 94.482 1052.65 94.374 1052.99 94.374C1053.33 94.374 1053.6 94.482 1053.82 94.698C1054.05 94.902 1054.16 95.16 1054.16 95.472C1054.16 95.796 1054.05 96.072 1053.84 96.3C1053.62 96.516 1053.34 96.624 1052.99 96.624ZM1056.24 108V106.884L1062.36 99.288L1062.7 99.882H1056.34V98.46H1064.08V99.594L1057.96 107.172L1057.57 106.578H1064.23V108H1056.24ZM1070.65 108.108C1069.63 108.108 1068.73 107.898 1067.95 107.478C1067.18 107.058 1066.58 106.482 1066.15 105.75C1065.73 105.018 1065.52 104.178 1065.52 103.23C1065.52 102.282 1065.72 101.442 1066.13 100.71C1066.55 99.978 1067.12 99.408 1067.84 99C1068.57 98.58 1069.39 98.37 1070.31 98.37C1071.23 98.37 1072.05 98.574 1072.75 98.982C1073.46 99.39 1074.01 99.966 1074.41 100.71C1074.82 101.442 1075.02 102.3 1075.02 103.284C1075.02 103.356 1075.02 103.44 1075 103.536C1075 103.632 1075 103.722 1074.99 103.806H1066.87V102.564H1074.09L1073.38 102.996C1073.4 102.384 1073.27 101.838 1073.01 101.358C1072.74 100.878 1072.38 100.506 1071.91 100.242C1071.45 99.966 1070.92 99.828 1070.31 99.828C1069.71 99.828 1069.17 99.966 1068.7 100.242C1068.24 100.506 1067.87 100.884 1067.61 101.376C1067.34 101.856 1067.21 102.408 1067.21 103.032V103.32C1067.21 103.956 1067.35 104.526 1067.64 105.03C1067.94 105.522 1068.36 105.906 1068.88 106.182C1069.41 106.458 1070.02 106.596 1070.7 106.596C1071.27 106.596 1071.78 106.5 1072.23 106.308C1072.7 106.116 1073.11 105.828 1073.46 105.444L1074.41 106.56C1073.98 107.064 1073.44 107.448 1072.79 107.712C1072.15 107.976 1071.44 108.108 1070.65 108.108ZM1082.52 98.37C1083.3 98.37 1083.98 98.52 1084.57 98.82C1085.17 99.12 1085.64 99.576 1085.97 100.188C1086.31 100.8 1086.48 101.574 1086.48 102.51V108H1084.75V102.708C1084.75 101.784 1084.52 101.088 1084.06 100.62C1083.62 100.152 1082.99 99.918 1082.17 99.918C1081.56 99.918 1081.03 100.038 1080.57 100.278C1080.12 100.518 1079.76 100.872 1079.51 101.34C1079.27 101.808 1079.15 102.39 1079.15 103.086V108H1077.42V98.46H1079.08V101.034L1078.81 100.35C1079.12 99.726 1079.6 99.24 1080.25 98.892C1080.9 98.544 1081.65 98.37 1082.52 98.37ZM1092.41 108.108C1091.62 108.108 1090.86 108 1090.14 107.784C1089.43 107.568 1088.88 107.304 1088.47 106.992L1089.19 105.624C1089.6 105.9 1090.1 106.134 1090.7 106.326C1091.3 106.518 1091.91 106.614 1092.54 106.614C1093.34 106.614 1093.92 106.5 1094.26 106.272C1094.62 106.044 1094.8 105.726 1094.8 105.318C1094.8 105.018 1094.7 104.784 1094.48 104.616C1094.26 104.448 1093.98 104.322 1093.62 104.238C1093.27 104.154 1092.88 104.082 1092.45 104.022C1092.01 103.95 1091.58 103.866 1091.15 103.77C1090.72 103.662 1090.32 103.518 1089.96 103.338C1089.6 103.146 1089.31 102.888 1089.1 102.564C1088.88 102.228 1088.77 101.784 1088.77 101.232C1088.77 100.656 1088.94 100.152 1089.26 99.72C1089.58 99.288 1090.04 98.958 1090.63 98.73C1091.23 98.49 1091.94 98.37 1092.75 98.37C1093.38 98.37 1094.01 98.448 1094.64 98.604C1095.29 98.748 1095.82 98.958 1096.23 99.234L1095.49 100.602C1095.06 100.314 1094.61 100.116 1094.14 100.008C1093.67 99.9 1093.2 99.846 1092.73 99.846C1091.98 99.846 1091.41 99.972 1091.04 100.224C1090.67 100.464 1090.48 100.776 1090.48 101.16C1090.48 101.484 1090.59 101.736 1090.81 101.916C1091.04 102.084 1091.32 102.216 1091.67 102.312C1092.03 102.408 1092.43 102.492 1092.86 102.564C1093.29 102.624 1093.72 102.708 1094.16 102.816C1094.59 102.912 1094.98 103.05 1095.33 103.23C1095.69 103.41 1095.97 103.662 1096.19 103.986C1096.42 104.31 1096.53 104.742 1096.53 105.282C1096.53 105.858 1096.36 106.356 1096.03 106.776C1095.69 107.196 1095.22 107.526 1094.61 107.766C1093.99 107.994 1093.26 108.108 1092.41 108.108ZM1029.37 132.108C1028.58 132.108 1027.83 132 1027.11 131.784C1026.4 131.568 1025.84 131.304 1025.43 130.992L1026.15 129.624C1026.56 129.9 1027.06 130.134 1027.66 130.326C1028.26 130.518 1028.88 130.614 1029.5 130.614C1030.3 130.614 1030.88 130.5 1031.23 130.272C1031.59 130.044 1031.77 129.726 1031.77 129.318C1031.77 129.018 1031.66 128.784 1031.44 128.616C1031.23 128.448 1030.94 128.322 1030.58 128.238C1030.23 128.154 1029.84 128.082 1029.41 128.022C1028.98 127.95 1028.55 127.866 1028.11 127.77C1027.68 127.662 1027.29 127.518 1026.93 127.338C1026.57 127.146 1026.28 126.888 1026.06 126.564C1025.85 126.228 1025.74 125.784 1025.74 125.232C1025.74 124.656 1025.9 124.152 1026.22 123.72C1026.55 123.288 1027 122.958 1027.59 122.73C1028.19 122.49 1028.9 122.37 1029.72 122.37C1030.34 122.37 1030.97 122.448 1031.61 122.604C1032.25 122.748 1032.78 122.958 1033.19 123.234L1032.45 124.602C1032.02 124.314 1031.57 124.116 1031.1 124.008C1030.63 123.9 1030.17 123.846 1029.7 123.846C1028.94 123.846 1028.38 123.972 1028.01 124.224C1027.63 124.464 1027.45 124.776 1027.45 125.16C1027.45 125.484 1027.56 125.736 1027.77 125.916C1028 126.084 1028.29 126.216 1028.64 126.312C1029 126.408 1029.39 126.492 1029.82 126.564C1030.26 126.624 1030.69 126.708 1031.12 126.816C1031.55 126.912 1031.94 127.05 1032.29 127.23C1032.65 127.41 1032.94 127.662 1033.15 127.986C1033.38 128.31 1033.5 128.742 1033.5 129.282C1033.5 129.858 1033.33 130.356 1032.99 130.776C1032.66 131.196 1032.18 131.526 1031.57 131.766C1030.96 131.994 1030.23 132.108 1029.37 132.108ZM1039.9 132.108C1038.88 132.108 1037.98 131.898 1037.2 131.478C1036.44 131.058 1035.84 130.482 1035.4 129.75C1034.98 129.018 1034.77 128.178 1034.77 127.23C1034.77 126.282 1034.98 125.442 1035.39 124.71C1035.81 123.978 1036.38 123.408 1037.1 123C1037.83 122.58 1038.65 122.37 1039.56 122.37C1040.49 122.37 1041.3 122.574 1042.01 122.982C1042.72 123.39 1043.27 123.966 1043.67 124.71C1044.07 125.442 1044.28 126.3 1044.28 127.284C1044.28 127.356 1044.27 127.44 1044.26 127.536C1044.26 127.632 1044.25 127.722 1044.24 127.806H1036.12V126.564H1043.34L1042.64 126.996C1042.65 126.384 1042.53 125.838 1042.26 125.358C1042 124.878 1041.63 124.506 1041.16 124.242C1040.71 123.966 1040.17 123.828 1039.56 123.828C1038.96 123.828 1038.43 123.966 1037.96 124.242C1037.49 124.506 1037.13 124.884 1036.86 125.376C1036.6 125.856 1036.47 126.408 1036.47 127.032V127.32C1036.47 127.956 1036.61 128.526 1036.9 129.03C1037.2 129.522 1037.61 129.906 1038.14 130.182C1038.67 130.458 1039.27 130.596 1039.96 130.596C1040.52 130.596 1041.03 130.5 1041.49 130.308C1041.96 130.116 1042.36 129.828 1042.71 129.444L1043.67 130.56C1043.23 131.064 1042.69 131.448 1042.05 131.712C1041.41 131.976 1040.7 132.108 1039.9 132.108ZM1051.77 122.37C1052.55 122.37 1053.24 122.52 1053.82 122.82C1054.42 123.12 1054.89 123.576 1055.23 124.188C1055.56 124.8 1055.73 125.574 1055.73 126.51V132H1054V126.708C1054 125.784 1053.78 125.088 1053.32 124.62C1052.88 124.152 1052.25 123.918 1051.43 123.918C1050.82 123.918 1050.28 124.038 1049.83 124.278C1049.37 124.518 1049.02 124.872 1048.77 125.34C1048.53 125.808 1048.41 126.39 1048.41 127.086V132H1046.68V122.46H1048.33V125.034L1048.06 124.35C1048.38 123.726 1048.86 123.24 1049.5 122.892C1050.15 122.544 1050.91 122.37 1051.77 122.37ZM1061.67 132.108C1060.87 132.108 1060.12 132 1059.4 131.784C1058.69 131.568 1058.13 131.304 1057.72 130.992L1058.44 129.624C1058.85 129.9 1059.36 130.134 1059.96 130.326C1060.56 130.518 1061.17 130.614 1061.79 130.614C1062.6 130.614 1063.17 130.5 1063.52 130.272C1063.88 130.044 1064.06 129.726 1064.06 129.318C1064.06 129.018 1063.95 128.784 1063.74 128.616C1063.52 128.448 1063.23 128.322 1062.87 128.238C1062.52 128.154 1062.13 128.082 1061.7 128.022C1061.27 127.95 1060.84 127.866 1060.41 127.77C1059.97 127.662 1059.58 127.518 1059.22 127.338C1058.86 127.146 1058.57 126.888 1058.35 126.564C1058.14 126.228 1058.03 125.784 1058.03 125.232C1058.03 124.656 1058.19 124.152 1058.52 123.72C1058.84 123.288 1059.3 122.958 1059.88 122.73C1060.48 122.49 1061.19 122.37 1062.01 122.37C1062.63 122.37 1063.26 122.448 1063.9 122.604C1064.55 122.748 1065.07 122.958 1065.48 123.234L1064.74 124.602C1064.31 124.314 1063.86 124.116 1063.39 124.008C1062.93 123.9 1062.46 123.846 1061.99 123.846C1061.23 123.846 1060.67 123.972 1060.3 124.224C1059.93 124.464 1059.74 124.776 1059.74 125.16C1059.74 125.484 1059.85 125.736 1060.06 125.916C1060.29 126.084 1060.58 126.216 1060.93 126.312C1061.29 126.408 1061.68 126.492 1062.12 126.564C1062.55 126.624 1062.98 126.708 1063.41 126.816C1063.84 126.912 1064.23 127.05 1064.58 127.23C1064.94 127.41 1065.23 127.662 1065.45 127.986C1065.67 128.31 1065.79 128.742 1065.79 129.282C1065.79 129.858 1065.62 130.356 1065.28 130.776C1064.95 131.196 1064.47 131.526 1063.86 131.766C1063.25 131.994 1062.52 132.108 1061.67 132.108ZM1067.95 132V122.46H1069.67V132H1067.95ZM1068.81 120.624C1068.47 120.624 1068.19 120.516 1067.96 120.3C1067.75 120.084 1067.64 119.82 1067.64 119.508C1067.64 119.184 1067.75 118.914 1067.96 118.698C1068.19 118.482 1068.47 118.374 1068.81 118.374C1069.15 118.374 1069.42 118.482 1069.64 118.698C1069.87 118.902 1069.98 119.16 1069.98 119.472C1069.98 119.796 1069.87 120.072 1069.66 120.3C1069.44 120.516 1069.16 120.624 1068.81 120.624ZM1076.25 132.108C1075.29 132.108 1074.55 131.85 1074.02 131.334C1073.49 130.818 1073.23 130.08 1073.23 129.12V120.372H1074.95V129.048C1074.95 129.564 1075.08 129.96 1075.33 130.236C1075.6 130.512 1075.97 130.65 1076.45 130.65C1076.99 130.65 1077.44 130.5 1077.8 130.2L1078.34 131.442C1078.07 131.67 1077.76 131.838 1077.38 131.946C1077.02 132.054 1076.65 132.108 1076.25 132.108ZM1071.61 123.882V122.46H1077.69V123.882H1071.61ZM1080.43 132V122.46H1082.16V132H1080.43ZM1081.29 120.624C1080.96 120.624 1080.67 120.516 1080.45 120.3C1080.23 120.084 1080.12 119.82 1080.12 119.508C1080.12 119.184 1080.23 118.914 1080.45 118.698C1080.67 118.482 1080.96 118.374 1081.29 118.374C1081.63 118.374 1081.9 118.482 1082.12 118.698C1082.35 118.902 1082.46 119.16 1082.46 119.472C1082.46 119.796 1082.35 120.072 1082.14 120.3C1081.92 120.516 1081.64 120.624 1081.29 120.624ZM1088.19 132.108C1087.4 132.108 1086.64 132 1085.92 131.784C1085.21 131.568 1084.66 131.304 1084.25 130.992L1084.97 129.624C1085.38 129.9 1085.88 130.134 1086.48 130.326C1087.08 130.518 1087.69 130.614 1088.32 130.614C1089.12 130.614 1089.7 130.5 1090.04 130.272C1090.4 130.044 1090.58 129.726 1090.58 129.318C1090.58 129.018 1090.48 128.784 1090.26 128.616C1090.04 128.448 1089.76 128.322 1089.4 128.238C1089.05 128.154 1088.66 128.082 1088.23 128.022C1087.79 127.95 1087.36 127.866 1086.93 127.77C1086.5 127.662 1086.1 127.518 1085.74 127.338C1085.38 127.146 1085.09 126.888 1084.88 126.564C1084.66 126.228 1084.55 125.784 1084.55 125.232C1084.55 124.656 1084.72 124.152 1085.04 123.72C1085.36 123.288 1085.82 122.958 1086.41 122.73C1087.01 122.49 1087.72 122.37 1088.53 122.37C1089.16 122.37 1089.79 122.448 1090.42 122.604C1091.07 122.748 1091.6 122.958 1092.01 123.234L1091.27 124.602C1090.84 124.314 1090.39 124.116 1089.92 124.008C1089.45 123.9 1088.98 123.846 1088.51 123.846C1087.76 123.846 1087.19 123.972 1086.82 124.224C1086.45 124.464 1086.26 124.776 1086.26 125.16C1086.26 125.484 1086.37 125.736 1086.59 125.916C1086.82 126.084 1087.1 126.216 1087.45 126.312C1087.81 126.408 1088.21 126.492 1088.64 126.564C1089.07 126.624 1089.5 126.708 1089.94 126.816C1090.37 126.912 1090.76 127.05 1091.11 127.23C1091.47 127.41 1091.75 127.662 1091.97 127.986C1092.2 128.31 1092.31 128.742 1092.31 129.282C1092.31 129.858 1092.14 130.356 1091.81 130.776C1091.47 131.196 1091 131.526 1090.39 131.766C1089.77 131.994 1089.04 132.108 1088.19 132.108ZM1098.72 132.108C1097.7 132.108 1096.8 131.898 1096.02 131.478C1095.25 131.058 1094.65 130.482 1094.22 129.75C1093.8 129.018 1093.59 128.178 1093.59 127.23C1093.59 126.282 1093.79 125.442 1094.2 124.71C1094.62 123.978 1095.19 123.408 1095.91 123C1096.64 122.58 1097.47 122.37 1098.38 122.37C1099.3 122.37 1100.12 122.574 1100.83 122.982C1101.53 123.39 1102.09 123.966 1102.48 124.71C1102.89 125.442 1103.09 126.3 1103.09 127.284C1103.09 127.356 1103.09 127.44 1103.08 127.536C1103.08 127.632 1103.07 127.722 1103.06 127.806H1094.94V126.564H1102.16L1101.46 126.996C1101.47 126.384 1101.34 125.838 1101.08 125.358C1100.81 124.878 1100.45 124.506 1099.98 124.242C1099.52 123.966 1098.99 123.828 1098.38 123.828C1097.78 123.828 1097.24 123.966 1096.78 124.242C1096.31 124.506 1095.94 124.884 1095.68 125.376C1095.41 125.856 1095.28 126.408 1095.28 127.032V127.32C1095.28 127.956 1095.43 128.526 1095.71 129.03C1096.01 129.522 1096.43 129.906 1096.96 130.182C1097.48 130.458 1098.09 130.596 1098.77 130.596C1099.34 130.596 1099.85 130.5 1100.3 130.308C1100.77 130.116 1101.18 129.828 1101.53 129.444L1102.48 130.56C1102.05 131.064 1101.51 131.448 1100.86 131.712C1100.23 131.976 1099.51 132.108 1098.72 132.108ZM1109.44 132.108C1108.51 132.108 1107.68 131.904 1106.95 131.496C1106.23 131.088 1105.66 130.518 1105.24 129.786C1104.82 129.054 1104.61 128.202 1104.61 127.23C1104.61 126.258 1104.82 125.412 1105.24 124.692C1105.66 123.96 1106.23 123.39 1106.95 122.982C1107.68 122.574 1108.51 122.37 1109.44 122.37C1110.24 122.37 1110.97 122.55 1111.61 122.91C1112.26 123.27 1112.78 123.81 1113.16 124.53C1113.56 125.25 1113.76 126.15 1113.76 127.23C1113.76 128.31 1113.56 129.21 1113.18 129.93C1112.81 130.65 1112.3 131.196 1111.65 131.568C1111 131.928 1110.26 132.108 1109.44 132.108ZM1109.58 130.596C1110.18 130.596 1110.72 130.458 1111.2 130.182C1111.69 129.906 1112.08 129.516 1112.35 129.012C1112.64 128.496 1112.78 127.902 1112.78 127.23C1112.78 126.546 1112.64 125.958 1112.35 125.466C1112.08 124.962 1111.69 124.572 1111.2 124.296C1110.72 124.02 1110.18 123.882 1109.58 123.882C1108.97 123.882 1108.42 124.02 1107.94 124.296C1107.46 124.572 1107.08 124.962 1106.79 125.466C1106.5 125.958 1106.36 126.546 1106.36 127.23C1106.36 127.902 1106.5 128.496 1106.79 129.012C1107.08 129.516 1107.46 129.906 1107.94 130.182C1108.42 130.458 1108.97 130.596 1109.58 130.596ZM1112.84 132V129.426L1112.95 127.212L1112.77 124.998V118.644H1114.49V132H1112.84ZM1029.91 156.108C1028.95 156.108 1028.21 155.85 1027.68 155.334C1027.15 154.818 1026.89 154.08 1026.89 153.12V144.372H1028.62V153.048C1028.62 153.564 1028.74 153.96 1029 154.236C1029.26 154.512 1029.63 154.65 1030.11 154.65C1030.65 154.65 1031.1 154.5 1031.46 154.2L1032 155.442C1031.74 155.67 1031.42 155.838 1031.05 155.946C1030.69 156.054 1030.31 156.108 1029.91 156.108ZM1025.27 147.882V146.46H1031.35V147.882H1025.27ZM1037.86 156.108C1036.9 156.108 1036.05 155.898 1035.3 155.478C1034.56 155.058 1033.97 154.482 1033.54 153.75C1033.11 153.006 1032.89 152.166 1032.89 151.23C1032.89 150.282 1033.11 149.442 1033.54 148.71C1033.97 147.978 1034.56 147.408 1035.3 147C1036.05 146.58 1036.9 146.37 1037.86 146.37C1038.81 146.37 1039.65 146.58 1040.4 147C1041.15 147.408 1041.74 147.978 1042.16 148.71C1042.59 149.43 1042.81 150.27 1042.81 151.23C1042.81 152.178 1042.59 153.018 1042.16 153.75C1041.74 154.482 1041.15 155.058 1040.4 155.478C1039.65 155.898 1038.81 156.108 1037.86 156.108ZM1037.86 154.596C1038.47 154.596 1039.02 154.458 1039.5 154.182C1039.99 153.906 1040.37 153.516 1040.65 153.012C1040.93 152.496 1041.06 151.902 1041.06 151.23C1041.06 150.546 1040.93 149.958 1040.65 149.466C1040.37 148.962 1039.99 148.572 1039.5 148.296C1039.02 148.02 1038.47 147.882 1037.86 147.882C1037.25 147.882 1036.7 148.02 1036.22 148.296C1035.74 148.572 1035.36 148.962 1035.07 149.466C1034.78 149.958 1034.64 150.546 1034.64 151.23C1034.64 151.902 1034.78 152.496 1035.07 153.012C1035.36 153.516 1035.74 153.906 1036.22 154.182C1036.7 154.458 1037.25 154.596 1037.86 154.596ZM1046.95 156L1043.41 146.46H1045.04L1048.19 155.1H1047.42L1050.7 146.46H1052.15L1055.36 155.1H1054.6L1057.82 146.46H1059.37L1055.81 156H1054.15L1051.15 148.116H1051.65L1048.61 156H1046.95ZM1066.75 156V153.984L1066.66 153.606V150.168C1066.66 149.436 1066.44 148.872 1066.01 148.476C1065.59 148.068 1064.96 147.864 1064.1 147.864C1063.54 147.864 1062.99 147.96 1062.45 148.152C1061.91 148.332 1061.45 148.578 1061.08 148.89L1060.36 147.594C1060.85 147.198 1061.44 146.898 1062.12 146.694C1062.82 146.478 1063.55 146.37 1064.3 146.37C1065.61 146.37 1066.62 146.688 1067.33 147.324C1068.03 147.96 1068.39 148.932 1068.39 150.24V156H1066.75ZM1063.62 156.108C1062.91 156.108 1062.29 155.988 1061.75 155.748C1061.22 155.508 1060.81 155.178 1060.52 154.758C1060.23 154.326 1060.09 153.84 1060.09 153.3C1060.09 152.784 1060.21 152.316 1060.45 151.896C1060.7 151.476 1061.1 151.14 1061.66 150.888C1062.22 150.636 1062.98 150.51 1063.92 150.51H1066.95V151.752H1064C1063.13 151.752 1062.55 151.896 1062.25 152.184C1061.95 152.472 1061.8 152.82 1061.8 153.228C1061.8 153.696 1061.99 154.074 1062.36 154.362C1062.73 154.638 1063.25 154.776 1063.91 154.776C1064.55 154.776 1065.12 154.632 1065.6 154.344C1066.09 154.056 1066.44 153.636 1066.66 153.084L1067 154.272C1066.77 154.836 1066.37 155.286 1065.8 155.622C1065.22 155.946 1064.49 156.108 1063.62 156.108ZM1071.59 156V146.46H1073.24V149.052L1073.08 148.404C1073.34 147.744 1073.79 147.24 1074.41 146.892C1075.04 146.544 1075.8 146.37 1076.72 146.37V148.044C1076.64 148.032 1076.57 148.026 1076.5 148.026C1076.44 148.026 1076.38 148.026 1076.32 148.026C1075.4 148.026 1074.66 148.302 1074.12 148.854C1073.58 149.406 1073.31 150.204 1073.31 151.248V156H1071.59ZM1082.7 156.108C1081.78 156.108 1080.95 155.904 1080.22 155.496C1079.5 155.088 1078.93 154.518 1078.51 153.786C1078.09 153.054 1077.88 152.202 1077.88 151.23C1077.88 150.258 1078.09 149.412 1078.51 148.692C1078.93 147.96 1079.5 147.39 1080.22 146.982C1080.95 146.574 1081.78 146.37 1082.7 146.37C1083.5 146.37 1084.23 146.55 1084.88 146.91C1085.53 147.27 1086.04 147.81 1086.43 148.53C1086.82 149.25 1087.02 150.15 1087.02 151.23C1087.02 152.31 1086.83 153.21 1086.44 153.93C1086.07 154.65 1085.56 155.196 1084.91 155.568C1084.27 155.928 1083.53 156.108 1082.7 156.108ZM1082.84 154.596C1083.44 154.596 1083.98 154.458 1084.46 154.182C1084.96 153.906 1085.34 153.516 1085.62 153.012C1085.9 152.496 1086.05 151.902 1086.05 151.23C1086.05 150.546 1085.9 149.958 1085.62 149.466C1085.34 148.962 1084.96 148.572 1084.46 148.296C1083.98 148.02 1083.44 147.882 1082.84 147.882C1082.23 147.882 1081.69 148.02 1081.21 148.296C1080.73 148.572 1080.34 148.962 1080.05 149.466C1079.77 149.958 1079.62 150.546 1079.62 151.23C1079.62 151.902 1079.77 152.496 1080.05 153.012C1080.34 153.516 1080.73 153.906 1081.21 154.182C1081.69 154.458 1082.23 154.596 1082.84 154.596ZM1086.1 156V153.426L1086.21 151.212L1086.03 148.998V142.644H1087.76V156H1086.1ZM1093.76 156.108C1092.97 156.108 1092.21 156 1091.49 155.784C1090.79 155.568 1090.23 155.304 1089.82 154.992L1090.54 153.624C1090.95 153.9 1091.45 154.134 1092.05 154.326C1092.65 154.518 1093.26 154.614 1093.89 154.614C1094.69 154.614 1095.27 154.5 1095.62 154.272C1095.98 154.044 1096.16 153.726 1096.16 153.318C1096.16 153.018 1096.05 152.784 1095.83 152.616C1095.62 152.448 1095.33 152.322 1094.97 152.238C1094.62 152.154 1094.23 152.082 1093.8 152.022C1093.37 151.95 1092.93 151.866 1092.5 151.77C1092.07 151.662 1091.67 151.518 1091.31 151.338C1090.95 151.146 1090.67 150.888 1090.45 150.564C1090.23 150.228 1090.13 149.784 1090.13 149.232C1090.13 148.656 1090.29 148.152 1090.61 147.72C1090.94 147.288 1091.39 146.958 1091.98 146.73C1092.58 146.49 1093.29 146.37 1094.1 146.37C1094.73 146.37 1095.36 146.448 1095.99 146.604C1096.64 146.748 1097.17 146.958 1097.58 147.234L1096.84 148.602C1096.41 148.314 1095.96 148.116 1095.49 148.008C1095.02 147.9 1094.55 147.846 1094.09 147.846C1093.33 147.846 1092.77 147.972 1092.39 148.224C1092.02 148.464 1091.84 148.776 1091.84 149.16C1091.84 149.484 1091.94 149.736 1092.16 149.916C1092.39 150.084 1092.68 150.216 1093.02 150.312C1093.38 150.408 1093.78 150.492 1094.21 150.564C1094.64 150.624 1095.08 150.708 1095.51 150.816C1095.94 150.912 1096.33 151.05 1096.68 151.23C1097.04 151.41 1097.33 151.662 1097.54 151.986C1097.77 152.31 1097.88 152.742 1097.88 153.282C1097.88 153.858 1097.72 154.356 1097.38 154.776C1097.04 155.196 1096.57 155.526 1095.96 155.766C1095.35 155.994 1094.61 156.108 1093.76 156.108ZM1108.15 156.108C1107.19 156.108 1106.45 155.85 1105.92 155.334C1105.39 154.818 1105.13 154.08 1105.13 153.12V144.372H1106.86V153.048C1106.86 153.564 1106.98 153.96 1107.24 154.236C1107.5 154.512 1107.87 154.65 1108.35 154.65C1108.89 154.65 1109.34 154.5 1109.7 154.2L1110.24 155.442C1109.98 155.67 1109.66 155.838 1109.29 155.946C1108.93 156.054 1108.55 156.108 1108.15 156.108ZM1103.51 147.882V146.46H1109.59V147.882H1103.51ZM1117.43 146.37C1118.21 146.37 1118.89 146.52 1119.48 146.82C1120.08 147.12 1120.55 147.576 1120.88 148.188C1121.22 148.8 1121.39 149.574 1121.39 150.51V156H1119.66V150.708C1119.66 149.784 1119.43 149.088 1118.97 148.62C1118.53 148.152 1117.9 147.918 1117.08 147.918C1116.47 147.918 1115.94 148.038 1115.48 148.278C1115.03 148.518 1114.67 148.872 1114.42 149.34C1114.18 149.808 1114.06 150.39 1114.06 151.086V156H1112.33V142.644H1114.06V149.034L1113.72 148.35C1114.03 147.726 1114.51 147.24 1115.16 146.892C1115.81 146.544 1116.56 146.37 1117.43 146.37ZM1128.83 156.108C1127.81 156.108 1126.91 155.898 1126.13 155.478C1125.36 155.058 1124.76 154.482 1124.33 153.75C1123.91 153.018 1123.7 152.178 1123.7 151.23C1123.7 150.282 1123.91 149.442 1124.31 148.71C1124.73 147.978 1125.3 147.408 1126.02 147C1126.76 146.58 1127.58 146.37 1128.49 146.37C1129.41 146.37 1130.23 146.574 1130.94 146.982C1131.65 147.39 1132.2 147.966 1132.59 148.71C1133 149.442 1133.21 150.3 1133.21 151.284C1133.21 151.356 1133.2 151.44 1133.19 151.536C1133.19 151.632 1133.18 151.722 1133.17 151.806H1125.05V150.564H1132.27L1131.57 150.996C1131.58 150.384 1131.45 149.838 1131.19 149.358C1130.93 148.878 1130.56 148.506 1130.09 148.242C1129.64 147.966 1129.1 147.828 1128.49 147.828C1127.89 147.828 1127.36 147.966 1126.89 148.242C1126.42 148.506 1126.05 148.884 1125.79 149.376C1125.53 149.856 1125.39 150.408 1125.39 151.032V151.32C1125.39 151.956 1125.54 152.526 1125.83 153.03C1126.13 153.522 1126.54 153.906 1127.07 154.182C1127.6 154.458 1128.2 154.596 1128.89 154.596C1129.45 154.596 1129.96 154.5 1130.42 154.308C1130.88 154.116 1131.29 153.828 1131.64 153.444L1132.59 154.56C1132.16 155.064 1131.62 155.448 1130.97 155.712C1130.34 155.976 1129.62 156.108 1128.83 156.108ZM1029.37 180.108C1028.58 180.108 1027.83 180 1027.11 179.784C1026.4 179.568 1025.84 179.304 1025.43 178.992L1026.15 177.624C1026.56 177.9 1027.06 178.134 1027.66 178.326C1028.26 178.518 1028.88 178.614 1029.5 178.614C1030.3 178.614 1030.88 178.5 1031.23 178.272C1031.59 178.044 1031.77 177.726 1031.77 177.318C1031.77 177.018 1031.66 176.784 1031.44 176.616C1031.23 176.448 1030.94 176.322 1030.58 176.238C1030.23 176.154 1029.84 176.082 1029.41 176.022C1028.98 175.95 1028.55 175.866 1028.11 175.77C1027.68 175.662 1027.29 175.518 1026.93 175.338C1026.57 175.146 1026.28 174.888 1026.06 174.564C1025.85 174.228 1025.74 173.784 1025.74 173.232C1025.74 172.656 1025.9 172.152 1026.22 171.72C1026.55 171.288 1027 170.958 1027.59 170.73C1028.19 170.49 1028.9 170.37 1029.72 170.37C1030.34 170.37 1030.97 170.448 1031.61 170.604C1032.25 170.748 1032.78 170.958 1033.19 171.234L1032.45 172.602C1032.02 172.314 1031.57 172.116 1031.1 172.008C1030.63 171.9 1030.17 171.846 1029.7 171.846C1028.94 171.846 1028.38 171.972 1028.01 172.224C1027.63 172.464 1027.45 172.776 1027.45 173.16C1027.45 173.484 1027.56 173.736 1027.77 173.916C1028 174.084 1028.29 174.216 1028.64 174.312C1029 174.408 1029.39 174.492 1029.82 174.564C1030.26 174.624 1030.69 174.708 1031.12 174.816C1031.55 174.912 1031.94 175.05 1032.29 175.23C1032.65 175.41 1032.94 175.662 1033.15 175.986C1033.38 176.31 1033.5 176.742 1033.5 177.282C1033.5 177.858 1033.33 178.356 1032.99 178.776C1032.66 179.196 1032.18 179.526 1031.57 179.766C1030.96 179.994 1030.23 180.108 1029.37 180.108ZM1039.74 180.108C1038.78 180.108 1037.93 179.898 1037.19 179.478C1036.44 179.058 1035.85 178.482 1035.42 177.75C1034.99 177.006 1034.77 176.166 1034.77 175.23C1034.77 174.282 1034.99 173.442 1035.42 172.71C1035.85 171.978 1036.44 171.408 1037.19 171C1037.93 170.58 1038.78 170.37 1039.74 170.37C1040.69 170.37 1041.54 170.58 1042.28 171C1043.04 171.408 1043.62 171.978 1044.04 172.71C1044.48 173.43 1044.69 174.27 1044.69 175.23C1044.69 176.178 1044.48 177.018 1044.04 177.75C1043.62 178.482 1043.04 179.058 1042.28 179.478C1041.54 179.898 1040.69 180.108 1039.74 180.108ZM1039.74 178.596C1040.35 178.596 1040.9 178.458 1041.38 178.182C1041.87 177.906 1042.26 177.516 1042.53 177.012C1042.81 176.496 1042.95 175.902 1042.95 175.23C1042.95 174.546 1042.81 173.958 1042.53 173.466C1042.26 172.962 1041.87 172.572 1041.38 172.296C1040.9 172.02 1040.35 171.882 1039.74 171.882C1039.13 171.882 1038.58 172.02 1038.1 172.296C1037.62 172.572 1037.24 172.962 1036.95 173.466C1036.66 173.958 1036.52 174.546 1036.52 175.23C1036.52 175.902 1036.66 176.496 1036.95 177.012C1037.24 177.516 1037.62 177.906 1038.1 178.182C1038.58 178.458 1039.13 178.596 1039.74 178.596ZM1051.24 180.108C1050.27 180.108 1049.4 179.898 1048.63 179.478C1047.87 179.058 1047.28 178.482 1046.85 177.75C1046.42 177.018 1046.2 176.178 1046.2 175.23C1046.2 174.282 1046.42 173.442 1046.85 172.71C1047.28 171.978 1047.87 171.408 1048.63 171C1049.4 170.58 1050.27 170.37 1051.24 170.37C1052.1 170.37 1052.87 170.544 1053.54 170.892C1054.23 171.228 1054.76 171.732 1055.13 172.404L1053.81 173.25C1053.5 172.782 1053.12 172.44 1052.66 172.224C1052.22 171.996 1051.74 171.882 1051.22 171.882C1050.6 171.882 1050.04 172.02 1049.55 172.296C1049.06 172.572 1048.67 172.962 1048.38 173.466C1048.09 173.958 1047.95 174.546 1047.95 175.23C1047.95 175.914 1048.09 176.508 1048.38 177.012C1048.67 177.516 1049.06 177.906 1049.55 178.182C1050.04 178.458 1050.6 178.596 1051.22 178.596C1051.74 178.596 1052.22 178.488 1052.66 178.272C1053.12 178.044 1053.5 177.696 1053.81 177.228L1055.13 178.056C1054.76 178.716 1054.23 179.226 1053.54 179.586C1052.87 179.934 1052.1 180.108 1051.24 180.108ZM1057.24 180V170.46H1058.97V180H1057.24ZM1058.11 168.624C1057.77 168.624 1057.49 168.516 1057.26 168.3C1057.04 168.084 1056.94 167.82 1056.94 167.508C1056.94 167.184 1057.04 166.914 1057.26 166.698C1057.49 166.482 1057.77 166.374 1058.11 166.374C1058.44 166.374 1058.72 166.482 1058.93 166.698C1059.16 166.902 1059.28 167.16 1059.28 167.472C1059.28 167.796 1059.17 168.072 1058.95 168.3C1058.74 168.516 1058.45 168.624 1058.11 168.624ZM1066.52 180.108C1065.5 180.108 1064.6 179.898 1063.82 179.478C1063.05 179.058 1062.45 178.482 1062.02 177.75C1061.6 177.018 1061.39 176.178 1061.39 175.23C1061.39 174.282 1061.59 173.442 1062 172.71C1062.42 171.978 1062.99 171.408 1063.71 171C1064.44 170.58 1065.26 170.37 1066.17 170.37C1067.1 170.37 1067.91 170.574 1068.62 170.982C1069.33 171.39 1069.88 171.966 1070.28 172.71C1070.69 173.442 1070.89 174.3 1070.89 175.284C1070.89 175.356 1070.88 175.44 1070.87 175.536C1070.87 175.632 1070.87 175.722 1070.85 175.806H1062.74V174.564H1069.95L1069.25 174.996C1069.26 174.384 1069.14 173.838 1068.87 173.358C1068.61 172.878 1068.24 172.506 1067.78 172.242C1067.32 171.966 1066.79 171.828 1066.17 171.828C1065.57 171.828 1065.04 171.966 1064.57 172.242C1064.1 172.506 1063.74 172.884 1063.47 173.376C1063.21 173.856 1063.08 174.408 1063.08 175.032V175.32C1063.08 175.956 1063.22 176.526 1063.51 177.03C1063.81 177.522 1064.22 177.906 1064.75 178.182C1065.28 178.458 1065.89 178.596 1066.57 178.596C1067.13 178.596 1067.64 178.5 1068.1 178.308C1068.57 178.116 1068.98 177.828 1069.32 177.444L1070.28 178.56C1069.85 179.064 1069.31 179.448 1068.66 179.712C1068.02 179.976 1067.31 180.108 1066.52 180.108ZM1076.57 180.108C1075.61 180.108 1074.86 179.85 1074.33 179.334C1073.81 178.818 1073.54 178.08 1073.54 177.12V168.372H1075.27V177.048C1075.27 177.564 1075.4 177.96 1075.65 178.236C1075.91 178.512 1076.28 178.65 1076.76 178.65C1077.3 178.65 1077.75 178.5 1078.11 178.2L1078.65 179.442C1078.39 179.67 1078.07 179.838 1077.7 179.946C1077.34 180.054 1076.96 180.108 1076.57 180.108ZM1071.92 171.882V170.46H1078.01V171.882H1071.92ZM1086.67 180V177.984L1086.58 177.606V174.168C1086.58 173.436 1086.36 172.872 1085.93 172.476C1085.51 172.068 1084.87 171.864 1084.02 171.864C1083.46 171.864 1082.9 171.96 1082.36 172.152C1081.82 172.332 1081.37 172.578 1081 172.89L1080.28 171.594C1080.77 171.198 1081.36 170.898 1082.04 170.694C1082.74 170.478 1083.46 170.37 1084.22 170.37C1085.53 170.37 1086.53 170.688 1087.24 171.324C1087.95 171.96 1088.3 172.932 1088.3 174.24V180H1086.67ZM1083.53 180.108C1082.83 180.108 1082.2 179.988 1081.66 179.748C1081.13 179.508 1080.73 179.178 1080.44 178.758C1080.15 178.326 1080.01 177.84 1080.01 177.3C1080.01 176.784 1080.13 176.316 1080.37 175.896C1080.62 175.476 1081.02 175.14 1081.57 174.888C1082.14 174.636 1082.89 174.51 1083.84 174.51H1086.86V175.752H1083.91C1083.05 175.752 1082.47 175.896 1082.17 176.184C1081.87 176.472 1081.72 176.82 1081.72 177.228C1081.72 177.696 1081.9 178.074 1082.27 178.362C1082.65 178.638 1083.16 178.776 1083.82 178.776C1084.47 178.776 1085.03 178.632 1085.51 178.344C1086.01 178.056 1086.36 177.636 1086.58 177.084L1086.92 178.272C1086.69 178.836 1086.29 179.286 1085.71 179.622C1085.14 179.946 1084.41 180.108 1083.53 180.108ZM1091.5 180V166.644H1093.23V180H1091.5ZM1106.46 170.37C1107.24 170.37 1107.92 170.52 1108.51 170.82C1109.11 171.12 1109.58 171.576 1109.91 172.188C1110.25 172.8 1110.42 173.574 1110.42 174.51V180H1108.69V174.708C1108.69 173.784 1108.46 173.088 1108 172.62C1107.56 172.152 1106.93 171.918 1106.11 171.918C1105.5 171.918 1104.97 172.038 1104.51 172.278C1104.06 172.518 1103.7 172.872 1103.45 173.34C1103.21 173.808 1103.09 174.39 1103.09 175.086V180H1101.36V170.46H1103.02V173.034L1102.75 172.35C1103.06 171.726 1103.54 171.24 1104.19 170.892C1104.84 170.544 1105.59 170.37 1106.46 170.37ZM1117.86 180.108C1116.84 180.108 1115.94 179.898 1115.16 179.478C1114.39 179.058 1113.79 178.482 1113.36 177.75C1112.94 177.018 1112.73 176.178 1112.73 175.23C1112.73 174.282 1112.94 173.442 1113.34 172.71C1113.76 171.978 1114.33 171.408 1115.05 171C1115.79 170.58 1116.61 170.37 1117.52 170.37C1118.44 170.37 1119.26 170.574 1119.97 170.982C1120.68 171.39 1121.23 171.966 1121.62 172.71C1122.03 173.442 1122.24 174.3 1122.24 175.284C1122.24 175.356 1122.23 175.44 1122.22 175.536C1122.22 175.632 1122.21 175.722 1122.2 175.806H1114.08V174.564H1121.3L1120.6 174.996C1120.61 174.384 1120.48 173.838 1120.22 173.358C1119.96 172.878 1119.59 172.506 1119.12 172.242C1118.67 171.966 1118.13 171.828 1117.52 171.828C1116.92 171.828 1116.39 171.966 1115.92 172.242C1115.45 172.506 1115.08 172.884 1114.82 173.376C1114.56 173.856 1114.42 174.408 1114.42 175.032V175.32C1114.42 175.956 1114.57 176.526 1114.86 177.03C1115.16 177.522 1115.57 177.906 1116.1 178.182C1116.63 178.458 1117.23 178.596 1117.92 178.596C1118.48 178.596 1118.99 178.5 1119.45 178.308C1119.91 178.116 1120.32 177.828 1120.67 177.444L1121.62 178.56C1121.19 179.064 1120.65 179.448 1120 179.712C1119.37 179.976 1118.65 180.108 1117.86 180.108ZM1128.88 180.108C1127.86 180.108 1126.96 179.898 1126.18 179.478C1125.42 179.058 1124.82 178.482 1124.38 177.75C1123.96 177.018 1123.75 176.178 1123.75 175.23C1123.75 174.282 1123.96 173.442 1124.37 172.71C1124.79 171.978 1125.36 171.408 1126.08 171C1126.81 170.58 1127.63 170.37 1128.54 170.37C1129.47 170.37 1130.28 170.574 1130.99 170.982C1131.7 171.39 1132.25 171.966 1132.65 172.71C1133.05 173.442 1133.26 174.3 1133.26 175.284C1133.26 175.356 1133.25 175.44 1133.24 175.536C1133.24 175.632 1133.23 175.722 1133.22 175.806H1125.1V174.564H1132.32L1131.62 174.996C1131.63 174.384 1131.51 173.838 1131.24 173.358C1130.98 172.878 1130.61 172.506 1130.14 172.242C1129.69 171.966 1129.15 171.828 1128.54 171.828C1127.94 171.828 1127.41 171.966 1126.94 172.242C1126.47 172.506 1126.11 172.884 1125.84 173.376C1125.58 173.856 1125.45 174.408 1125.45 175.032V175.32C1125.45 175.956 1125.59 176.526 1125.88 177.03C1126.18 177.522 1126.59 177.906 1127.12 178.182C1127.65 178.458 1128.25 178.596 1128.94 178.596C1129.5 178.596 1130.01 178.5 1130.47 178.308C1130.94 178.116 1131.34 177.828 1131.69 177.444L1132.65 178.56C1132.21 179.064 1131.67 179.448 1131.03 179.712C1130.39 179.976 1129.68 180.108 1128.88 180.108ZM1139.6 180.108C1138.68 180.108 1137.85 179.904 1137.12 179.496C1136.4 179.088 1135.83 178.518 1135.41 177.786C1134.99 177.054 1134.78 176.202 1134.78 175.23C1134.78 174.258 1134.99 173.412 1135.41 172.692C1135.83 171.96 1136.4 171.39 1137.12 170.982C1137.85 170.574 1138.68 170.37 1139.6 170.37C1140.4 170.37 1141.13 170.55 1141.78 170.91C1142.43 171.27 1142.94 171.81 1143.33 172.53C1143.72 173.25 1143.92 174.15 1143.92 175.23C1143.92 176.31 1143.73 177.21 1143.34 177.93C1142.97 178.65 1142.46 179.196 1141.81 179.568C1141.17 179.928 1140.43 180.108 1139.6 180.108ZM1139.74 178.596C1140.34 178.596 1140.88 178.458 1141.36 178.182C1141.86 177.906 1142.24 177.516 1142.52 177.012C1142.8 176.496 1142.95 175.902 1142.95 175.23C1142.95 174.546 1142.8 173.958 1142.52 173.466C1142.24 172.962 1141.86 172.572 1141.36 172.296C1140.88 172.02 1140.34 171.882 1139.74 171.882C1139.13 171.882 1138.59 172.02 1138.11 172.296C1137.63 172.572 1137.24 172.962 1136.95 173.466C1136.67 173.958 1136.52 174.546 1136.52 175.23C1136.52 175.902 1136.67 176.496 1136.95 177.012C1137.24 177.516 1137.63 177.906 1138.11 178.182C1138.59 178.458 1139.13 178.596 1139.74 178.596ZM1143 180V177.426L1143.11 175.212L1142.93 172.998V166.644H1144.66V180H1143ZM1150.66 180.108C1149.87 180.108 1149.12 180 1148.4 179.784C1147.69 179.568 1147.13 179.304 1146.72 178.992L1147.44 177.624C1147.85 177.9 1148.35 178.134 1148.95 178.326C1149.55 178.518 1150.17 178.614 1150.79 178.614C1151.59 178.614 1152.17 178.5 1152.52 178.272C1152.88 178.044 1153.06 177.726 1153.06 177.318C1153.06 177.018 1152.95 176.784 1152.73 176.616C1152.52 176.448 1152.23 176.322 1151.87 176.238C1151.52 176.154 1151.13 176.082 1150.7 176.022C1150.27 175.95 1149.84 175.866 1149.4 175.77C1148.97 175.662 1148.58 175.518 1148.22 175.338C1147.86 175.146 1147.57 174.888 1147.35 174.564C1147.14 174.228 1147.03 173.784 1147.03 173.232C1147.03 172.656 1147.19 172.152 1147.51 171.72C1147.84 171.288 1148.29 170.958 1148.88 170.73C1149.48 170.49 1150.19 170.37 1151.01 170.37C1151.63 170.37 1152.26 170.448 1152.9 170.604C1153.54 170.748 1154.07 170.958 1154.48 171.234L1153.74 172.602C1153.31 172.314 1152.86 172.116 1152.39 172.008C1151.92 171.9 1151.46 171.846 1150.99 171.846C1150.23 171.846 1149.67 171.972 1149.3 172.224C1148.92 172.464 1148.74 172.776 1148.74 173.16C1148.74 173.484 1148.85 173.736 1149.06 173.916C1149.29 174.084 1149.58 174.216 1149.93 174.312C1150.29 174.408 1150.68 174.492 1151.11 174.564C1151.55 174.624 1151.98 174.708 1152.41 174.816C1152.84 174.912 1153.23 175.05 1153.58 175.23C1153.94 175.41 1154.23 175.662 1154.44 175.986C1154.67 176.31 1154.79 176.742 1154.79 177.282C1154.79 177.858 1154.62 178.356 1154.28 178.776C1153.95 179.196 1153.47 179.526 1152.86 179.766C1152.25 179.994 1151.52 180.108 1150.66 180.108Z" fill="black"/>
</svg>
