<svg width="225" height="43" viewBox="0 0 225 43" fill="none" xmlns="http://www.w3.org/2000/svg">
<g clip-path="url(#clip0_1450_4851)">
<path d="M8.67594 9.12666V10.4059H1.19531V0.118164H8.47143V1.39741H2.66991V4.55791H7.83639V5.80491H2.66991V9.12666H8.67594Z" fill="white"/>
<path d="M24.5296 10.4059V2.91316L20.7947 9.15891H20.1166L16.3924 2.95616V10.4059H14.9824V0.118164H16.1879L20.4826 7.35291L24.7126 0.118164H25.9181V10.4059H24.5189H24.5296Z" fill="white"/>
<path d="M41.2674 3.70866C41.2674 5.94466 39.6529 7.29916 36.9728 7.29916H34.4219V10.4167H32.9473V0.118164H36.962C39.6422 0.118164 41.2567 1.47266 41.2567 3.70866H41.2674ZM39.7928 3.70866C39.7928 2.23591 38.8026 1.39741 36.919 1.39741H34.4219V6.00916H36.919C38.8026 6.00916 39.7928 5.17066 39.7928 3.69791V3.70866Z" fill="white"/>
<path d="M46.6504 5.2675C46.6504 2.2575 48.9753 0 52.1398 0C55.3042 0 57.5969 2.236 57.5969 5.2675C57.5969 8.299 55.2719 10.535 52.1398 10.535C49.0076 10.535 46.6504 8.28825 46.6504 5.2675ZM56.133 5.2675C56.133 2.9885 54.4216 1.3115 52.1398 1.3115C49.8579 1.3115 48.125 2.9885 48.125 5.2675C48.125 7.5465 49.8364 9.2235 52.1398 9.2235C54.4432 9.2235 56.133 7.5465 56.133 5.2675Z" fill="white"/>
<path d="M78.0036 0.118164L74.5593 10.4059H73.0093L70.2001 2.19291L67.3908 10.4059H65.8193L62.375 0.118164H63.8927L66.6696 8.48166L69.565 0.118164H70.9212L73.7628 8.52466L76.6043 0.118164H78.0036Z" fill="white"/>
<path d="M91.1994 9.12666V10.4059H83.7188V0.118164H90.9949V1.39741H85.1934V4.55791H90.3598V5.80491H85.1934V9.12666H91.1994Z" fill="white"/>
<path d="M104.386 10.4059L102.158 7.24541C101.953 7.25616 101.727 7.27766 101.512 7.27766H98.9609V10.4059H97.4863V0.118164H101.501C104.181 0.118164 105.796 1.47266 105.796 3.70866C105.796 5.29966 104.967 6.43916 103.525 6.95516L105.968 10.4059H104.364H104.386ZM104.343 3.70866C104.343 2.23591 103.352 1.39741 101.469 1.39741H98.9609V6.03066H101.469C103.352 6.03066 104.343 5.18141 104.343 3.70866Z" fill="white"/>
<path d="M112.113 0.118164H113.588V10.4059H112.113V0.118164Z" fill="white"/>
<path d="M129.452 0.118164V10.4059H128.247L122.068 2.73041V10.4059H120.594V0.118164H121.799L127.978 7.79366V0.118164H129.452Z" fill="white"/>
<path d="M143.597 5.20301H145.007V9.21276C143.974 10.0835 142.553 10.5243 141.11 10.5243C137.946 10.5243 135.621 8.30976 135.621 5.25676C135.621 2.20376 137.946 -0.0107422 141.143 -0.0107422C142.779 -0.0107422 144.157 0.537508 145.104 1.58026L144.189 2.49401C143.339 1.66626 142.359 1.30076 141.197 1.30076C138.818 1.30076 137.085 2.95626 137.085 5.25676C137.085 7.55726 138.807 9.21276 141.175 9.21276C142.047 9.21276 142.854 9.01926 143.586 8.54626V5.19226L143.597 5.20301Z" fill="white"/>
<path d="M169.17 10.4059V2.91316L165.435 9.15891H164.757L161.033 2.95616V10.4059H159.623V0.118164H160.829L165.123 7.35291L169.364 0.118164H170.57V10.4059H169.17Z" fill="white"/>
<path d="M177.588 0.118164H179.062V10.4059H177.588V0.118164Z" fill="white"/>
<path d="M194.927 0.118164V10.4059H193.721L187.543 2.73041V10.4059H186.068V0.118164H187.274L193.452 7.79366V0.118164H194.927Z" fill="white"/>
<path d="M201.934 0.118164H206.271C209.586 0.118164 211.836 2.20366 211.836 5.26741C211.836 8.33116 209.586 10.4167 206.271 10.4167H201.934V0.118164ZM206.185 9.12666C208.736 9.12666 210.361 7.56791 210.361 5.25666C210.361 2.94541 208.725 1.38666 206.185 1.38666H203.408V9.11591H206.185V9.12666Z" fill="white"/>
<path d="M217.068 9.23425L217.617 8.084C218.381 8.772 219.695 9.27725 221.019 9.27725C222.795 9.27725 223.57 8.58925 223.57 7.68625C223.57 5.17075 217.327 6.76175 217.327 2.93475C217.327 1.34375 218.564 0 221.266 0C222.472 0 223.72 0.3225 224.581 0.91375L224.097 2.0855C223.204 1.51575 222.181 1.247 221.266 1.247C219.512 1.247 218.769 1.978 218.769 2.881C218.769 5.3965 225.012 3.827 225.012 7.60025C225.012 9.16975 223.742 10.5243 221.019 10.5243C219.447 10.5243 217.897 9.9975 217.079 9.23425H217.068Z" fill="white"/>
<path d="M0 41.0544L2.05583 36.4104C3.84257 37.4639 6.2213 38.1412 8.29865 38.1412C10.1069 38.1412 10.7635 37.7649 10.7635 37.1199C10.7635 34.7442 0.301378 36.6577 0.301378 29.6164C0.301378 26.1119 3.25057 23.2417 9.11668 23.2417C11.6569 23.2417 14.2832 23.7792 16.2529 24.8864L14.337 29.4982C12.4749 28.5522 10.7097 28.0899 9.06286 28.0899C7.20078 28.0899 6.60878 28.6274 6.60878 29.2724C6.60878 31.5407 17.0709 29.6487 17.0709 36.6147C17.0709 40.0655 14.1217 42.9895 8.2556 42.9895C5.09113 42.9895 1.90514 42.2047 0.0107635 41.0437L0 41.0544Z" fill="white"/>
<path d="M18.9551 23.6719H25.3378V42.5704H18.9551V23.6719Z" fill="white"/>
<path d="M47.0691 23.6719V42.5704H41.8273L34.6373 33.9811V42.5704H28.416V23.6719H33.6578L40.8478 32.2611V23.6719H47.0691Z" fill="white"/>
<path d="M49.4043 33.1209C49.4043 27.3159 53.8604 23.2417 59.9418 23.2417C63.6444 23.2417 66.5613 24.5962 68.4341 27.0257L64.4086 30.6162C63.3 29.2079 61.9761 28.4017 60.2754 28.4017C57.6276 28.4017 55.8409 30.2399 55.8409 33.1209C55.8409 36.0019 57.6276 37.8509 60.2754 37.8509C61.9761 37.8509 63.3 37.0447 64.4086 35.6364L68.4341 39.2269C66.5721 41.6564 63.6444 43.0109 59.9418 43.0109C53.8604 43.0109 49.4043 38.9367 49.4043 33.1317V33.1209Z" fill="white"/>
<path d="M86.0116 37.7651V42.5704H70.2754V23.6719H85.6564V28.4771H76.5505V30.6916H84.5478V35.2819H76.5505V37.7651H86.0116Z" fill="white"/>
<path d="M104.804 23.6719V42.5704H98.4215V28.4771H95.1816V23.6719H104.804Z" fill="white"/>
<path d="M123.436 32.5297C123.436 39.1409 119.196 43.0002 112.953 43.0002C110.714 43.0002 108.518 42.4627 107.087 41.5167L109.379 37.0662C110.488 37.8509 111.618 38.0659 112.813 38.0659C114.976 38.0659 116.483 36.9587 116.925 34.8517C115.977 35.5289 114.761 35.9052 113.168 35.9052C109.713 35.9052 106.678 33.5509 106.678 29.8529C106.678 25.8002 110.079 23.2417 114.352 23.2417C119.755 23.2417 123.436 26.3484 123.436 32.5297ZM116.731 29.5519C116.731 28.3587 115.924 27.6384 114.783 27.6384C113.642 27.6384 112.834 28.3694 112.834 29.5519C112.834 30.7344 113.642 31.4977 114.783 31.4977C115.924 31.4977 116.731 30.7452 116.731 29.5519Z" fill="white"/>
<path d="M141.304 32.5297C141.304 39.1409 137.063 43.0002 130.82 43.0002C128.581 43.0002 126.385 42.4627 124.954 41.5167L127.247 37.0662C128.355 37.8509 129.485 38.0659 130.68 38.0659C132.844 38.0659 134.361 36.9587 134.792 34.8517C133.845 35.5289 132.628 35.9052 131.035 35.9052C127.58 35.9052 124.545 33.5509 124.545 29.8529C124.545 25.8002 127.946 23.2417 132.219 23.2417C137.623 23.2417 141.304 26.3484 141.304 32.5297ZM134.598 29.5519C134.598 28.3587 133.791 27.6384 132.65 27.6384C131.509 27.6384 130.702 28.3694 130.702 29.5519C130.702 30.7344 131.509 31.4977 132.65 31.4977C133.791 31.4977 134.598 30.7452 134.598 29.5519Z" fill="white"/>
<path d="M161.237 39.3239H158.718V42.5596H152.529V39.3239H142.713V35.2711L150.742 23.6611H157.287L150.15 34.3789H152.723V31.4871H158.718V34.3789H161.237V39.3239Z" fill="white"/>
</g>
<defs>
<clipPath id="clip0_1450_4851">
<rect width="225" height="43" fill="white"/>
</clipPath>
</defs>
</svg>
