<svg width="14" height="15" viewBox="0 0 14 15" fill="none" xmlns="http://www.w3.org/2000/svg">
<path d="M13.78 8.03059L7.03033 14.7802C6.88961 14.9209 6.69874 15 6.49973 15C6.30071 15 6.10985 14.9209 5.96912 14.7802C5.8284 14.6395 5.74934 14.4486 5.74934 14.2496C5.74934 14.0506 5.8284 13.8598 5.96912 13.719L11.4392 8.24996H0.749968C0.551064 8.24996 0.360307 8.17095 0.219661 8.0303C0.0790145 7.88966 0 7.6989 0 7.5C0 7.3011 0.0790145 7.11034 0.219661 6.9697C0.360307 6.82905 0.551064 6.75004 0.749968 6.75004H11.4392L5.96912 1.28097C5.8284 1.14025 5.74934 0.949387 5.74934 0.750375C5.74934 0.551363 5.8284 0.360502 5.96912 0.21978C6.10985 0.0790571 6.30071 0 6.49973 0C6.69874 0 6.88961 0.0790571 7.03033 0.21978L13.78 6.9694C13.8498 7.03905 13.9051 7.12177 13.9428 7.21281C13.9806 7.30385 14 7.40144 14 7.5C14 7.59856 13.9806 7.69615 13.9428 7.78719C13.9051 7.87823 13.8498 7.96094 13.78 8.03059Z" fill="#A22877" fill-opacity="0.6"/>
</svg>
