<svg width="226" height="45" viewBox="0 0 226 45" fill="none" xmlns="http://www.w3.org/2000/svg">
<path d="M8.67594 10.1268V11.406H1.19531V1.11826H8.47143V2.39751H2.66991V5.55801H7.83639V6.80501H2.66991V10.1268H8.67594Z" fill="black"/>
<path d="M24.5316 11.4059V3.91316L20.7967 10.1589H20.1186L16.3944 3.95616V11.4059H14.9844V1.11816H16.1899L20.4845 8.35291L24.7146 1.11816H25.9201V11.4059H24.5208H24.5316Z" fill="black"/>
<path d="M41.2655 4.70866C41.2655 6.94466 39.651 8.29916 36.9709 8.29916H34.4199V11.4167H32.9453V1.11816H36.9601C39.6402 1.11816 41.2547 2.47266 41.2547 4.70866H41.2655ZM39.7909 4.70866C39.7909 3.23591 38.8006 2.39741 36.917 2.39741H34.4199V7.00916H36.917C38.8006 7.00916 39.7909 6.17066 39.7909 4.69791V4.70866Z" fill="black"/>
<path d="M46.6484 6.2675C46.6484 3.2575 48.9734 1 52.1378 1C55.3023 1 57.5949 3.236 57.5949 6.2675C57.5949 9.299 55.27 11.535 52.1378 11.535C49.0056 11.535 46.6484 9.28825 46.6484 6.2675ZM56.1311 6.2675C56.1311 3.9885 54.4197 2.3115 52.1378 2.3115C49.856 2.3115 48.123 3.9885 48.123 6.2675C48.123 8.5465 49.8344 10.2235 52.1378 10.2235C54.4412 10.2235 56.1311 8.5465 56.1311 6.2675Z" fill="black"/>
<path d="M78.0036 1.11826L74.5593 11.406H73.0093L70.2001 3.19301L67.3908 11.406H65.8193L62.375 1.11826H63.8926L66.6696 9.48176L69.565 1.11826H70.9212L73.7628 9.52476L76.6043 1.11826H78.0036Z" fill="black"/>
<path d="M91.1994 10.1267V11.4059H83.7188V1.11816H90.9949V2.39741H85.1934V5.55791H90.3598V6.80491H85.1934V10.1267H91.1994Z" fill="black"/>
<path d="M104.384 11.4059L102.156 8.24541C101.951 8.25616 101.725 8.27766 101.51 8.27766H98.959V11.4059H97.4844V1.11816H101.499C104.179 1.11816 105.794 2.47266 105.794 4.70866C105.794 6.29966 104.965 7.43916 103.523 7.95516L105.966 11.4059H104.362H104.384ZM104.341 4.70866C104.341 3.23591 103.35 2.39741 101.467 2.39741H98.959V7.03066H101.467C103.35 7.03066 104.341 6.18141 104.341 4.70866Z" fill="black"/>
<path d="M112.109 1.11816H113.584V11.4059H112.109V1.11816Z" fill="black"/>
<path d="M129.452 1.11816V11.4059H128.247L122.068 3.73041V11.4059H120.594V1.11816H121.799L127.978 8.79366V1.11816H129.452Z" fill="black"/>
<path d="M143.601 6.20301H145.011V10.2128C143.977 11.0835 142.557 11.5243 141.114 11.5243C137.95 11.5243 135.625 9.30976 135.625 6.25676C135.625 3.20376 137.95 0.989258 141.147 0.989258C142.783 0.989258 144.16 1.53751 145.108 2.58026L144.193 3.49401C143.342 2.66626 142.363 2.30076 141.2 2.30076C138.822 2.30076 137.089 3.95626 137.089 6.25676C137.089 8.55726 138.811 10.2128 141.179 10.2128C142.051 10.2128 142.858 10.0193 143.59 9.54626V6.19226L143.601 6.20301Z" fill="black"/>
<path d="M169.172 11.4059V3.91316L165.437 10.1589H164.759L161.035 3.95616V11.4059H159.625V1.11816H160.831L165.125 8.35291L169.366 1.11816H170.571V11.4059H169.172Z" fill="black"/>
<path d="M177.586 1.11816H179.061V11.4059H177.586V1.11816Z" fill="black"/>
<path d="M194.929 1.11816V11.4059H193.723L187.545 3.73041V11.4059H186.07V1.11816H187.276L193.454 8.79366V1.11816H194.929Z" fill="black"/>
<path d="M201.938 1.11816H206.275C209.59 1.11816 211.84 3.20366 211.84 6.26741C211.84 9.33116 209.59 11.4167 206.275 11.4167H201.938V1.11816ZM206.189 10.1267C208.74 10.1267 210.365 8.56791 210.365 6.25666C210.365 3.94541 208.729 2.38666 206.189 2.38666H203.412V10.1159H206.189V10.1267Z" fill="black"/>
<path d="M217.07 10.2343L217.619 9.084C218.383 9.772 219.697 10.2773 221.021 10.2773C222.796 10.2773 223.571 9.58925 223.571 8.68625C223.571 6.17075 217.329 7.76175 217.329 3.93475C217.329 2.34375 218.566 1 221.268 1C222.474 1 223.722 1.3225 224.583 1.91375L224.099 3.0855C223.206 2.51575 222.183 2.247 221.268 2.247C219.514 2.247 218.771 2.978 218.771 3.881C218.771 6.3965 225.014 4.827 225.014 8.60025C225.014 10.1698 223.744 11.5243 221.021 11.5243C219.449 11.5243 217.899 10.9975 217.081 10.2343H217.07Z" fill="black"/>
<path d="M0 42.0543L2.05583 37.4103C3.84257 38.4638 6.2213 39.141 8.29865 39.141C10.1069 39.141 10.7635 38.7648 10.7635 38.1198C10.7635 35.744 0.301378 37.6575 0.301378 30.6163C0.301378 27.1118 3.25057 24.2415 9.11668 24.2415C11.6569 24.2415 14.2832 24.779 16.2529 25.8863L14.337 30.498C12.4749 29.552 10.7097 29.0898 9.06286 29.0898C7.20078 29.0898 6.60878 29.6273 6.60878 30.2723C6.60878 32.5405 17.0709 30.6485 17.0709 37.6145C17.0709 41.0653 14.1217 43.9893 8.2556 43.9893C5.09113 43.9893 1.90514 43.2045 0.0107635 42.0435L0 42.0543Z" fill="black"/>
<path d="M18.9531 24.6717H25.3359V43.5702H18.9531V24.6717Z" fill="black"/>
<path d="M47.0672 24.6717V43.5702H41.8254L34.6354 34.9809V43.5702H28.4141V24.6717H33.6559L40.8459 33.2609V24.6717H47.0672Z" fill="black"/>
<path d="M49.4062 34.1208C49.4062 28.3158 53.8623 24.2415 59.9437 24.2415C63.6463 24.2415 66.5633 25.596 68.4361 28.0255L64.4106 31.616C63.3019 30.2078 61.978 29.4015 60.2774 29.4015C57.6296 29.4015 55.8428 31.2398 55.8428 34.1208C55.8428 37.0018 57.6296 38.8508 60.2774 38.8508C61.978 38.8508 63.3019 38.0445 64.4106 36.6363L68.4361 40.2268C66.574 42.6563 63.6463 44.0108 59.9437 44.0108C53.8623 44.0108 49.4062 39.9365 49.4062 34.1315V34.1208Z" fill="black"/>
<path d="M86.0097 38.7649V43.5702H70.2734V24.6717H85.6545V29.4769H76.5486V31.6914H84.5458V36.2817H76.5486V38.7649H86.0097Z" fill="black"/>
<path d="M104.802 24.6717V43.5702H98.4195V29.4769H95.1797V24.6717H104.802Z" fill="black"/>
<path d="M123.438 33.5295C123.438 40.1408 119.198 44 112.955 44C110.716 44 108.52 43.4625 107.089 42.5165L109.381 38.066C110.49 38.8508 111.62 39.0658 112.815 39.0658C114.978 39.0658 116.485 37.9585 116.927 35.8515C115.979 36.5288 114.763 36.905 113.17 36.905C109.715 36.905 106.68 34.5508 106.68 30.8528C106.68 26.8 110.081 24.2415 114.354 24.2415C119.757 24.2415 123.438 27.3483 123.438 33.5295ZM116.733 30.5518C116.733 29.3585 115.926 28.6383 114.785 28.6383C113.644 28.6383 112.836 29.3693 112.836 30.5518C112.836 31.7343 113.644 32.4975 114.785 32.4975C115.926 32.4975 116.733 31.745 116.733 30.5518Z" fill="black"/>
<path d="M141.306 33.5295C141.306 40.1408 137.065 44 130.822 44C128.583 44 126.387 43.4625 124.956 42.5165L127.249 38.066C128.357 38.8508 129.487 39.0658 130.682 39.0658C132.846 39.0658 134.363 37.9585 134.794 35.8515C133.847 36.5288 132.63 36.905 131.037 36.905C127.582 36.905 124.547 34.5508 124.547 30.8528C124.547 26.8 127.948 24.2415 132.221 24.2415C137.625 24.2415 141.306 27.3483 141.306 33.5295ZM134.6 30.5518C134.6 29.3585 133.793 28.6383 132.652 28.6383C131.511 28.6383 130.704 29.3693 130.704 30.5518C130.704 31.7343 131.511 32.4975 132.652 32.4975C133.793 32.4975 134.6 31.745 134.6 30.5518Z" fill="black"/>
<path d="M161.243 40.3237H158.724V43.5595H152.535V40.3237H142.719V36.271L150.748 24.6609H157.293L150.156 35.3787H152.729V32.4869H158.724V35.3787H161.243V40.3237Z" fill="black"/>
</svg>
