<svg width="63" height="63" viewBox="0 0 63 63" fill="none" xmlns="http://www.w3.org/2000/svg">
<path d="M31.5 0.25C48.7589 0.25 62.75 14.2411 62.75 31.5C62.75 48.7589 48.7589 62.75 31.5 62.75C14.2411 62.75 0.25 48.7589 0.25 31.5C0.25 14.2411 14.2411 0.25 31.5 0.25ZM46.7217 31.5703C46.7216 39.9381 39.9381 46.7215 31.5703 46.7217C23.2024 46.7217 16.419 39.9382 16.4189 31.5703C16.4189 23.2023 23.2023 16.4189 31.5703 16.4189C39.9382 16.4191 46.7217 23.2024 46.7217 31.5703ZM47.2217 31.5703C47.2217 22.9263 40.2143 15.9191 31.5703 15.9189C22.9262 15.9189 15.9189 22.9262 15.9189 31.5703C15.919 40.2143 22.9263 47.2217 31.5703 47.2217C40.2142 47.2215 47.2216 40.2142 47.2217 31.5703Z" stroke="#D46AAF" stroke-width="0.5"/>
<circle cx="31.5" cy="31.5" r="6.5" fill="#A22877"/>
<circle cx="31" cy="32" r="22.75" stroke="#D46AAF" stroke-width="0.5"/>
</svg>
