<svg width="31" height="31" viewBox="0 0 31 31" fill="none" xmlns="http://www.w3.org/2000/svg">
<path d="M2.70711 1.29289L2 0.585786L0.585786 2L1.29289 2.70711L2 2L2.70711 1.29289ZM6.00115 29.0002H5.00115V31.0002H6.00115V30.0002V29.0002ZM30.0012 30.0002V31.0002C30.5534 31.0002 31.0012 30.5525 31.0012 30.0002H30.0012ZM2 2L1.29289 2.70711L29.2929 30.7071L30 30L30.7071 29.2929L2.70711 1.29289L2 2ZM6.00115 30.0002V31.0002H30.0012V30.0002V29.0002H6.00115V30.0002ZM30.0012 30.0002H31.0012V6.00022H30.0012H29.0012V30.0002H30.0012Z" fill="#002561"/>
</svg>
