<svg width="31" height="31" viewBox="0 0 31 31" fill="none" xmlns="http://www.w3.org/2000/svg">
<path d="M2.70711 29.7071L2 30.4142L0.585786 29L1.29289 28.2929L2 29L2.70711 29.7071ZM6.00115 1.99978H5.00115V-0.000219345H6.00115V0.999781V1.99978ZM30.0012 0.999781V-0.000219345C30.5534 -0.000219345 31.0012 0.447496 31.0012 0.999781H30.0012ZM2 29L1.29289 28.2929L29.2929 0.292892L30 1L30.7071 1.70711L2.70711 29.7071L2 29ZM6.00115 0.999781V-0.000219345H30.0012V0.999781V1.99978H6.00115V0.999781ZM30.0012 0.999781H31.0012V24.9998H30.0012H29.0012V0.999781H30.0012Z" fill="#002561"/>
</svg>
