<svg width="312" height="720" viewBox="0 0 312 720" fill="none" xmlns="http://www.w3.org/2000/svg">
<line x1="312" y1="456" x2="1.31012e-06" y2="456" stroke="#E5D0DE" stroke-width="4"/>
<line x1="312" y1="269" x2="1.31012e-06" y2="269" stroke="#E5D0DE" stroke-width="4"/>
<rect x="2" y="645" width="569" height="308" rx="18" transform="rotate(-90 2 645)" stroke="#E5D0DE" stroke-width="4"/>
<path d="M25 20C25 8.9543 33.9543 0 45 0L268 0C279.046 0 288 8.95431 288 20V75L25 75L25 20Z" fill="url(#paint0_linear_4286_11142)"/>
<path d="M25 75L288 75V145C288 156.046 279.046 165 268 165H45C33.9543 165 25 156.046 25 145L25 75Z" fill="#FDE0F3"/>
<path d="M76.3897 115L75.3117 112.55H70.1037L69.0257 115H67.5837L72.0217 105.2H73.4077L77.8597 115H76.3897ZM70.5937 111.43H74.8217L72.7077 106.628L70.5937 111.43ZM79.3216 115V105.2H80.7216V115H79.3216ZM83.7955 113.166C84.3275 113.166 84.7055 113.572 84.7055 114.118C84.7055 114.398 84.6495 114.608 84.4675 115.126L83.8095 117.072H82.9275L83.4455 114.986C83.0955 114.86 82.8575 114.538 82.8575 114.118C82.8575 113.558 83.2635 113.166 83.7955 113.166ZM90.5872 115V105.2H94.7172C97.8672 105.2 100.009 107.188 100.009 110.1C100.009 113.012 97.8672 115 94.7172 115H90.5872ZM91.9872 113.782H94.6332C97.0552 113.782 98.6092 112.298 98.6092 110.1C98.6092 107.902 97.0552 106.418 94.6332 106.418H91.9872V113.782ZM104.66 107.51C106.69 107.51 107.838 108.49 107.838 110.52V115H106.564V114.02C106.116 114.692 105.29 115.084 104.128 115.084C102.448 115.084 101.384 114.188 101.384 112.9C101.384 111.71 102.154 110.73 104.366 110.73H106.494V110.464C106.494 109.33 105.836 108.672 104.506 108.672C103.624 108.672 102.728 108.98 102.154 109.47L101.594 108.462C102.364 107.846 103.47 107.51 104.66 107.51ZM104.352 114.048C105.36 114.048 106.158 113.586 106.494 112.732V111.696H104.422C103.092 111.696 102.714 112.214 102.714 112.844C102.714 113.586 103.33 114.048 104.352 114.048ZM114.077 113.6L114.497 114.566C114.091 114.916 113.475 115.084 112.873 115.084C111.375 115.084 110.521 114.258 110.521 112.76V108.686H109.261V107.58H110.521V105.956H111.865V107.58H113.993V108.686H111.865V112.704C111.865 113.502 112.285 113.95 113.027 113.95C113.419 113.95 113.797 113.824 114.077 113.6ZM118.824 107.51C120.854 107.51 122.002 108.49 122.002 110.52V115H120.728V114.02C120.28 114.692 119.454 115.084 118.292 115.084C116.612 115.084 115.548 114.188 115.548 112.9C115.548 111.71 116.318 110.73 118.53 110.73H120.658V110.464C120.658 109.33 120 108.672 118.67 108.672C117.788 108.672 116.892 108.98 116.318 109.47L115.758 108.462C116.528 107.846 117.634 107.51 118.824 107.51ZM118.516 114.048C119.524 114.048 120.322 113.586 120.658 112.732V111.696H118.586C117.256 111.696 116.878 112.214 116.878 112.844C116.878 113.586 117.494 114.048 118.516 114.048ZM131.301 115.112C129.803 115.112 128.333 114.608 127.549 113.88L128.067 112.788C128.795 113.446 130.041 113.922 131.301 113.922C132.995 113.922 133.723 113.264 133.723 112.41C133.723 110.016 127.787 111.528 127.787 107.888C127.787 106.376 128.963 105.088 131.539 105.088C132.687 105.088 133.877 105.396 134.689 105.956L134.227 107.076C133.373 106.53 132.407 106.278 131.539 106.278C129.873 106.278 129.159 106.978 129.159 107.832C129.159 110.226 135.095 108.728 135.095 112.326C135.095 113.824 133.891 115.112 131.301 115.112ZM140.178 115.084C137.896 115.084 136.258 113.502 136.258 111.29C136.258 109.078 137.896 107.51 140.178 107.51C141.508 107.51 142.614 108.056 143.202 109.092L142.18 109.75C141.704 109.022 140.976 108.686 140.164 108.686C138.708 108.686 137.616 109.708 137.616 111.29C137.616 112.9 138.708 113.908 140.164 113.908C140.976 113.908 141.704 113.572 142.18 112.844L143.202 113.488C142.614 114.524 141.508 115.084 140.178 115.084ZM145.614 106.152C145.096 106.152 144.704 105.774 144.704 105.284C144.704 104.794 145.096 104.402 145.614 104.402C146.132 104.402 146.524 104.78 146.524 105.256C146.524 105.76 146.146 106.152 145.614 106.152ZM144.942 115V107.58H146.286V115H144.942ZM155.558 111.332C155.558 111.444 155.544 111.612 155.53 111.738H149.51C149.678 113.04 150.728 113.908 152.198 113.908C153.066 113.908 153.794 113.614 154.34 113.012L155.082 113.88C154.41 114.664 153.388 115.084 152.156 115.084C149.762 115.084 148.166 113.502 148.166 111.29C148.166 109.092 149.748 107.51 151.89 107.51C154.032 107.51 155.558 109.05 155.558 111.332ZM151.89 108.644C150.602 108.644 149.65 109.512 149.51 110.772H154.27C154.13 109.526 153.192 108.644 151.89 108.644ZM161.386 107.51C163.192 107.51 164.466 108.546 164.466 110.73V115H163.122V110.884C163.122 109.428 162.394 108.714 161.12 108.714C159.692 108.714 158.768 109.568 158.768 111.178V115H157.424V107.58H158.712V108.7C159.258 107.944 160.21 107.51 161.386 107.51ZM170.229 115.084C167.947 115.084 166.309 113.502 166.309 111.29C166.309 109.078 167.947 107.51 170.229 107.51C171.559 107.51 172.665 108.056 173.253 109.092L172.231 109.75C171.755 109.022 171.027 108.686 170.215 108.686C168.759 108.686 167.667 109.708 167.667 111.29C167.667 112.9 168.759 113.908 170.215 113.908C171.027 113.908 171.755 113.572 172.231 112.844L173.253 113.488C172.665 114.524 171.559 115.084 170.229 115.084ZM181.589 111.332C181.589 111.444 181.575 111.612 181.561 111.738H175.541C175.709 113.04 176.759 113.908 178.229 113.908C179.097 113.908 179.825 113.614 180.371 113.012L181.113 113.88C180.441 114.664 179.419 115.084 178.187 115.084C175.793 115.084 174.197 113.502 174.197 111.29C174.197 109.092 175.779 107.51 177.921 107.51C180.063 107.51 181.589 109.05 181.589 111.332ZM177.921 108.644C176.633 108.644 175.681 109.512 175.541 110.772H180.301C180.161 109.526 179.223 108.644 177.921 108.644ZM183.792 113.166C184.324 113.166 184.702 113.572 184.702 114.118C184.702 114.398 184.646 114.608 184.464 115.126L183.806 117.072H182.924L183.442 114.986C183.092 114.86 182.854 114.538 182.854 114.118C182.854 113.558 183.26 113.166 183.792 113.166ZM194.965 115.112C191.997 115.112 189.785 112.998 189.785 110.1C189.785 107.202 191.997 105.088 194.979 105.088C196.491 105.088 197.807 105.606 198.703 106.614L197.793 107.496C197.037 106.698 196.113 106.334 195.035 106.334C192.823 106.334 191.185 107.93 191.185 110.1C191.185 112.27 192.823 113.866 195.035 113.866C196.113 113.866 197.037 113.488 197.793 112.69L198.703 113.572C197.807 114.58 196.491 115.112 194.965 115.112ZM200.504 115V104.612H201.848V115H200.504ZM207.593 115.084C205.367 115.084 203.729 113.502 203.729 111.29C203.729 109.078 205.367 107.51 207.593 107.51C209.819 107.51 211.443 109.078 211.443 111.29C211.443 113.502 209.819 115.084 207.593 115.084ZM207.593 113.908C209.021 113.908 210.085 112.872 210.085 111.29C210.085 109.708 209.021 108.686 207.593 108.686C206.165 108.686 205.087 109.708 205.087 111.29C205.087 112.872 206.165 113.908 207.593 113.908ZM218.873 107.58H220.217V115H218.943V113.88C218.397 114.65 217.473 115.084 216.423 115.084C214.505 115.084 213.231 114.034 213.231 111.85V107.58H214.575V111.696C214.575 113.152 215.303 113.88 216.577 113.88C217.977 113.88 218.873 113.012 218.873 111.416V107.58ZM228.432 104.612H229.776V115H228.488V113.824C227.886 114.664 226.934 115.084 225.842 115.084C223.672 115.084 222.09 113.558 222.09 111.29C222.09 109.022 223.672 107.51 225.842 107.51C226.892 107.51 227.816 107.902 228.432 108.7V104.612ZM225.954 113.908C227.368 113.908 228.446 112.872 228.446 111.29C228.446 109.708 227.368 108.686 225.954 108.686C224.526 108.686 223.448 109.708 223.448 111.29C223.448 112.872 224.526 113.908 225.954 113.908ZM244.199 114.258L243.443 115.154L242.141 113.852C241.287 114.678 240.167 115.112 238.865 115.112C236.877 115.112 235.435 114.062 235.435 112.564C235.435 111.36 236.121 110.52 237.815 109.554C236.933 108.672 236.639 108.042 236.639 107.314C236.639 105.998 237.675 105.116 239.285 105.116C240.769 105.116 241.721 105.886 241.721 107.16C241.721 108.154 241.133 108.868 239.635 109.722L242.057 112.13C242.323 111.626 242.533 111.038 242.659 110.352L243.737 110.702C243.569 111.57 243.275 112.326 242.883 112.942L244.199 114.258ZM239.285 106.096C238.403 106.096 237.885 106.586 237.885 107.286C237.885 107.79 238.081 108.154 238.879 108.966C240.167 108.238 240.587 107.79 240.587 107.174C240.587 106.53 240.125 106.096 239.285 106.096ZM238.949 113.992C239.887 113.992 240.713 113.684 241.343 113.068L238.557 110.296C237.185 111.066 236.751 111.64 236.751 112.424C236.751 113.362 237.633 113.992 238.949 113.992ZM80.019 133.112C77.051 133.112 74.839 130.998 74.839 128.1C74.839 125.202 77.051 123.088 80.033 123.088C81.545 123.088 82.861 123.606 83.757 124.614L82.847 125.496C82.091 124.698 81.167 124.334 80.089 124.334C77.877 124.334 76.239 125.93 76.239 128.1C76.239 130.27 77.877 131.866 80.089 131.866C81.167 131.866 82.091 131.488 82.847 130.69L83.757 131.572C82.861 132.58 81.545 133.112 80.019 133.112ZM90.8082 125.58H92.1242L88.5262 133.742C87.8682 135.31 87.0142 135.8 85.8802 135.8C85.1662 135.8 84.4382 135.562 83.9762 135.114L84.5502 134.106C84.9142 134.456 85.3762 134.652 85.8802 134.652C86.5242 134.652 86.9302 134.358 87.2942 133.504L87.5322 132.986L84.2562 125.58H85.6562L88.2462 131.516L90.8082 125.58ZM97.3125 125.51C99.4825 125.51 101.064 127.022 101.064 129.29C101.064 131.558 99.4825 133.084 97.3125 133.084C96.2205 133.084 95.2685 132.664 94.6665 131.824V133H93.3785V122.612H94.7225V126.7C95.3385 125.902 96.2625 125.51 97.3125 125.51ZM97.2005 131.908C98.6285 131.908 99.7065 130.872 99.7065 129.29C99.7065 127.708 98.6285 126.686 97.2005 126.686C95.7865 126.686 94.7085 127.708 94.7085 129.29C94.7085 130.872 95.7865 131.908 97.2005 131.908ZM109.627 129.332C109.627 129.444 109.613 129.612 109.599 129.738H103.579C103.747 131.04 104.797 131.908 106.267 131.908C107.135 131.908 107.863 131.614 108.409 131.012L109.151 131.88C108.479 132.664 107.457 133.084 106.225 133.084C103.831 133.084 102.235 131.502 102.235 129.29C102.235 127.092 103.817 125.51 105.959 125.51C108.101 125.51 109.627 127.05 109.627 129.332ZM105.959 126.644C104.671 126.644 103.719 127.512 103.579 128.772H108.339C108.199 127.526 107.261 126.644 105.959 126.644ZM112.782 126.826C113.258 125.958 114.182 125.51 115.484 125.51V126.812C115.372 126.798 115.274 126.798 115.176 126.798C113.734 126.798 112.838 127.68 112.838 129.304V133H111.494V125.58H112.782V126.826ZM119.323 133.084C118.091 133.084 116.873 132.706 116.257 132.216L116.817 131.152C117.447 131.6 118.455 131.922 119.421 131.922C120.667 131.922 121.185 131.544 121.185 130.914C121.185 129.248 116.495 130.69 116.495 127.736C116.495 126.406 117.685 125.51 119.589 125.51C120.555 125.51 121.647 125.762 122.291 126.182L121.717 127.246C121.045 126.812 120.303 126.658 119.575 126.658C118.399 126.658 117.825 127.092 117.825 127.68C117.825 129.43 122.529 128.002 122.529 130.886C122.529 132.23 121.297 133.084 119.323 133.084ZM130.915 129.332C130.915 129.444 130.901 129.612 130.887 129.738H124.867C125.035 131.04 126.085 131.908 127.555 131.908C128.423 131.908 129.151 131.614 129.697 131.012L130.439 131.88C129.767 132.664 128.745 133.084 127.513 133.084C125.119 133.084 123.523 131.502 123.523 129.29C123.523 127.092 125.105 125.51 127.247 125.51C129.389 125.51 130.915 127.05 130.915 129.332ZM127.247 126.644C125.959 126.644 125.007 127.512 124.867 128.772H129.627C129.487 127.526 128.549 126.644 127.247 126.644ZM136.015 133.084C133.733 133.084 132.095 131.502 132.095 129.29C132.095 127.078 133.733 125.51 136.015 125.51C137.345 125.51 138.451 126.056 139.039 127.092L138.017 127.75C137.541 127.022 136.813 126.686 136.001 126.686C134.545 126.686 133.453 127.708 133.453 129.29C133.453 130.9 134.545 131.908 136.001 131.908C136.813 131.908 137.541 131.572 138.017 130.844L139.039 131.488C138.451 132.524 137.345 133.084 136.015 133.084ZM146.351 125.58H147.695V133H146.421V131.88C145.875 132.65 144.951 133.084 143.901 133.084C141.983 133.084 140.709 132.034 140.709 129.85V125.58H142.053V129.696C142.053 131.152 142.781 131.88 144.055 131.88C145.455 131.88 146.351 131.012 146.351 129.416V125.58ZM151.541 126.826C152.017 125.958 152.941 125.51 154.243 125.51V126.812C154.131 126.798 154.033 126.798 153.935 126.798C152.493 126.798 151.597 127.68 151.597 129.304V133H150.253V125.58H151.541V126.826ZM156.572 124.152C156.054 124.152 155.662 123.774 155.662 123.284C155.662 122.794 156.054 122.402 156.572 122.402C157.09 122.402 157.482 122.78 157.482 123.256C157.482 123.76 157.104 124.152 156.572 124.152ZM155.9 133V125.58H157.244V133H155.9ZM163.562 131.6L163.982 132.566C163.576 132.916 162.96 133.084 162.358 133.084C160.86 133.084 160.006 132.258 160.006 130.76V126.686H158.746V125.58H160.006V123.956H161.35V125.58H163.478V126.686H161.35V130.704C161.35 131.502 161.77 131.95 162.512 131.95C162.904 131.95 163.282 131.824 163.562 131.6ZM170.72 125.58H172.036L168.438 133.742C167.78 135.31 166.926 135.8 165.792 135.8C165.078 135.8 164.35 135.562 163.888 135.114L164.462 134.106C164.826 134.456 165.288 134.652 165.792 134.652C166.436 134.652 166.842 134.358 167.206 133.504L167.444 132.986L164.168 125.58H165.568L168.158 131.516L170.72 125.58ZM183.756 129.332C183.756 129.444 183.742 129.612 183.728 129.738H177.708C177.876 131.04 178.926 131.908 180.396 131.908C181.264 131.908 181.992 131.614 182.538 131.012L183.28 131.88C182.608 132.664 181.586 133.084 180.354 133.084C177.96 133.084 176.364 131.502 176.364 129.29C176.364 127.092 177.946 125.51 180.088 125.51C182.23 125.51 183.756 127.05 183.756 129.332ZM180.088 126.644C178.8 126.644 177.848 127.512 177.708 128.772H182.468C182.328 127.526 181.39 126.644 180.088 126.644ZM185.623 133V122.612H186.967V133H185.623ZM196.239 129.332C196.239 129.444 196.225 129.612 196.211 129.738H190.191C190.359 131.04 191.409 131.908 192.879 131.908C193.747 131.908 194.475 131.614 195.021 131.012L195.763 131.88C195.091 132.664 194.069 133.084 192.837 133.084C190.443 133.084 188.847 131.502 188.847 129.29C188.847 127.092 190.429 125.51 192.571 125.51C194.713 125.51 196.239 127.05 196.239 129.332ZM192.571 126.644C191.283 126.644 190.331 127.512 190.191 128.772H194.951C194.811 127.526 193.873 126.644 192.571 126.644ZM201.339 133.084C199.057 133.084 197.419 131.502 197.419 129.29C197.419 127.078 199.057 125.51 201.339 125.51C202.669 125.51 203.775 126.056 204.363 127.092L203.341 127.75C202.865 127.022 202.137 126.686 201.325 126.686C199.869 126.686 198.777 127.708 198.777 129.29C198.777 130.9 199.869 131.908 201.325 131.908C202.137 131.908 202.865 131.572 203.341 130.844L204.363 131.488C203.775 132.524 202.669 133.084 201.339 133.084ZM209.951 131.6L210.371 132.566C209.965 132.916 209.349 133.084 208.747 133.084C207.249 133.084 206.395 132.258 206.395 130.76V126.686H205.135V125.58H206.395V123.956H207.739V125.58H209.867V126.686H207.739V130.704C207.739 131.502 208.159 131.95 208.901 131.95C209.293 131.95 209.671 131.824 209.951 131.6ZM212.668 124.152C212.15 124.152 211.758 123.774 211.758 123.284C211.758 122.794 212.15 122.402 212.668 122.402C213.186 122.402 213.578 122.78 213.578 123.256C213.578 123.76 213.2 124.152 212.668 124.152ZM211.996 133V125.58H213.34V133H211.996ZM221.156 125.58H222.472L219.224 133H217.852L214.604 125.58H216.004L218.552 131.53L221.156 125.58ZM230.227 129.332C230.227 129.444 230.213 129.612 230.199 129.738H224.179C224.347 131.04 225.397 131.908 226.867 131.908C227.735 131.908 228.463 131.614 229.009 131.012L229.751 131.88C229.079 132.664 228.057 133.084 226.825 133.084C224.431 133.084 222.835 131.502 222.835 129.29C222.835 127.092 224.417 125.51 226.559 125.51C228.701 125.51 230.227 127.05 230.227 129.332ZM226.559 126.644C225.271 126.644 224.319 127.512 224.179 128.772H228.939C228.799 127.526 227.861 126.644 226.559 126.644ZM234.221 133.084C232.989 133.084 231.771 132.706 231.155 132.216L231.715 131.152C232.345 131.6 233.353 131.922 234.319 131.922C235.565 131.922 236.083 131.544 236.083 130.914C236.083 129.248 231.393 130.69 231.393 127.736C231.393 126.406 232.583 125.51 234.487 125.51C235.453 125.51 236.545 125.762 237.189 126.182L236.615 127.246C235.943 126.812 235.201 126.658 234.473 126.658C233.297 126.658 232.723 127.092 232.723 127.68C232.723 129.43 237.427 128.002 237.427 130.886C237.427 132.23 236.195 133.084 234.221 133.084Z" fill="black"/>
<path d="M64.6956 34.544H58.5996V37.952H64.0076V39.712H58.5996V44H56.5196V32.8H64.6956V34.544ZM72.5528 35.456H74.5528V44H72.6488V42.912C72.0088 43.696 71.0008 44.112 69.8968 44.112C67.7048 44.112 66.2168 42.912 66.2168 40.336V35.456H68.2168V40.064C68.2168 41.616 68.9528 42.352 70.2168 42.352C71.6088 42.352 72.5528 41.488 72.5528 39.776V35.456ZM81.7474 42.112L82.3074 43.536C81.8274 43.92 81.1074 44.112 80.3874 44.112C78.5154 44.112 77.4434 43.12 77.4434 41.232V37.12H76.0354V35.52H77.4434V33.568H79.4434V35.52H81.7314V37.12H79.4434V41.184C79.4434 42.016 79.8594 42.464 80.6274 42.464C81.0434 42.464 81.4434 42.352 81.7474 42.112ZM90.2246 35.456H92.2246V44H90.3206V42.912C89.6806 43.696 88.6726 44.112 87.5686 44.112C85.3766 44.112 83.8886 42.912 83.8886 40.336V35.456H85.8886V40.064C85.8886 41.616 86.6246 42.352 87.8886 42.352C89.2806 42.352 90.2246 41.488 90.2246 39.776V35.456ZM96.7473 36.704C97.3233 35.808 98.3633 35.36 99.7873 35.36V37.264C99.6113 37.232 99.4673 37.216 99.3233 37.216C97.8033 37.216 96.8433 38.112 96.8433 39.856V44H94.8433V35.456H96.7473V36.704ZM109.438 39.776C109.438 39.936 109.422 40.176 109.406 40.368H102.702C102.942 41.616 103.982 42.416 105.47 42.416C106.43 42.416 107.182 42.112 107.79 41.488L108.862 42.72C108.094 43.632 106.894 44.112 105.422 44.112C102.558 44.112 100.702 42.272 100.702 39.728C100.702 37.184 102.574 35.36 105.118 35.36C107.614 35.36 109.438 37.104 109.438 39.776ZM105.118 36.96C103.822 36.96 102.878 37.792 102.686 39.04H107.534C107.374 37.808 106.43 36.96 105.118 36.96ZM111.083 40.384V38.72H115.483V40.384H111.083ZM122.471 32.8C125.415 32.8 127.239 34.304 127.239 36.784C127.239 39.248 125.415 40.768 122.471 40.768H119.943V44H117.863V32.8H122.471ZM122.375 39.008C124.199 39.008 125.143 38.192 125.143 36.784C125.143 35.376 124.199 34.56 122.375 34.56H119.943V39.008H122.375ZM130.95 36.704C131.526 35.808 132.566 35.36 133.99 35.36V37.264C133.814 37.232 133.67 37.216 133.526 37.216C132.006 37.216 131.046 38.112 131.046 39.856V44H129.046V35.456H130.95V36.704ZM139.449 44.112C136.825 44.112 134.905 42.288 134.905 39.728C134.905 37.168 136.825 35.36 139.449 35.36C142.105 35.36 144.009 37.168 144.009 39.728C144.009 42.288 142.105 44.112 139.449 44.112ZM139.449 42.4C140.905 42.4 141.993 41.36 141.993 39.728C141.993 38.096 140.905 37.056 139.449 37.056C138.009 37.056 136.921 38.096 136.921 39.728C136.921 41.36 138.009 42.4 139.449 42.4ZM149.761 44.112C147.137 44.112 145.217 42.288 145.217 39.728C145.217 37.168 147.137 35.36 149.761 35.36C152.417 35.36 154.321 37.168 154.321 39.728C154.321 42.288 152.417 44.112 149.761 44.112ZM149.761 42.4C151.217 42.4 152.305 41.36 152.305 39.728C152.305 38.096 151.217 37.056 149.761 37.056C148.321 37.056 147.233 38.096 147.233 39.728C147.233 41.36 148.321 42.4 149.761 42.4ZM159.706 33.632C158.874 33.632 158.442 34.096 158.442 35.008V35.52H160.794V37.12H158.506V44H156.506V37.12H155.098V35.52H156.506V34.976C156.506 33.184 157.578 32.016 159.562 32.016C160.25 32.016 160.922 32.16 161.37 32.48L160.81 33.984C160.506 33.776 160.122 33.632 159.706 33.632ZM171.938 44.16C168.514 44.16 165.954 41.744 165.954 38.4C165.954 35.056 168.514 32.64 171.954 32.64C173.778 32.64 175.346 33.296 176.386 34.512L175.042 35.776C174.226 34.896 173.218 34.464 172.05 34.464C169.73 34.464 168.05 36.096 168.05 38.4C168.05 40.704 169.73 42.336 172.05 42.336C173.218 42.336 174.226 41.904 175.042 41.008L176.386 42.288C175.346 43.504 173.778 44.16 171.938 44.16ZM184.225 35.456H186.225V44H184.321V42.912C183.681 43.696 182.673 44.112 181.569 44.112C179.377 44.112 177.889 42.912 177.889 40.336V35.456H179.889V40.064C179.889 41.616 180.625 42.352 181.889 42.352C183.281 42.352 184.225 41.488 184.225 39.776V35.456ZM190.747 36.704C191.323 35.808 192.363 35.36 193.787 35.36V37.264C193.611 37.232 193.467 37.216 193.323 37.216C191.803 37.216 190.843 38.112 190.843 39.856V44H188.843V35.456H190.747V36.704ZM197.388 36.704C197.964 35.808 199.004 35.36 200.428 35.36V37.264C200.252 37.232 200.108 37.216 199.964 37.216C198.444 37.216 197.484 38.112 197.484 39.856V44H195.484V35.456H197.388V36.704ZM203.133 34.048C202.397 34.048 201.853 33.52 201.853 32.848C201.853 32.176 202.397 31.648 203.133 31.648C203.869 31.648 204.413 32.144 204.413 32.8C204.413 33.504 203.885 34.048 203.133 34.048ZM202.125 44V35.456H204.125V44H202.125ZM210.67 44.112C207.966 44.112 206.046 42.288 206.046 39.728C206.046 37.168 207.966 35.36 210.67 35.36C212.334 35.36 213.661 36.048 214.318 37.344L212.782 38.24C212.27 37.424 211.502 37.056 210.654 37.056C209.182 37.056 208.062 38.08 208.062 39.728C208.062 41.392 209.182 42.4 210.654 42.4C211.502 42.4 212.27 42.032 212.782 41.216L214.318 42.112C213.661 43.392 212.334 44.112 210.67 44.112ZM222.318 35.456H224.318V44H222.414V42.912C221.774 43.696 220.766 44.112 219.662 44.112C217.47 44.112 215.982 42.912 215.982 40.336V35.456H217.982V40.064C217.982 41.616 218.718 42.352 219.982 42.352C221.374 42.352 222.318 41.488 222.318 39.776V35.456ZM226.937 44V32.128H228.937V44H226.937ZM237.834 35.456H239.834V44H237.93V42.912C237.29 43.696 236.282 44.112 235.178 44.112C232.986 44.112 231.498 42.912 231.498 40.336V35.456H233.498V40.064C233.498 41.616 234.234 42.352 235.498 42.352C236.89 42.352 237.834 41.488 237.834 39.776V35.456ZM253.237 35.36C255.301 35.36 256.741 36.528 256.741 39.104V44H254.741V39.36C254.741 37.84 254.037 37.104 252.821 37.104C251.509 37.104 250.597 37.968 250.597 39.664V44H248.597V39.36C248.597 37.84 247.893 37.104 246.677 37.104C245.349 37.104 244.453 37.968 244.453 39.664V44H242.453V35.456H244.357V36.544C244.997 35.776 245.989 35.36 247.157 35.36C248.405 35.36 249.445 35.824 250.037 36.784C250.725 35.904 251.877 35.36 253.237 35.36Z" fill="white"/>
<path d="M25 205C25 193.954 33.9543 185 45 185L268 185C279.046 185 288 193.954 288 205V260H25L25 205Z" fill="url(#paint1_linear_4286_11142)"/>
<path d="M25 260H288V330C288 341.046 279.046 350 268 350H45C33.9543 350 25 341.046 25 330L25 260Z" fill="#E3CEEF"/>
<path d="M57.9604 302.112C54.9924 302.112 52.7804 299.998 52.7804 297.1C52.7804 294.202 54.9924 292.088 57.9744 292.088C59.4864 292.088 60.8024 292.606 61.6984 293.614L60.7884 294.496C60.0324 293.698 59.1084 293.334 58.0304 293.334C55.8184 293.334 54.1804 294.93 54.1804 297.1C54.1804 299.27 55.8184 300.866 58.0304 300.866C59.1084 300.866 60.0324 300.488 60.7884 299.69L61.6984 300.572C60.8024 301.58 59.4864 302.112 57.9604 302.112ZM66.3631 302.084C64.1371 302.084 62.4991 300.502 62.4991 298.29C62.4991 296.078 64.1371 294.51 66.3631 294.51C68.5891 294.51 70.2131 296.078 70.2131 298.29C70.2131 300.502 68.5891 302.084 66.3631 302.084ZM66.3631 300.908C67.7911 300.908 68.8551 299.872 68.8551 298.29C68.8551 296.708 67.7911 295.686 66.3631 295.686C64.9351 295.686 63.8571 296.708 63.8571 298.29C63.8571 299.872 64.9351 300.908 66.3631 300.908ZM73.3599 295.826C73.8359 294.958 74.7599 294.51 76.0619 294.51V295.812C75.9499 295.798 75.8519 295.798 75.7539 295.798C74.3119 295.798 73.4159 296.68 73.4159 298.304V302H72.0719V294.58H73.3599V295.826ZM81.6523 294.51C83.8223 294.51 85.4043 296.022 85.4043 298.29C85.4043 300.572 83.8223 302.084 81.6523 302.084C80.6023 302.084 79.6783 301.678 79.0623 300.88V304.716H77.7183V294.58H79.0063V295.756C79.6083 294.93 80.5603 294.51 81.6523 294.51ZM81.5403 300.908C82.9683 300.908 84.0463 299.872 84.0463 298.29C84.0463 296.722 82.9683 295.686 81.5403 295.686C80.1263 295.686 79.0483 296.722 79.0483 298.29C79.0483 299.872 80.1263 300.908 81.5403 300.908ZM90.4393 302.084C88.2133 302.084 86.5753 300.502 86.5753 298.29C86.5753 296.078 88.2133 294.51 90.4393 294.51C92.6653 294.51 94.2893 296.078 94.2893 298.29C94.2893 300.502 92.6653 302.084 90.4393 302.084ZM90.4393 300.908C91.8673 300.908 92.9313 299.872 92.9313 298.29C92.9313 296.708 91.8673 295.686 90.4393 295.686C89.0113 295.686 87.9333 296.708 87.9333 298.29C87.9333 299.872 89.0113 300.908 90.4393 300.908ZM97.436 295.826C97.912 294.958 98.836 294.51 100.138 294.51V295.812C100.026 295.798 99.928 295.798 99.83 295.798C98.388 295.798 97.492 296.68 97.492 298.304V302H96.148V294.58H97.436V295.826ZM104.483 294.51C106.513 294.51 107.661 295.49 107.661 297.52V302H106.387V301.02C105.939 301.692 105.113 302.084 103.951 302.084C102.271 302.084 101.207 301.188 101.207 299.9C101.207 298.71 101.977 297.73 104.189 297.73H106.317V297.464C106.317 296.33 105.659 295.672 104.329 295.672C103.447 295.672 102.551 295.98 101.977 296.47L101.417 295.462C102.187 294.846 103.293 294.51 104.483 294.51ZM104.175 301.048C105.183 301.048 105.981 300.586 106.317 299.732V298.696H104.245C102.915 298.696 102.537 299.214 102.537 299.844C102.537 300.586 103.153 301.048 104.175 301.048ZM113.9 300.6L114.32 301.566C113.914 301.916 113.298 302.084 112.696 302.084C111.198 302.084 110.344 301.258 110.344 299.76V295.686H109.084V294.58H110.344V292.956H111.688V294.58H113.816V295.686H111.688V299.704C111.688 300.502 112.108 300.95 112.85 300.95C113.242 300.95 113.62 300.824 113.9 300.6ZM122.405 298.332C122.405 298.444 122.391 298.612 122.377 298.738H116.357C116.525 300.04 117.575 300.908 119.045 300.908C119.913 300.908 120.641 300.614 121.187 300.012L121.929 300.88C121.257 301.664 120.235 302.084 119.003 302.084C116.609 302.084 115.013 300.502 115.013 298.29C115.013 296.092 116.595 294.51 118.737 294.51C120.879 294.51 122.405 296.05 122.405 298.332ZM118.737 295.644C117.449 295.644 116.497 296.512 116.357 297.772H121.117C120.977 296.526 120.039 295.644 118.737 295.644ZM131.783 300.6L132.203 301.566C131.797 301.916 131.181 302.084 130.579 302.084C129.081 302.084 128.227 301.258 128.227 299.76V295.686H126.967V294.58H128.227V292.956H129.571V294.58H131.699V295.686H129.571V299.704C129.571 300.502 129.991 300.95 130.733 300.95C131.125 300.95 131.503 300.824 131.783 300.6ZM135.116 295.826C135.592 294.958 136.516 294.51 137.818 294.51V295.812C137.706 295.798 137.608 295.798 137.51 295.798C136.068 295.798 135.172 296.68 135.172 298.304V302H133.828V294.58H135.116V295.826ZM142.163 294.51C144.193 294.51 145.341 295.49 145.341 297.52V302H144.067V301.02C143.619 301.692 142.793 302.084 141.631 302.084C139.951 302.084 138.887 301.188 138.887 299.9C138.887 298.71 139.657 297.73 141.869 297.73H143.997V297.464C143.997 296.33 143.339 295.672 142.009 295.672C141.127 295.672 140.231 295.98 139.657 296.47L139.097 295.462C139.867 294.846 140.973 294.51 142.163 294.51ZM141.855 301.048C142.863 301.048 143.661 300.586 143.997 299.732V298.696H141.925C140.595 298.696 140.217 299.214 140.217 299.844C140.217 300.586 140.833 301.048 141.855 301.048ZM148.5 293.152C147.982 293.152 147.59 292.774 147.59 292.284C147.59 291.794 147.982 291.402 148.5 291.402C149.018 291.402 149.41 291.78 149.41 292.256C149.41 292.76 149.032 293.152 148.5 293.152ZM147.828 302V294.58H149.172V302H147.828ZM155.7 294.51C157.506 294.51 158.78 295.546 158.78 297.73V302H157.436V297.884C157.436 296.428 156.708 295.714 155.434 295.714C154.006 295.714 153.082 296.568 153.082 298.178V302H151.738V294.58H153.026V295.7C153.572 294.944 154.524 294.51 155.7 294.51ZM161.939 293.152C161.421 293.152 161.029 292.774 161.029 292.284C161.029 291.794 161.421 291.402 161.939 291.402C162.457 291.402 162.849 291.78 162.849 292.256C162.849 292.76 162.471 293.152 161.939 293.152ZM161.267 302V294.58H162.611V302H161.267ZM169.139 294.51C170.945 294.51 172.219 295.546 172.219 297.73V302H170.875V297.884C170.875 296.428 170.147 295.714 168.873 295.714C167.445 295.714 166.521 296.568 166.521 298.178V302H165.177V294.58H166.465V295.7C167.011 294.944 167.963 294.51 169.139 294.51ZM180.572 294.58H181.846V300.992C181.846 303.61 180.516 304.8 177.996 304.8C176.638 304.8 175.266 304.422 174.454 303.694L175.098 302.658C175.784 303.246 176.862 303.624 177.954 303.624C179.704 303.624 180.502 302.812 180.502 301.132V300.544C179.858 301.314 178.892 301.692 177.828 301.692C175.686 301.692 174.062 300.236 174.062 298.094C174.062 295.952 175.686 294.51 177.828 294.51C178.934 294.51 179.942 294.916 180.572 295.728V294.58ZM177.982 300.516C179.466 300.516 180.53 299.522 180.53 298.094C180.53 296.652 179.466 295.686 177.982 295.686C176.484 295.686 175.42 296.652 175.42 298.094C175.42 299.522 176.484 300.516 177.982 300.516ZM184.75 300.166C185.282 300.166 185.66 300.572 185.66 301.118C185.66 301.398 185.604 301.608 185.422 302.126L184.764 304.072H183.882L184.4 301.986C184.05 301.86 183.812 301.538 183.812 301.118C183.812 300.558 184.218 300.166 184.75 300.166ZM195.279 294.51C197.449 294.51 199.031 296.022 199.031 298.29C199.031 300.572 197.449 302.084 195.279 302.084C194.229 302.084 193.305 301.678 192.689 300.88V304.716H191.345V294.58H192.633V295.756C193.235 294.93 194.187 294.51 195.279 294.51ZM195.167 300.908C196.595 300.908 197.673 299.872 197.673 298.29C197.673 296.722 196.595 295.686 195.167 295.686C193.753 295.686 192.675 296.722 192.675 298.29C192.675 299.872 193.753 300.908 195.167 300.908ZM202.176 295.826C202.652 294.958 203.576 294.51 204.878 294.51V295.812C204.766 295.798 204.668 295.798 204.57 295.798C203.128 295.798 202.232 296.68 202.232 298.304V302H200.888V294.58H202.176V295.826ZM209.644 302.084C207.418 302.084 205.78 300.502 205.78 298.29C205.78 296.078 207.418 294.51 209.644 294.51C211.87 294.51 213.494 296.078 213.494 298.29C213.494 300.502 211.87 302.084 209.644 302.084ZM209.644 300.908C211.072 300.908 212.136 299.872 212.136 298.29C212.136 296.708 211.072 295.686 209.644 295.686C208.216 295.686 207.138 296.708 207.138 298.29C207.138 299.872 208.216 300.908 209.644 300.908ZM216.095 293.152C215.577 293.152 215.185 292.774 215.185 292.284C215.185 291.794 215.577 291.402 216.095 291.402C216.613 291.402 217.005 291.78 217.005 292.256C217.005 292.76 216.627 293.152 216.095 293.152ZM214.401 304.8C213.785 304.8 213.169 304.66 212.791 304.352L213.225 303.316C213.491 303.54 213.883 303.666 214.317 303.666C215.031 303.666 215.423 303.218 215.423 302.364V294.58H216.767V302.336C216.767 303.848 215.927 304.8 214.401 304.8ZM226.038 298.332C226.038 298.444 226.024 298.612 226.01 298.738H219.99C220.158 300.04 221.208 300.908 222.678 300.908C223.546 300.908 224.274 300.614 224.82 300.012L225.562 300.88C224.89 301.664 223.868 302.084 222.636 302.084C220.242 302.084 218.646 300.502 218.646 298.29C218.646 296.092 220.228 294.51 222.37 294.51C224.512 294.51 226.038 296.05 226.038 298.332ZM222.37 295.644C221.082 295.644 220.13 296.512 219.99 297.772H224.75C224.61 296.526 223.672 295.644 222.37 295.644ZM231.138 302.084C228.856 302.084 227.218 300.502 227.218 298.29C227.218 296.078 228.856 294.51 231.138 294.51C232.468 294.51 233.574 295.056 234.162 296.092L233.14 296.75C232.664 296.022 231.936 295.686 231.124 295.686C229.668 295.686 228.576 296.708 228.576 298.29C228.576 299.9 229.668 300.908 231.124 300.908C231.936 300.908 232.664 300.572 233.14 299.844L234.162 300.488C233.574 301.524 232.468 302.084 231.138 302.084ZM239.75 300.6L240.17 301.566C239.764 301.916 239.148 302.084 238.546 302.084C237.048 302.084 236.194 301.258 236.194 299.76V295.686H234.934V294.58H236.194V292.956H237.538V294.58H239.666V295.686H237.538V299.704C237.538 300.502 237.958 300.95 238.7 300.95C239.092 300.95 239.47 300.824 239.75 300.6ZM243.923 302.084C242.691 302.084 241.473 301.706 240.857 301.216L241.417 300.152C242.047 300.6 243.055 300.922 244.021 300.922C245.267 300.922 245.785 300.544 245.785 299.914C245.785 298.248 241.095 299.69 241.095 296.736C241.095 295.406 242.285 294.51 244.189 294.51C245.155 294.51 246.247 294.762 246.891 295.182L246.317 296.246C245.645 295.812 244.903 295.658 244.175 295.658C242.999 295.658 242.425 296.092 242.425 296.68C242.425 298.43 247.129 297.002 247.129 299.886C247.129 301.23 245.897 302.084 243.923 302.084ZM260.688 301.258L259.932 302.154L258.63 300.852C257.776 301.678 256.656 302.112 255.354 302.112C253.366 302.112 251.924 301.062 251.924 299.564C251.924 298.36 252.61 297.52 254.304 296.554C253.422 295.672 253.128 295.042 253.128 294.314C253.128 292.998 254.164 292.116 255.774 292.116C257.258 292.116 258.21 292.886 258.21 294.16C258.21 295.154 257.622 295.868 256.124 296.722L258.546 299.13C258.812 298.626 259.022 298.038 259.148 297.352L260.226 297.702C260.058 298.57 259.764 299.326 259.372 299.942L260.688 301.258ZM255.774 293.096C254.892 293.096 254.374 293.586 254.374 294.286C254.374 294.79 254.57 295.154 255.368 295.966C256.656 295.238 257.076 294.79 257.076 294.174C257.076 293.53 256.614 293.096 255.774 293.096ZM255.438 300.992C256.376 300.992 257.202 300.684 257.832 300.068L255.046 297.296C253.674 298.066 253.24 298.64 253.24 299.424C253.24 300.362 254.122 300.992 255.438 300.992ZM110.148 316.332C110.148 316.444 110.134 316.612 110.12 316.738H104.1C104.268 318.04 105.318 318.908 106.788 318.908C107.656 318.908 108.384 318.614 108.93 318.012L109.672 318.88C109 319.664 107.978 320.084 106.746 320.084C104.352 320.084 102.756 318.502 102.756 316.29C102.756 314.092 104.338 312.51 106.48 312.51C108.622 312.51 110.148 314.05 110.148 316.332ZM106.48 313.644C105.192 313.644 104.24 314.512 104.1 315.772H108.86C108.72 314.526 107.782 313.644 106.48 313.644ZM118.067 320H116.541L114.399 317.158L112.229 320H110.731L113.657 316.206L110.871 312.58H112.369L114.413 315.254L116.443 312.58H117.913L115.113 316.206L118.067 320ZM123.468 312.51C125.638 312.51 127.22 314.022 127.22 316.29C127.22 318.572 125.638 320.084 123.468 320.084C122.418 320.084 121.494 319.678 120.878 318.88V322.716H119.534V312.58H120.822V313.756C121.424 312.93 122.376 312.51 123.468 312.51ZM123.356 318.908C124.784 318.908 125.862 317.872 125.862 316.29C125.862 314.722 124.784 313.686 123.356 313.686C121.942 313.686 120.864 314.722 120.864 316.29C120.864 317.872 121.942 318.908 123.356 318.908ZM135.783 316.332C135.783 316.444 135.769 316.612 135.755 316.738H129.735C129.903 318.04 130.953 318.908 132.423 318.908C133.291 318.908 134.019 318.614 134.565 318.012L135.307 318.88C134.635 319.664 133.613 320.084 132.381 320.084C129.987 320.084 128.391 318.502 128.391 316.29C128.391 314.092 129.973 312.51 132.115 312.51C134.257 312.51 135.783 314.05 135.783 316.332ZM132.115 313.644C130.827 313.644 129.875 314.512 129.735 315.772H134.495C134.355 314.526 133.417 313.644 132.115 313.644ZM138.937 313.826C139.413 312.958 140.337 312.51 141.639 312.51V313.812C141.527 313.798 141.429 313.798 141.331 313.798C139.889 313.798 138.993 314.68 138.993 316.304V320H137.649V312.58H138.937V313.826ZM147.348 318.6L147.768 319.566C147.362 319.916 146.746 320.084 146.144 320.084C144.646 320.084 143.792 319.258 143.792 317.76V313.686H142.532V312.58H143.792V310.956H145.136V312.58H147.264V313.686H145.136V317.704C145.136 318.502 145.556 318.95 146.298 318.95C146.69 318.95 147.068 318.824 147.348 318.6ZM155.281 320.084C154.049 320.084 152.831 319.706 152.215 319.216L152.775 318.152C153.405 318.6 154.413 318.922 155.379 318.922C156.625 318.922 157.143 318.544 157.143 317.914C157.143 316.248 152.453 317.69 152.453 314.736C152.453 313.406 153.643 312.51 155.547 312.51C156.513 312.51 157.605 312.762 158.249 313.182L157.675 314.246C157.003 313.812 156.261 313.658 155.533 313.658C154.357 313.658 153.783 314.092 153.783 314.68C153.783 316.43 158.487 315.002 158.487 317.886C158.487 319.23 157.255 320.084 155.281 320.084ZM166.873 316.332C166.873 316.444 166.859 316.612 166.845 316.738H160.825C160.993 318.04 162.043 318.908 163.513 318.908C164.381 318.908 165.109 318.614 165.655 318.012L166.397 318.88C165.725 319.664 164.703 320.084 163.471 320.084C161.077 320.084 159.481 318.502 159.481 316.29C159.481 314.092 161.063 312.51 163.205 312.51C165.347 312.51 166.873 314.05 166.873 316.332ZM163.205 313.644C161.917 313.644 160.965 314.512 160.825 315.772H165.585C165.445 314.526 164.507 313.644 163.205 313.644ZM170.867 320.084C169.635 320.084 168.417 319.706 167.801 319.216L168.361 318.152C168.991 318.6 169.999 318.922 170.965 318.922C172.211 318.922 172.729 318.544 172.729 317.914C172.729 316.248 168.039 317.69 168.039 314.736C168.039 313.406 169.229 312.51 171.133 312.51C172.099 312.51 173.191 312.762 173.835 313.182L173.261 314.246C172.589 313.812 171.847 313.658 171.119 313.658C169.943 313.658 169.369 314.092 169.369 314.68C169.369 316.43 174.073 315.002 174.073 317.886C174.073 319.23 172.841 320.084 170.867 320.084ZM177.881 320.084C176.649 320.084 175.431 319.706 174.815 319.216L175.375 318.152C176.005 318.6 177.013 318.922 177.979 318.922C179.225 318.922 179.743 318.544 179.743 317.914C179.743 316.248 175.053 317.69 175.053 314.736C175.053 313.406 176.243 312.51 178.147 312.51C179.113 312.51 180.205 312.762 180.849 313.182L180.275 314.246C179.603 313.812 178.861 313.658 178.133 313.658C176.957 313.658 176.383 314.092 176.383 314.68C176.383 316.43 181.087 315.002 181.087 317.886C181.087 319.23 179.855 320.084 177.881 320.084ZM183.438 311.152C182.92 311.152 182.528 310.774 182.528 310.284C182.528 309.794 182.92 309.402 183.438 309.402C183.956 309.402 184.348 309.78 184.348 310.256C184.348 310.76 183.97 311.152 183.438 311.152ZM182.766 320V312.58H184.11V320H182.766ZM189.854 320.084C187.628 320.084 185.99 318.502 185.99 316.29C185.99 314.078 187.628 312.51 189.854 312.51C192.08 312.51 193.704 314.078 193.704 316.29C193.704 318.502 192.08 320.084 189.854 320.084ZM189.854 318.908C191.282 318.908 192.346 317.872 192.346 316.29C192.346 314.708 191.282 313.686 189.854 313.686C188.426 313.686 187.348 314.708 187.348 316.29C187.348 317.872 188.426 318.908 189.854 318.908ZM199.525 312.51C201.331 312.51 202.605 313.546 202.605 315.73V320H201.261V315.884C201.261 314.428 200.533 313.714 199.259 313.714C197.831 313.714 196.907 314.568 196.907 316.178V320H195.563V312.58H196.851V313.7C197.397 312.944 198.349 312.51 199.525 312.51ZM207.22 320.084C205.988 320.084 204.77 319.706 204.154 319.216L204.714 318.152C205.344 318.6 206.352 318.922 207.318 318.922C208.564 318.922 209.082 318.544 209.082 317.914C209.082 316.248 204.392 317.69 204.392 314.736C204.392 313.406 205.582 312.51 207.486 312.51C208.452 312.51 209.544 312.762 210.188 313.182L209.614 314.246C208.942 313.812 208.2 313.658 207.472 313.658C206.296 313.658 205.722 314.092 205.722 314.68C205.722 316.43 210.426 315.002 210.426 317.886C210.426 319.23 209.194 320.084 207.22 320.084Z" fill="black"/>
<path d="M86.3009 229V217.8H88.3809V229H86.3009ZM96.0663 220.36C98.1143 220.36 99.6343 221.528 99.6343 224.104V229H97.6343V224.36C97.6343 222.84 96.8823 222.104 95.6023 222.104C94.1783 222.104 93.2183 222.968 93.2183 224.68V229H91.2183V220.456H93.1223V221.56C93.7783 220.776 94.8183 220.36 96.0663 220.36ZM108.618 217.128H110.618V229H108.698V227.896C108.026 228.712 107.034 229.112 105.866 229.112C103.386 229.112 101.546 227.384 101.546 224.728C101.546 222.072 103.386 220.36 105.866 220.36C106.97 220.36 107.946 220.728 108.618 221.512V217.128ZM106.106 227.4C107.546 227.4 108.65 226.36 108.65 224.728C108.65 223.096 107.546 222.056 106.106 222.056C104.666 222.056 103.562 223.096 103.562 224.728C103.562 226.36 104.666 227.4 106.106 227.4ZM119.506 220.456H121.506V229H119.602V227.912C118.962 228.696 117.954 229.112 116.85 229.112C114.658 229.112 113.17 227.912 113.17 225.336V220.456H115.17V225.064C115.17 226.616 115.906 227.352 117.17 227.352C118.562 227.352 119.506 226.488 119.506 224.776V220.456ZM126.765 229.112C125.341 229.112 123.917 228.696 123.149 228.152L123.917 226.632C124.669 227.128 125.821 227.48 126.893 227.48C128.157 227.48 128.685 227.128 128.685 226.536C128.685 224.904 123.405 226.44 123.405 223.032C123.405 221.416 124.861 220.36 127.165 220.36C128.301 220.36 129.597 220.632 130.365 221.096L129.597 222.616C128.781 222.136 127.965 221.976 127.149 221.976C125.933 221.976 125.357 222.376 125.357 222.936C125.357 224.664 130.637 223.128 130.637 226.472C130.637 228.072 129.165 229.112 126.765 229.112ZM136.935 227.112L137.495 228.536C137.015 228.92 136.295 229.112 135.575 229.112C133.703 229.112 132.631 228.12 132.631 226.232V222.12H131.223V220.52H132.631V218.568H134.631V220.52H136.919V222.12H134.631V226.184C134.631 227.016 135.047 227.464 135.815 227.464C136.231 227.464 136.631 227.352 136.935 227.112ZM141.044 221.704C141.62 220.808 142.66 220.36 144.084 220.36V222.264C143.908 222.232 143.764 222.216 143.62 222.216C142.1 222.216 141.14 223.112 141.14 224.856V229H139.14V220.456H141.044V221.704ZM152.173 220.456H154.093L150.093 229.688C149.309 231.624 148.221 232.216 146.797 232.216C145.949 232.216 145.053 231.928 144.509 231.432L145.309 229.96C145.693 230.328 146.237 230.552 146.781 230.552C147.485 230.552 147.901 230.216 148.285 229.368L148.429 229.032L144.701 220.456H146.781L149.469 226.776L152.173 220.456ZM165.141 229.16C161.717 229.16 159.157 226.744 159.157 223.4C159.157 220.056 161.717 217.64 165.157 217.64C166.981 217.64 168.549 218.296 169.589 219.512L168.245 220.776C167.429 219.896 166.421 219.464 165.253 219.464C162.933 219.464 161.253 221.096 161.253 223.4C161.253 225.704 162.933 227.336 165.253 227.336C166.421 227.336 167.429 226.904 168.245 226.008L169.589 227.288C168.549 228.504 166.981 229.16 165.141 229.16ZM174.918 229.112C172.294 229.112 170.374 227.288 170.374 224.728C170.374 222.168 172.294 220.36 174.918 220.36C177.574 220.36 179.478 222.168 179.478 224.728C179.478 227.288 177.574 229.112 174.918 229.112ZM174.918 227.4C176.374 227.4 177.462 226.36 177.462 224.728C177.462 223.096 176.374 222.056 174.918 222.056C173.478 222.056 172.39 223.096 172.39 224.728C172.39 226.36 173.478 227.4 174.918 227.4ZM186.238 220.36C188.286 220.36 189.806 221.528 189.806 224.104V229H187.806V224.36C187.806 222.84 187.054 222.104 185.774 222.104C184.35 222.104 183.39 222.968 183.39 224.68V229H181.39V220.456H183.294V221.56C183.95 220.776 184.99 220.36 186.238 220.36ZM197.191 220.36C199.239 220.36 200.759 221.528 200.759 224.104V229H198.759V224.36C198.759 222.84 198.007 222.104 196.727 222.104C195.303 222.104 194.343 222.968 194.343 224.68V229H192.343V220.456H194.247V221.56C194.903 220.776 195.943 220.36 197.191 220.36ZM211.407 224.776C211.407 224.936 211.391 225.176 211.375 225.368H204.671C204.911 226.616 205.951 227.416 207.439 227.416C208.399 227.416 209.151 227.112 209.759 226.488L210.831 227.72C210.062 228.632 208.863 229.112 207.391 229.112C204.527 229.112 202.671 227.272 202.671 224.728C202.671 222.184 204.543 220.36 207.087 220.36C209.583 220.36 211.407 222.104 211.407 224.776ZM207.087 221.96C205.791 221.96 204.847 222.792 204.655 224.04H209.503C209.343 222.808 208.399 221.96 207.087 221.96ZM217.248 229.112C214.544 229.112 212.624 227.288 212.624 224.728C212.624 222.168 214.544 220.36 217.248 220.36C218.912 220.36 220.24 221.048 220.896 222.344L219.36 223.24C218.848 222.424 218.08 222.056 217.232 222.056C215.76 222.056 214.64 223.08 214.64 224.728C214.64 226.392 215.76 227.4 217.232 227.4C218.08 227.4 218.848 227.032 219.36 226.216L220.896 227.112C220.24 228.392 218.912 229.112 217.248 229.112ZM227.31 227.112L227.87 228.536C227.39 228.92 226.67 229.112 225.95 229.112C224.078 229.112 223.006 228.12 223.006 226.232V222.12H221.598V220.52H223.006V218.568H225.006V220.52H227.294V222.12H225.006V226.184C225.006 227.016 225.422 227.464 226.19 227.464C226.606 227.464 227.006 227.352 227.31 227.112Z" fill="white"/>
<path d="M25 390C25 378.954 33.9543 370 45 370H268C279.046 370 288 378.954 288 390V445H25L25 390Z" fill="url(#paint2_linear_4286_11142)"/>
<path d="M25 445H288V515C288 526.046 279.046 535 268 535H45C33.9543 535 25 526.046 25 515L25 445Z" fill="#FBE8D7"/>
<path d="M69.636 486V476.2H71.036V486H69.636ZM76.826 486.112C75.328 486.112 73.858 485.608 73.074 484.88L73.592 483.788C74.32 484.446 75.566 484.922 76.826 484.922C78.52 484.922 79.248 484.264 79.248 483.41C79.248 481.016 73.312 482.528 73.312 478.888C73.312 477.376 74.488 476.088 77.064 476.088C78.212 476.088 79.402 476.396 80.214 476.956L79.752 478.076C78.898 477.53 77.932 477.278 77.064 477.278C75.398 477.278 74.684 477.978 74.684 478.832C74.684 481.226 80.62 479.728 80.62 483.326C80.62 484.824 79.416 486.112 76.826 486.112ZM87.0893 486.112C84.0793 486.112 81.8673 483.97 81.8673 481.1C81.8673 478.23 84.0793 476.088 87.0893 476.088C90.0713 476.088 92.2833 478.216 92.2833 481.1C92.2833 483.984 90.0713 486.112 87.0893 486.112ZM87.0893 484.866C89.2593 484.866 90.8833 483.27 90.8833 481.1C90.8833 478.93 89.2593 477.334 87.0893 477.334C84.8913 477.334 83.2673 478.93 83.2673 481.1C83.2673 483.27 84.8913 484.866 87.0893 484.866ZM93.8468 482.738V481.576H97.6128V482.738H93.8468ZM103.053 486.084C100.771 486.084 99.1329 484.502 99.1329 482.29C99.1329 480.078 100.771 478.51 103.053 478.51C104.383 478.51 105.489 479.056 106.077 480.092L105.055 480.75C104.579 480.022 103.851 479.686 103.039 479.686C101.583 479.686 100.491 480.708 100.491 482.29C100.491 483.9 101.583 484.908 103.039 484.908C103.851 484.908 104.579 484.572 105.055 483.844L106.077 484.488C105.489 485.524 104.383 486.084 103.053 486.084ZM114.414 482.332C114.414 482.444 114.4 482.612 114.386 482.738H108.366C108.534 484.04 109.584 484.908 111.054 484.908C111.922 484.908 112.65 484.614 113.196 484.012L113.938 484.88C113.266 485.664 112.244 486.084 111.012 486.084C108.618 486.084 107.022 484.502 107.022 482.29C107.022 480.092 108.604 478.51 110.746 478.51C112.888 478.51 114.414 480.05 114.414 482.332ZM110.746 479.644C109.458 479.644 108.506 480.512 108.366 481.772H113.126C112.986 480.526 112.048 479.644 110.746 479.644ZM117.568 479.826C118.044 478.958 118.968 478.51 120.27 478.51V479.812C120.158 479.798 120.06 479.798 119.962 479.798C118.52 479.798 117.624 480.68 117.624 482.304V486H116.28V478.58H117.568V479.826ZM125.979 484.6L126.399 485.566C125.993 485.916 125.377 486.084 124.775 486.084C123.277 486.084 122.423 485.258 122.423 483.76V479.686H121.163V478.58H122.423V476.956H123.767V478.58H125.895V479.686H123.767V483.704C123.767 484.502 124.187 484.95 124.929 484.95C125.321 484.95 125.699 484.824 125.979 484.6ZM128.696 477.152C128.178 477.152 127.786 476.774 127.786 476.284C127.786 475.794 128.178 475.402 128.696 475.402C129.214 475.402 129.606 475.78 129.606 476.256C129.606 476.76 129.228 477.152 128.696 477.152ZM128.024 486V478.58H129.368V486H128.024ZM138.668 477.152C138.15 477.152 137.758 476.774 137.758 476.284C137.758 475.794 138.15 475.402 138.668 475.402C139.186 475.402 139.578 475.78 139.578 476.256C139.578 476.76 139.2 477.152 138.668 477.152ZM132.13 477.922C132.13 476.48 132.998 475.528 134.58 475.528C135.154 475.528 135.714 475.668 136.092 475.962L135.686 476.984C135.406 476.774 135.042 476.634 134.65 476.634C133.852 476.634 133.446 477.082 133.446 477.936V478.58H135.602V479.686H133.474V486H132.13V479.686H130.87V478.58H132.13V477.922ZM137.996 486V478.58H139.34V486H137.996ZM148.607 482.332C148.607 482.444 148.593 482.612 148.579 482.738H142.559C142.727 484.04 143.777 484.908 145.247 484.908C146.115 484.908 146.843 484.614 147.389 484.012L148.131 484.88C147.459 485.664 146.437 486.084 145.205 486.084C142.811 486.084 141.215 484.502 141.215 482.29C141.215 480.092 142.797 478.51 144.939 478.51C147.081 478.51 148.607 480.05 148.607 482.332ZM144.939 479.644C143.651 479.644 142.699 480.512 142.559 481.772H147.319C147.179 480.526 146.241 479.644 144.939 479.644ZM156.129 475.612H157.473V486H156.185V484.824C155.583 485.664 154.631 486.084 153.539 486.084C151.369 486.084 149.787 484.558 149.787 482.29C149.787 480.022 151.369 478.51 153.539 478.51C154.589 478.51 155.513 478.902 156.129 479.7V475.612ZM153.651 484.908C155.065 484.908 156.143 483.872 156.143 482.29C156.143 480.708 155.065 479.686 153.651 479.686C152.223 479.686 151.145 480.708 151.145 482.29C151.145 483.872 152.223 484.908 153.651 484.908ZM160.352 484.166C160.884 484.166 161.262 484.572 161.262 485.118C161.262 485.398 161.206 485.608 161.024 486.126L160.366 488.072H159.484L160.002 485.986C159.652 485.86 159.414 485.538 159.414 485.118C159.414 484.558 159.82 484.166 160.352 484.166ZM168.236 479.826C168.712 478.958 169.636 478.51 170.938 478.51V479.812C170.826 479.798 170.728 479.798 170.63 479.798C169.188 479.798 168.292 480.68 168.292 482.304V486H166.948V478.58H168.236V479.826ZM179.232 482.332C179.232 482.444 179.218 482.612 179.204 482.738H173.184C173.352 484.04 174.402 484.908 175.872 484.908C176.74 484.908 177.468 484.614 178.014 484.012L178.756 484.88C178.084 485.664 177.062 486.084 175.83 486.084C173.436 486.084 171.84 484.502 171.84 482.29C171.84 480.092 173.422 478.51 175.564 478.51C177.706 478.51 179.232 480.05 179.232 482.332ZM175.564 479.644C174.276 479.644 173.324 480.512 173.184 481.772H177.944C177.804 480.526 176.866 479.644 175.564 479.644ZM184.332 486.084C182.05 486.084 180.412 484.502 180.412 482.29C180.412 480.078 182.05 478.51 184.332 478.51C185.662 478.51 186.768 479.056 187.356 480.092L186.334 480.75C185.858 480.022 185.13 479.686 184.318 479.686C182.862 479.686 181.77 480.708 181.77 482.29C181.77 483.9 182.862 484.908 184.318 484.908C185.13 484.908 185.858 484.572 186.334 483.844L187.356 484.488C186.768 485.524 185.662 486.084 184.332 486.084ZM192.165 486.084C189.939 486.084 188.301 484.502 188.301 482.29C188.301 480.078 189.939 478.51 192.165 478.51C194.391 478.51 196.015 480.078 196.015 482.29C196.015 484.502 194.391 486.084 192.165 486.084ZM192.165 484.908C193.593 484.908 194.657 483.872 194.657 482.29C194.657 480.708 193.593 479.686 192.165 479.686C190.737 479.686 189.659 480.708 189.659 482.29C189.659 483.872 190.737 484.908 192.165 484.908ZM203.698 478.58H204.972V484.992C204.972 487.61 203.642 488.8 201.122 488.8C199.764 488.8 198.392 488.422 197.58 487.694L198.224 486.658C198.91 487.246 199.988 487.624 201.08 487.624C202.83 487.624 203.628 486.812 203.628 485.132V484.544C202.984 485.314 202.018 485.692 200.954 485.692C198.812 485.692 197.188 484.236 197.188 482.094C197.188 479.952 198.812 478.51 200.954 478.51C202.06 478.51 203.068 478.916 203.698 479.728V478.58ZM201.108 484.516C202.592 484.516 203.656 483.522 203.656 482.094C203.656 480.652 202.592 479.686 201.108 479.686C199.61 479.686 198.546 480.652 198.546 482.094C198.546 483.522 199.61 484.516 201.108 484.516ZM211.502 478.51C213.308 478.51 214.582 479.546 214.582 481.73V486H213.238V481.884C213.238 480.428 212.51 479.714 211.236 479.714C209.808 479.714 208.884 480.568 208.884 482.178V486H207.54V478.58H208.828V479.7C209.374 478.944 210.326 478.51 211.502 478.51ZM217.741 477.152C217.223 477.152 216.831 476.774 216.831 476.284C216.831 475.794 217.223 475.402 217.741 475.402C218.259 475.402 218.651 475.78 218.651 476.256C218.651 476.76 218.273 477.152 217.741 477.152ZM217.069 486V478.58H218.413V486H217.069ZM223.107 486.084C221.875 486.084 220.657 485.706 220.041 485.216L220.601 484.152C221.231 484.6 222.239 484.922 223.205 484.922C224.451 484.922 224.969 484.544 224.969 483.914C224.969 482.248 220.279 483.69 220.279 480.736C220.279 479.406 221.469 478.51 223.373 478.51C224.339 478.51 225.431 478.762 226.075 479.182L225.501 480.246C224.829 479.812 224.087 479.658 223.359 479.658C222.183 479.658 221.609 480.092 221.609 480.68C221.609 482.43 226.313 481.002 226.313 483.886C226.313 485.23 225.081 486.084 223.107 486.084ZM234.699 482.332C234.699 482.444 234.685 482.612 234.671 482.738H228.651C228.819 484.04 229.869 484.908 231.339 484.908C232.207 484.908 232.935 484.614 233.481 484.012L234.223 484.88C233.551 485.664 232.529 486.084 231.297 486.084C228.903 486.084 227.307 484.502 227.307 482.29C227.307 480.092 228.889 478.51 231.031 478.51C233.173 478.51 234.699 480.05 234.699 482.332ZM231.031 479.644C229.743 479.644 228.791 480.512 228.651 481.772H233.411C233.271 480.526 232.333 479.644 231.031 479.644ZM242.221 475.612H243.565V486H242.277V484.824C241.675 485.664 240.723 486.084 239.631 486.084C237.461 486.084 235.879 484.558 235.879 482.29C235.879 480.022 237.461 478.51 239.631 478.51C240.681 478.51 241.605 478.902 242.221 479.7V475.612ZM239.743 484.908C241.157 484.908 242.235 483.872 242.235 482.29C242.235 480.708 241.157 479.686 239.743 479.686C238.315 479.686 237.237 480.708 237.237 482.29C237.237 483.872 238.315 484.908 239.743 484.908ZM57.7045 496.51C59.7345 496.51 60.8825 497.49 60.8825 499.52V504H59.6085V503.02C59.1605 503.692 58.3345 504.084 57.1725 504.084C55.4925 504.084 54.4285 503.188 54.4285 501.9C54.4285 500.71 55.1985 499.73 57.4105 499.73H59.5385V499.464C59.5385 498.33 58.8805 497.672 57.5505 497.672C56.6685 497.672 55.7725 497.98 55.1985 498.47L54.6385 497.462C55.4085 496.846 56.5145 496.51 57.7045 496.51ZM57.3965 503.048C58.4045 503.048 59.2025 502.586 59.5385 501.732V500.696H57.4665C56.1365 500.696 55.7585 501.214 55.7585 501.844C55.7585 502.586 56.3745 503.048 57.3965 503.048ZM72.6517 496.51C74.4577 496.51 75.6897 497.546 75.6897 499.73V504H74.3457V499.884C74.3457 498.428 73.6457 497.714 72.4277 497.714C71.0837 497.714 70.2017 498.568 70.2017 500.178V504H68.8577V499.884C68.8577 498.428 68.1577 497.714 66.9397 497.714C65.5957 497.714 64.7137 498.568 64.7137 500.178V504H63.3697V496.58H64.6577V497.686C65.1897 496.93 66.0997 496.51 67.2197 496.51C68.3537 496.51 69.3057 496.958 69.7957 497.882C70.3557 497.042 71.3917 496.51 72.6517 496.51ZM81.3817 504.084C79.1557 504.084 77.5177 502.502 77.5177 500.29C77.5177 498.078 79.1557 496.51 81.3817 496.51C83.6077 496.51 85.2317 498.078 85.2317 500.29C85.2317 502.502 83.6077 504.084 81.3817 504.084ZM81.3817 502.908C82.8097 502.908 83.8737 501.872 83.8737 500.29C83.8737 498.708 82.8097 497.686 81.3817 497.686C79.9537 497.686 78.8757 498.708 78.8757 500.29C78.8757 501.872 79.9537 502.908 81.3817 502.908ZM91.0524 496.51C92.8584 496.51 94.1324 497.546 94.1324 499.73V504H92.7884V499.884C92.7884 498.428 92.0604 497.714 90.7864 497.714C89.3584 497.714 88.4344 498.568 88.4344 500.178V504H87.0904V496.58H88.3784V497.7C88.9244 496.944 89.8764 496.51 91.0524 496.51ZM102.485 496.58H103.759V502.992C103.759 505.61 102.429 506.8 99.9087 506.8C98.5507 506.8 97.1787 506.422 96.3667 505.694L97.0107 504.658C97.6967 505.246 98.7747 505.624 99.8667 505.624C101.617 505.624 102.415 504.812 102.415 503.132V502.544C101.771 503.314 100.805 503.692 99.7407 503.692C97.5987 503.692 95.9747 502.236 95.9747 500.094C95.9747 497.952 97.5987 496.51 99.7407 496.51C100.847 496.51 101.855 496.916 102.485 497.728V496.58ZM99.8947 502.516C101.379 502.516 102.443 501.522 102.443 500.094C102.443 498.652 101.379 497.686 99.8947 497.686C98.3967 497.686 97.3327 498.652 97.3327 500.094C97.3327 501.522 98.3967 502.516 99.8947 502.516ZM112.229 504V495.418H108.869V494.2H116.975V495.418H113.615V504H112.229ZM120.716 504.084C118.49 504.084 116.852 502.502 116.852 500.29C116.852 498.078 118.49 496.51 120.716 496.51C122.942 496.51 124.566 498.078 124.566 500.29C124.566 502.502 122.942 504.084 120.716 504.084ZM120.716 502.908C122.144 502.908 123.208 501.872 123.208 500.29C123.208 498.708 122.144 497.686 120.716 497.686C119.288 497.686 118.21 498.708 118.21 500.29C118.21 501.872 119.288 502.908 120.716 502.908ZM130.358 496.51C132.528 496.51 134.11 498.022 134.11 500.29C134.11 502.572 132.528 504.084 130.358 504.084C129.308 504.084 128.384 503.678 127.768 502.88V506.716H126.424V496.58H127.712V497.756C128.314 496.93 129.266 496.51 130.358 496.51ZM130.246 502.908C131.674 502.908 132.752 501.872 132.752 500.29C132.752 498.722 131.674 497.686 130.246 497.686C128.832 497.686 127.754 498.722 127.754 500.29C127.754 501.872 128.832 502.908 130.246 502.908ZM144.305 504.112C141.337 504.112 139.125 501.998 139.125 499.1C139.125 496.202 141.337 494.088 144.319 494.088C145.831 494.088 147.147 494.606 148.043 495.614L147.133 496.496C146.377 495.698 145.453 495.334 144.375 495.334C142.163 495.334 140.525 496.93 140.525 499.1C140.525 501.27 142.163 502.866 144.375 502.866C145.453 502.866 146.377 502.488 147.133 501.69L148.043 502.572C147.147 503.58 145.831 504.112 144.305 504.112ZM152.708 504.084C150.482 504.084 148.844 502.502 148.844 500.29C148.844 498.078 150.482 496.51 152.708 496.51C154.934 496.51 156.558 498.078 156.558 500.29C156.558 502.502 154.934 504.084 152.708 504.084ZM152.708 502.908C154.136 502.908 155.2 501.872 155.2 500.29C155.2 498.708 154.136 497.686 152.708 497.686C151.28 497.686 150.202 498.708 150.202 500.29C150.202 501.872 151.28 502.908 152.708 502.908ZM158.417 504V493.612H159.761V504H158.417ZM162.327 504V493.612H163.671V504H162.327ZM172.943 500.332C172.943 500.444 172.929 500.612 172.915 500.738H166.895C167.063 502.04 168.113 502.908 169.583 502.908C170.451 502.908 171.179 502.614 171.725 502.012L172.467 502.88C171.795 503.664 170.773 504.084 169.541 504.084C167.147 504.084 165.551 502.502 165.551 500.29C165.551 498.092 167.133 496.51 169.275 496.51C171.417 496.51 172.943 498.05 172.943 500.332ZM169.275 497.644C167.987 497.644 167.035 498.512 166.895 499.772H171.655C171.515 498.526 170.577 497.644 169.275 497.644ZM180.633 496.58H181.907V502.992C181.907 505.61 180.577 506.8 178.057 506.8C176.699 506.8 175.327 506.422 174.515 505.694L175.159 504.658C175.845 505.246 176.923 505.624 178.015 505.624C179.765 505.624 180.563 504.812 180.563 503.132V502.544C179.919 503.314 178.953 503.692 177.889 503.692C175.747 503.692 174.123 502.236 174.123 500.094C174.123 497.952 175.747 496.51 177.889 496.51C178.995 496.51 180.003 496.916 180.633 497.728V496.58ZM178.043 502.516C179.527 502.516 180.591 501.522 180.591 500.094C180.591 498.652 179.527 497.686 178.043 497.686C176.545 497.686 175.481 498.652 175.481 500.094C175.481 501.522 176.545 502.516 178.043 502.516ZM191.181 500.332C191.181 500.444 191.167 500.612 191.153 500.738H185.133C185.301 502.04 186.351 502.908 187.821 502.908C188.689 502.908 189.417 502.614 189.963 502.012L190.705 502.88C190.033 503.664 189.011 504.084 187.779 504.084C185.385 504.084 183.789 502.502 183.789 500.29C183.789 498.092 185.371 496.51 187.513 496.51C189.655 496.51 191.181 498.05 191.181 500.332ZM187.513 497.644C186.225 497.644 185.273 498.512 185.133 499.772H189.893C189.753 498.526 188.815 497.644 187.513 497.644ZM195.175 504.084C193.943 504.084 192.725 503.706 192.109 503.216L192.669 502.152C193.299 502.6 194.307 502.922 195.273 502.922C196.519 502.922 197.037 502.544 197.037 501.914C197.037 500.248 192.347 501.69 192.347 498.736C192.347 497.406 193.537 496.51 195.441 496.51C196.407 496.51 197.499 496.762 198.143 497.182L197.569 498.246C196.897 497.812 196.155 497.658 195.427 497.658C194.251 497.658 193.677 498.092 193.677 498.68C193.677 500.43 198.381 499.002 198.381 501.886C198.381 503.23 197.149 504.084 195.175 504.084ZM206.537 494.634C205.739 494.634 205.333 495.082 205.333 495.936V496.58H207.489V497.686H205.361V504H204.017V497.686H202.757V496.58H204.017V495.922C204.017 494.48 204.885 493.528 206.467 493.528C207.041 493.528 207.601 493.668 207.979 493.962L207.573 494.984C207.293 494.774 206.929 494.634 206.537 494.634ZM211.825 504.084C209.599 504.084 207.961 502.502 207.961 500.29C207.961 498.078 209.599 496.51 211.825 496.51C214.051 496.51 215.675 498.078 215.675 500.29C215.675 502.502 214.051 504.084 211.825 504.084ZM211.825 502.908C213.253 502.908 214.317 501.872 214.317 500.29C214.317 498.708 213.253 497.686 211.825 497.686C210.397 497.686 209.319 498.708 209.319 500.29C209.319 501.872 210.397 502.908 211.825 502.908ZM218.822 497.826C219.298 496.958 220.222 496.51 221.524 496.51V497.812C221.412 497.798 221.314 497.798 221.216 497.798C219.774 497.798 218.878 498.68 218.878 500.304V504H217.534V496.58H218.822V497.826ZM237.662 504H236.318L236.304 496.86L232.762 502.81H232.118L228.576 496.902V504H227.232V494.2H228.38L232.468 501.088L236.5 494.2H237.648L237.662 504ZM244.985 504.112C242.017 504.112 239.805 501.998 239.805 499.1C239.805 496.202 242.017 494.088 244.999 494.088C246.511 494.088 247.827 494.606 248.723 495.614L247.813 496.496C247.057 495.698 246.133 495.334 245.055 495.334C242.843 495.334 241.205 496.93 241.205 499.1C241.205 501.27 242.843 502.866 245.055 502.866C246.133 502.866 247.057 502.488 247.813 501.69L248.723 502.572C247.827 503.58 246.511 504.112 244.985 504.112ZM257.81 504L256.732 501.55H251.524L250.446 504H249.004L253.442 494.2H254.828L259.28 504H257.81ZM252.014 500.43H256.242L254.128 495.628L252.014 500.43Z" fill="black"/>
<path d="M93.8764 404.8H95.9404V416H94.2284L88.0524 408.416V416H85.9884V404.8H87.7004L93.8764 412.384V404.8ZM107.326 416L106.206 413.408H100.606L99.5015 416H97.3575L102.398 404.8H104.446L109.502 416H107.326ZM101.31 411.776H105.517L103.406 406.88L101.31 411.776ZM119.591 416L118.471 413.408H112.871L111.767 416H109.623L114.663 404.8H116.711L121.767 416H119.591ZM113.575 411.776H117.783L115.671 406.88L113.575 411.776ZM128.219 416.16C124.795 416.16 122.235 413.744 122.235 410.4C122.235 407.056 124.795 404.64 128.235 404.64C130.059 404.64 131.627 405.296 132.667 406.512L131.323 407.776C130.507 406.896 129.499 406.464 128.331 406.464C126.011 406.464 124.331 408.096 124.331 410.4C124.331 412.704 126.011 414.336 128.331 414.336C129.499 414.336 130.507 413.904 131.323 413.008L132.667 414.288C131.627 415.504 130.059 416.16 128.219 416.16ZM147.466 416L146.346 413.408H140.746L139.642 416H137.498L142.538 404.8H144.586L149.642 416H147.466ZM141.45 411.776H145.658L143.546 406.88L141.45 411.776ZM154.716 416.112C152.012 416.112 150.092 414.288 150.092 411.728C150.092 409.168 152.012 407.36 154.716 407.36C156.38 407.36 157.708 408.048 158.364 409.344L156.828 410.24C156.316 409.424 155.548 409.056 154.7 409.056C153.228 409.056 152.108 410.08 152.108 411.728C152.108 413.392 153.228 414.4 154.7 414.4C155.548 414.4 156.316 414.032 156.828 413.216L158.364 414.112C157.708 415.392 156.38 416.112 154.716 416.112ZM163.888 416.112C161.184 416.112 159.264 414.288 159.264 411.728C159.264 409.168 161.184 407.36 163.888 407.36C165.552 407.36 166.88 408.048 167.536 409.344L166 410.24C165.488 409.424 164.72 409.056 163.872 409.056C162.4 409.056 161.28 410.08 161.28 411.728C161.28 413.392 162.4 414.4 163.872 414.4C164.72 414.4 165.488 414.032 166 413.216L167.536 414.112C166.88 415.392 165.552 416.112 163.888 416.112ZM171.169 408.704C171.745 407.808 172.785 407.36 174.209 407.36V409.264C174.033 409.232 173.889 409.216 173.745 409.216C172.225 409.216 171.265 410.112 171.265 411.856V416H169.265V407.456H171.169V408.704ZM183.86 411.776C183.86 411.936 183.844 412.176 183.828 412.368H177.124C177.364 413.616 178.404 414.416 179.892 414.416C180.852 414.416 181.604 414.112 182.212 413.488L183.284 414.72C182.516 415.632 181.316 416.112 179.844 416.112C176.98 416.112 175.124 414.272 175.124 411.728C175.124 409.184 176.996 407.36 179.54 407.36C182.036 407.36 183.86 409.104 183.86 411.776ZM179.54 408.96C178.244 408.96 177.3 409.792 177.108 411.04H181.956C181.796 409.808 180.852 408.96 179.54 408.96ZM192.149 404.128H194.149V416H192.229V414.896C191.557 415.712 190.565 416.112 189.397 416.112C186.917 416.112 185.077 414.384 185.077 411.728C185.077 409.072 186.917 407.36 189.397 407.36C190.501 407.36 191.477 407.728 192.149 408.512V404.128ZM189.637 414.4C191.077 414.4 192.181 413.36 192.181 411.728C192.181 410.096 191.077 409.056 189.637 409.056C188.197 409.056 187.093 410.096 187.093 411.728C187.093 413.36 188.197 414.4 189.637 414.4ZM197.773 406.048C197.037 406.048 196.493 405.52 196.493 404.848C196.493 404.176 197.037 403.648 197.773 403.648C198.509 403.648 199.053 404.144 199.053 404.8C199.053 405.504 198.525 406.048 197.773 406.048ZM196.765 416V407.456H198.765V416H196.765ZM205.966 414.112L206.526 415.536C206.046 415.92 205.326 416.112 204.606 416.112C202.734 416.112 201.662 415.12 201.662 413.232V409.12H200.254V407.52H201.662V405.568H203.662V407.52H205.95V409.12H203.662V413.184C203.662 414.016 204.078 414.464 204.846 414.464C205.262 414.464 205.662 414.352 205.966 414.112ZM215.922 411.776C215.922 411.936 215.906 412.176 215.89 412.368H209.186C209.426 413.616 210.466 414.416 211.954 414.416C212.914 414.416 213.666 414.112 214.274 413.488L215.346 414.72C214.578 415.632 213.378 416.112 211.906 416.112C209.042 416.112 207.186 414.272 207.186 411.728C207.186 409.184 209.058 407.36 211.602 407.36C214.098 407.36 215.922 409.104 215.922 411.776ZM211.602 408.96C210.306 408.96 209.362 409.792 209.17 411.04H214.018C213.858 409.808 212.914 408.96 211.602 408.96ZM224.211 404.128H226.211V416H224.291V414.896C223.619 415.712 222.627 416.112 221.459 416.112C218.979 416.112 217.139 414.384 217.139 411.728C217.139 409.072 218.979 407.36 221.459 407.36C222.563 407.36 223.539 407.728 224.211 408.512V404.128ZM221.699 414.4C223.139 414.4 224.243 413.36 224.243 411.728C224.243 410.096 223.139 409.056 221.699 409.056C220.259 409.056 219.155 410.096 219.155 411.728C219.155 413.36 220.259 414.4 221.699 414.4Z" fill="white"/>
<path d="M25 575C25 563.954 33.9543 555 45 555H268C279.046 555 288 563.954 288 575V630H25L25 575Z" fill="url(#paint3_linear_4286_11142)"/>
<path d="M25 630H288V700C288 711.046 279.046 720 268 720H45C33.9543 720 25 711.046 25 700L25 630Z" fill="#E1EAFE"/>
<path d="M53.8383 673.112C50.8703 673.112 48.6583 670.998 48.6583 668.1C48.6583 665.202 50.8703 663.088 53.8523 663.088C55.3643 663.088 56.6803 663.606 57.5763 664.614L56.6663 665.496C55.9103 664.698 54.9863 664.334 53.9083 664.334C51.6963 664.334 50.0583 665.93 50.0583 668.1C50.0583 670.27 51.6963 671.866 53.9083 671.866C54.9863 671.866 55.9103 671.488 56.6663 670.69L57.5763 671.572C56.6803 672.58 55.3643 673.112 53.8383 673.112ZM62.2411 673.084C60.0151 673.084 58.3771 671.502 58.3771 669.29C58.3771 667.078 60.0151 665.51 62.2411 665.51C64.4671 665.51 66.0911 667.078 66.0911 669.29C66.0911 671.502 64.4671 673.084 62.2411 673.084ZM62.2411 671.908C63.6691 671.908 64.7331 670.872 64.7331 669.29C64.7331 667.708 63.6691 666.686 62.2411 666.686C60.8131 666.686 59.7351 667.708 59.7351 669.29C59.7351 670.872 60.8131 671.908 62.2411 671.908ZM69.2378 666.826C69.7138 665.958 70.6378 665.51 71.9398 665.51V666.812C71.8278 666.798 71.7298 666.798 71.6318 666.798C70.1898 666.798 69.2938 667.68 69.2938 669.304V673H67.9498V665.58H69.2378V666.826ZM80.2339 669.332C80.2339 669.444 80.2199 669.612 80.2059 669.738H74.1859C74.3539 671.04 75.4039 671.908 76.8739 671.908C77.7419 671.908 78.4699 671.614 79.0159 671.012L79.7579 671.88C79.0859 672.664 78.0639 673.084 76.8319 673.084C74.4379 673.084 72.8419 671.502 72.8419 669.29C72.8419 667.092 74.4239 665.51 76.5659 665.51C78.7079 665.51 80.2339 667.05 80.2339 669.332ZM76.5659 666.644C75.2779 666.644 74.3259 667.512 74.1859 668.772H78.9459C78.8059 667.526 77.8679 666.644 76.5659 666.644ZM89.7939 665.51C91.9639 665.51 93.5459 667.022 93.5459 669.29C93.5459 671.572 91.9639 673.084 89.7939 673.084C88.7439 673.084 87.8199 672.678 87.2039 671.88V675.716H85.8599V665.58H87.1479V666.756C87.7499 665.93 88.7019 665.51 89.7939 665.51ZM89.6819 671.908C91.1099 671.908 92.1879 670.872 92.1879 669.29C92.1879 667.722 91.1099 666.686 89.6819 666.686C88.2679 666.686 87.1899 667.722 87.1899 669.29C87.1899 670.872 88.2679 671.908 89.6819 671.908ZM96.6909 666.826C97.1669 665.958 98.0909 665.51 99.3929 665.51V666.812C99.2809 666.798 99.1829 666.798 99.0849 666.798C97.6429 666.798 96.7469 667.68 96.7469 669.304V673H95.4029V665.58H96.6909V666.826ZM104.159 673.084C101.933 673.084 100.295 671.502 100.295 669.29C100.295 667.078 101.933 665.51 104.159 665.51C106.385 665.51 108.009 667.078 108.009 669.29C108.009 671.502 106.385 673.084 104.159 673.084ZM104.159 671.908C105.587 671.908 106.651 670.872 106.651 669.29C106.651 667.708 105.587 666.686 104.159 666.686C102.731 666.686 101.653 667.708 101.653 669.29C101.653 670.872 102.731 671.908 104.159 671.908ZM115.692 665.58H116.966V671.992C116.966 674.61 115.636 675.8 113.116 675.8C111.758 675.8 110.386 675.422 109.574 674.694L110.218 673.658C110.904 674.246 111.982 674.624 113.074 674.624C114.824 674.624 115.622 673.812 115.622 672.132V671.544C114.978 672.314 114.012 672.692 112.948 672.692C110.806 672.692 109.182 671.236 109.182 669.094C109.182 666.952 110.806 665.51 112.948 665.51C114.054 665.51 115.062 665.916 115.692 666.728V665.58ZM113.102 671.516C114.586 671.516 115.65 670.522 115.65 669.094C115.65 667.652 114.586 666.686 113.102 666.686C111.604 666.686 110.54 667.652 110.54 669.094C110.54 670.522 111.604 671.516 113.102 671.516ZM120.822 666.826C121.298 665.958 122.222 665.51 123.524 665.51V666.812C123.412 666.798 123.314 666.798 123.216 666.798C121.774 666.798 120.878 667.68 120.878 669.304V673H119.534V665.58H120.822V666.826ZM127.869 665.51C129.899 665.51 131.047 666.49 131.047 668.52V673H129.773V672.02C129.325 672.692 128.499 673.084 127.337 673.084C125.657 673.084 124.593 672.188 124.593 670.9C124.593 669.71 125.363 668.73 127.575 668.73H129.703V668.464C129.703 667.33 129.045 666.672 127.715 666.672C126.833 666.672 125.937 666.98 125.363 667.47L124.803 666.462C125.573 665.846 126.679 665.51 127.869 665.51ZM127.561 672.048C128.569 672.048 129.367 671.586 129.703 670.732V669.696H127.631C126.301 669.696 125.923 670.214 125.923 670.844C125.923 671.586 126.539 672.048 127.561 672.048ZM142.816 665.51C144.622 665.51 145.854 666.546 145.854 668.73V673H144.51V668.884C144.51 667.428 143.81 666.714 142.592 666.714C141.248 666.714 140.366 667.568 140.366 669.178V673H139.022V668.884C139.022 667.428 138.322 666.714 137.104 666.714C135.76 666.714 134.878 667.568 134.878 669.178V673H133.534V665.58H134.822V666.686C135.354 665.93 136.264 665.51 137.384 665.51C138.518 665.51 139.47 665.958 139.96 666.882C140.52 666.042 141.556 665.51 142.816 665.51ZM157.609 665.51C159.415 665.51 160.647 666.546 160.647 668.73V673H159.303V668.884C159.303 667.428 158.603 666.714 157.385 666.714C156.041 666.714 155.159 667.568 155.159 669.178V673H153.815V668.884C153.815 667.428 153.115 666.714 151.897 666.714C150.553 666.714 149.671 667.568 149.671 669.178V673H148.327V665.58H149.615V666.686C150.147 665.93 151.057 665.51 152.177 665.51C153.311 665.51 154.263 665.958 154.753 666.882C155.313 666.042 156.349 665.51 157.609 665.51ZM163.792 664.152C163.274 664.152 162.882 663.774 162.882 663.284C162.882 662.794 163.274 662.402 163.792 662.402C164.31 662.402 164.702 662.78 164.702 663.256C164.702 663.76 164.324 664.152 163.792 664.152ZM163.12 673V665.58H164.464V673H163.12ZM170.992 665.51C172.798 665.51 174.072 666.546 174.072 668.73V673H172.728V668.884C172.728 667.428 172 666.714 170.726 666.714C169.298 666.714 168.374 667.568 168.374 669.178V673H167.03V665.58H168.318V666.7C168.864 665.944 169.816 665.51 170.992 665.51ZM182.424 665.58H183.698V671.992C183.698 674.61 182.368 675.8 179.848 675.8C178.49 675.8 177.118 675.422 176.306 674.694L176.95 673.658C177.636 674.246 178.714 674.624 179.806 674.624C181.556 674.624 182.354 673.812 182.354 672.132V671.544C181.71 672.314 180.744 672.692 179.68 672.692C177.538 672.692 175.914 671.236 175.914 669.094C175.914 666.952 177.538 665.51 179.68 665.51C180.786 665.51 181.794 665.916 182.424 666.728V665.58ZM179.834 671.516C181.318 671.516 182.382 670.522 182.382 669.094C182.382 667.652 181.318 666.686 179.834 666.686C178.336 666.686 177.272 667.652 177.272 669.094C177.272 670.522 178.336 671.516 179.834 671.516ZM198.146 672.258L197.39 673.154L196.088 671.852C195.234 672.678 194.114 673.112 192.812 673.112C190.824 673.112 189.382 672.062 189.382 670.564C189.382 669.36 190.068 668.52 191.762 667.554C190.88 666.672 190.586 666.042 190.586 665.314C190.586 663.998 191.622 663.116 193.232 663.116C194.716 663.116 195.668 663.886 195.668 665.16C195.668 666.154 195.08 666.868 193.582 667.722L196.004 670.13C196.27 669.626 196.48 669.038 196.606 668.352L197.684 668.702C197.516 669.57 197.222 670.326 196.83 670.942L198.146 672.258ZM193.232 664.096C192.35 664.096 191.832 664.586 191.832 665.286C191.832 665.79 192.028 666.154 192.826 666.966C194.114 666.238 194.534 665.79 194.534 665.174C194.534 664.53 194.072 664.096 193.232 664.096ZM192.896 671.992C193.834 671.992 194.66 671.684 195.29 671.068L192.504 668.296C191.132 669.066 190.698 669.64 190.698 670.424C190.698 671.362 191.58 671.992 192.896 671.992ZM205.511 673.084C204.279 673.084 203.061 672.706 202.445 672.216L203.005 671.152C203.635 671.6 204.643 671.922 205.609 671.922C206.855 671.922 207.373 671.544 207.373 670.914C207.373 669.248 202.683 670.69 202.683 667.736C202.683 666.406 203.873 665.51 205.777 665.51C206.743 665.51 207.835 665.762 208.479 666.182L207.905 667.246C207.233 666.812 206.491 666.658 205.763 666.658C204.587 666.658 204.013 667.092 204.013 667.68C204.013 669.43 208.717 668.002 208.717 670.886C208.717 672.23 207.485 673.084 205.511 673.084ZM215.51 665.58H216.826L213.228 673.742C212.57 675.31 211.716 675.8 210.582 675.8C209.868 675.8 209.14 675.562 208.678 675.114L209.252 674.106C209.616 674.456 210.078 674.652 210.582 674.652C211.226 674.652 211.632 674.358 211.996 673.504L212.234 672.986L208.958 665.58H210.358L212.948 671.516L215.51 665.58ZM220.113 673.084C218.881 673.084 217.663 672.706 217.047 672.216L217.607 671.152C218.237 671.6 219.245 671.922 220.211 671.922C221.457 671.922 221.975 671.544 221.975 670.914C221.975 669.248 217.285 670.69 217.285 667.736C217.285 666.406 218.475 665.51 220.379 665.51C221.345 665.51 222.437 665.762 223.081 666.182L222.507 667.246C221.835 666.812 221.093 666.658 220.365 666.658C219.189 666.658 218.615 667.092 218.615 667.68C218.615 669.43 223.319 668.002 223.319 670.886C223.319 672.23 222.087 673.084 220.113 673.084ZM228.751 671.6L229.171 672.566C228.765 672.916 228.149 673.084 227.547 673.084C226.049 673.084 225.195 672.258 225.195 670.76V666.686H223.935V665.58H225.195V663.956H226.539V665.58H228.667V666.686H226.539V670.704C226.539 671.502 226.959 671.95 227.701 671.95C228.093 671.95 228.471 671.824 228.751 671.6ZM237.255 669.332C237.255 669.444 237.241 669.612 237.227 669.738H231.207C231.375 671.04 232.425 671.908 233.895 671.908C234.763 671.908 235.491 671.614 236.037 671.012L236.779 671.88C236.107 672.664 235.085 673.084 233.853 673.084C231.459 673.084 229.863 671.502 229.863 669.29C229.863 667.092 231.445 665.51 233.587 665.51C235.729 665.51 237.255 667.05 237.255 669.332ZM233.587 666.644C232.299 666.644 231.347 667.512 231.207 668.772H235.967C235.827 667.526 234.889 666.644 233.587 666.644ZM248.404 665.51C250.21 665.51 251.442 666.546 251.442 668.73V673H250.098V668.884C250.098 667.428 249.398 666.714 248.18 666.714C246.836 666.714 245.954 667.568 245.954 669.178V673H244.61V668.884C244.61 667.428 243.91 666.714 242.692 666.714C241.348 666.714 240.466 667.568 240.466 669.178V673H239.122V665.58H240.41V666.686C240.942 665.93 241.852 665.51 242.972 665.51C244.106 665.51 245.058 665.958 245.548 666.882C246.108 666.042 247.144 665.51 248.404 665.51ZM256.043 673.084C254.811 673.084 253.593 672.706 252.977 672.216L253.537 671.152C254.167 671.6 255.175 671.922 256.141 671.922C257.387 671.922 257.905 671.544 257.905 670.914C257.905 669.248 253.215 670.69 253.215 667.736C253.215 666.406 254.405 665.51 256.309 665.51C257.275 665.51 258.367 665.762 259.011 666.182L258.437 667.246C257.765 666.812 257.023 666.658 256.295 666.658C255.119 666.658 254.545 667.092 254.545 667.68C254.545 669.43 259.249 668.002 259.249 670.886C259.249 672.23 258.017 673.084 256.043 673.084ZM260.452 669.738V668.576H264.218V669.738H260.452ZM122.528 691V680.612H123.872V691H122.528ZM133.144 687.332C133.144 687.444 133.13 687.612 133.116 687.738H127.096C127.264 689.04 128.314 689.908 129.784 689.908C130.652 689.908 131.38 689.614 131.926 689.012L132.668 689.88C131.996 690.664 130.974 691.084 129.742 691.084C127.348 691.084 125.752 689.502 125.752 687.29C125.752 685.092 127.334 683.51 129.476 683.51C131.618 683.51 133.144 685.05 133.144 687.332ZM129.476 684.644C128.188 684.644 127.236 685.512 127.096 686.772H131.856C131.716 685.526 130.778 684.644 129.476 684.644ZM140.124 683.58H141.44L138.192 691H136.82L133.572 683.58H134.972L137.52 689.53L140.124 683.58ZM149.195 687.332C149.195 687.444 149.181 687.612 149.167 687.738H143.147C143.315 689.04 144.365 689.908 145.835 689.908C146.703 689.908 147.431 689.614 147.977 689.012L148.719 689.88C148.047 690.664 147.025 691.084 145.793 691.084C143.399 691.084 141.803 689.502 141.803 687.29C141.803 685.092 143.385 683.51 145.527 683.51C147.669 683.51 149.195 685.05 149.195 687.332ZM145.527 684.644C144.239 684.644 143.287 685.512 143.147 686.772H147.907C147.767 685.526 146.829 684.644 145.527 684.644ZM151.061 691V680.612H152.405V691H151.061ZM160.859 691.084C159.627 691.084 158.409 690.706 157.793 690.216L158.353 689.152C158.983 689.6 159.991 689.922 160.957 689.922C162.203 689.922 162.721 689.544 162.721 688.914C162.721 687.248 158.031 688.69 158.031 685.736C158.031 684.406 159.221 683.51 161.125 683.51C162.091 683.51 163.183 683.762 163.827 684.182L163.253 685.246C162.581 684.812 161.839 684.658 161.111 684.658C159.935 684.658 159.361 685.092 159.361 685.68C159.361 687.43 164.065 686.002 164.065 688.886C164.065 690.23 162.833 691.084 160.859 691.084ZM171.415 691L168.629 687.542L167.089 688.97V691H165.745V680.612H167.089V687.276L171.135 683.58H172.759L169.637 686.646L173.067 691H171.415ZM174.948 682.152C174.43 682.152 174.038 681.774 174.038 681.284C174.038 680.794 174.43 680.402 174.948 680.402C175.466 680.402 175.858 680.78 175.858 681.256C175.858 681.76 175.48 682.152 174.948 682.152ZM174.276 691V683.58H175.62V691H174.276ZM178.186 691V680.612H179.53V691H178.186ZM182.096 691V680.612H183.44V691H182.096ZM188.134 691.084C186.902 691.084 185.684 690.706 185.068 690.216L185.628 689.152C186.258 689.6 187.266 689.922 188.232 689.922C189.478 689.922 189.996 689.544 189.996 688.914C189.996 687.248 185.306 688.69 185.306 685.736C185.306 684.406 186.496 683.51 188.4 683.51C189.366 683.51 190.458 683.762 191.102 684.182L190.528 685.246C189.856 684.812 189.114 684.658 188.386 684.658C187.21 684.658 186.636 685.092 186.636 685.68C186.636 687.43 191.34 686.002 191.34 688.886C191.34 690.23 190.108 691.084 188.134 691.084Z" fill="black"/>
<path d="M111.898 589.16C110.154 589.16 108.41 588.616 107.482 587.816L108.202 586.2C109.098 586.92 110.522 587.432 111.898 587.432C113.642 587.432 114.378 586.808 114.378 585.976C114.378 583.56 107.722 585.144 107.722 580.984C107.722 579.176 109.162 577.64 112.234 577.64C113.578 577.64 114.986 577.992 115.962 578.632L115.306 580.248C114.298 579.656 113.194 579.368 112.218 579.368C110.49 579.368 109.786 580.04 109.786 580.888C109.786 583.272 116.426 581.72 116.426 585.832C116.426 587.624 114.97 589.16 111.898 589.16ZM122.872 587.112L123.432 588.536C122.952 588.92 122.232 589.112 121.512 589.112C119.64 589.112 118.568 588.12 118.568 586.232V582.12H117.16V580.52H118.568V578.568H120.568V580.52H122.856V582.12H120.568V586.184C120.568 587.016 120.984 587.464 121.752 587.464C122.168 587.464 122.568 587.352 122.872 587.112ZM126.982 581.704C127.558 580.808 128.598 580.36 130.022 580.36V582.264C129.846 582.232 129.702 582.216 129.558 582.216C128.038 582.216 127.078 583.112 127.078 584.856V589H125.078V580.456H126.982V581.704ZM135.48 589.112C132.856 589.112 130.936 587.288 130.936 584.728C130.936 582.168 132.856 580.36 135.48 580.36C138.136 580.36 140.04 582.168 140.04 584.728C140.04 587.288 138.136 589.112 135.48 589.112ZM135.48 587.4C136.936 587.4 138.024 586.36 138.024 584.728C138.024 583.096 136.936 582.056 135.48 582.056C134.04 582.056 132.952 583.096 132.952 584.728C132.952 586.36 134.04 587.4 135.48 587.4ZM146.801 580.36C148.849 580.36 150.369 581.528 150.369 584.104V589H148.369V584.36C148.369 582.84 147.617 582.104 146.337 582.104C144.913 582.104 143.953 582.968 143.953 584.68V589H141.953V580.456H143.857V581.56C144.513 580.776 145.553 580.36 146.801 580.36ZM159.56 580.456H161.464V587.704C161.464 590.808 159.848 592.216 156.856 592.216C155.256 592.216 153.672 591.8 152.696 591L153.592 589.496C154.344 590.12 155.56 590.52 156.744 590.52C158.632 590.52 159.464 589.656 159.464 587.928V587.48C158.76 588.248 157.752 588.616 156.6 588.616C154.152 588.616 152.28 586.952 152.28 584.472C152.28 581.992 154.152 580.36 156.6 580.36C157.8 580.36 158.856 580.744 159.56 581.592V580.456ZM156.904 586.92C158.408 586.92 159.496 585.928 159.496 584.472C159.496 583.032 158.408 582.056 156.904 582.056C155.384 582.056 154.296 583.032 154.296 584.472C154.296 585.928 155.384 586.92 156.904 586.92ZM170.979 589V579.56H167.267V577.8H176.771V579.56H173.059V589H170.979ZM185.297 584.776C185.297 584.936 185.281 585.176 185.265 585.368H178.561C178.801 586.616 179.841 587.416 181.329 587.416C182.289 587.416 183.041 587.112 183.649 586.488L184.721 587.72C183.953 588.632 182.753 589.112 181.281 589.112C178.417 589.112 176.561 587.272 176.561 584.728C176.561 582.184 178.433 580.36 180.977 580.36C183.473 580.36 185.297 582.104 185.297 584.776ZM180.977 581.96C179.681 581.96 178.737 582.792 178.545 584.04H183.393C183.233 582.808 182.289 581.96 180.977 581.96ZM191.138 589.112C188.434 589.112 186.514 587.288 186.514 584.728C186.514 582.168 188.434 580.36 191.138 580.36C192.802 580.36 194.13 581.048 194.786 582.344L193.25 583.24C192.738 582.424 191.97 582.056 191.122 582.056C189.65 582.056 188.53 583.08 188.53 584.728C188.53 586.392 189.65 587.4 191.122 587.4C191.97 587.4 192.738 587.032 193.25 586.216L194.786 587.112C194.13 588.392 192.802 589.112 191.138 589.112ZM201.285 580.36C203.333 580.36 204.853 581.528 204.853 584.104V589H202.853V584.36C202.853 582.84 202.101 582.104 200.821 582.104C199.397 582.104 198.437 582.968 198.437 584.68V589H196.437V577.128H198.437V581.448C199.093 580.744 200.101 580.36 201.285 580.36ZM118.399 599.544H112.303V602.952H117.711V604.712H112.303V609H110.223V597.8H118.399V599.544ZM123.824 609.112C121.2 609.112 119.28 607.288 119.28 604.728C119.28 602.168 121.2 600.36 123.824 600.36C126.48 600.36 128.384 602.168 128.384 604.728C128.384 607.288 126.48 609.112 123.824 609.112ZM123.824 607.4C125.28 607.4 126.368 606.36 126.368 604.728C126.368 603.096 125.28 602.056 123.824 602.056C122.384 602.056 121.296 603.096 121.296 604.728C121.296 606.36 122.384 607.4 123.824 607.4ZM136.568 600.456H138.568V609H136.664V607.912C136.024 608.696 135.016 609.112 133.912 609.112C131.72 609.112 130.232 607.912 130.232 605.336V600.456H132.232V605.064C132.232 606.616 132.968 607.352 134.232 607.352C135.624 607.352 136.568 606.488 136.568 604.776V600.456ZM146.035 600.36C148.083 600.36 149.603 601.528 149.603 604.104V609H147.603V604.36C147.603 602.84 146.851 602.104 145.571 602.104C144.147 602.104 143.187 602.968 143.187 604.68V609H141.187V600.456H143.091V601.56C143.747 600.776 144.787 600.36 146.035 600.36ZM158.586 597.128H160.586V609H158.666V607.896C157.994 608.712 157.002 609.112 155.834 609.112C153.354 609.112 151.514 607.384 151.514 604.728C151.514 602.072 153.354 600.36 155.834 600.36C156.938 600.36 157.914 600.728 158.586 601.512V597.128ZM156.074 607.4C157.514 607.4 158.618 606.36 158.618 604.728C158.618 603.096 157.514 602.056 156.074 602.056C154.634 602.056 153.53 603.096 153.53 604.728C153.53 606.36 154.634 607.4 156.074 607.4ZM166.467 600.36C168.931 600.36 170.355 601.528 170.355 603.992V609H168.467V607.96C167.987 608.696 167.059 609.112 165.779 609.112C163.827 609.112 162.595 608.04 162.595 606.552C162.595 605.128 163.555 604.008 166.147 604.008H168.355V603.88C168.355 602.712 167.651 602.024 166.227 602.024C165.267 602.024 164.275 602.344 163.635 602.872L162.851 601.416C163.763 600.712 165.091 600.36 166.467 600.36ZM166.195 607.656C167.171 607.656 168.019 607.208 168.355 606.328V605.336H166.291C164.931 605.336 164.563 605.848 164.563 606.472C164.563 607.192 165.171 607.656 166.195 607.656ZM177.497 607.112L178.057 608.536C177.577 608.92 176.857 609.112 176.137 609.112C174.265 609.112 173.193 608.12 173.193 606.232V602.12H171.785V600.52H173.193V598.568H175.193V600.52H177.481V602.12H175.193V606.184C175.193 607.016 175.609 607.464 176.377 607.464C176.793 607.464 177.193 607.352 177.497 607.112ZM180.711 599.048C179.975 599.048 179.431 598.52 179.431 597.848C179.431 597.176 179.975 596.648 180.711 596.648C181.447 596.648 181.991 597.144 181.991 597.8C181.991 598.504 181.463 599.048 180.711 599.048ZM179.703 609V600.456H181.703V609H179.703ZM188.168 609.112C185.544 609.112 183.624 607.288 183.624 604.728C183.624 602.168 185.544 600.36 188.168 600.36C190.824 600.36 192.728 602.168 192.728 604.728C192.728 607.288 190.824 609.112 188.168 609.112ZM188.168 607.4C189.624 607.4 190.712 606.36 190.712 604.728C190.712 603.096 189.624 602.056 188.168 602.056C186.728 602.056 185.64 603.096 185.64 604.728C185.64 606.36 186.728 607.4 188.168 607.4ZM199.488 600.36C201.536 600.36 203.056 601.528 203.056 604.104V609H201.056V604.36C201.056 602.84 200.304 602.104 199.024 602.104C197.6 602.104 196.64 602.968 196.64 604.68V609H194.64V600.456H196.544V601.56C197.2 600.776 198.24 600.36 199.488 600.36Z" fill="white"/>
<defs>
<linearGradient id="paint0_linear_4286_11142" x1="25" y1="37.5" x2="288" y2="37.5" gradientUnits="userSpaceOnUse">
<stop stop-color="#531675"/>
<stop offset="1" stop-color="#4F6BC2"/>
</linearGradient>
<linearGradient id="paint1_linear_4286_11142" x1="25" y1="222.5" x2="288" y2="222.5" gradientUnits="userSpaceOnUse">
<stop stop-color="#4641AC"/>
<stop offset="1" stop-color="#9B29DB"/>
</linearGradient>
<linearGradient id="paint2_linear_4286_11142" x1="25" y1="407.5" x2="288" y2="407.5" gradientUnits="userSpaceOnUse">
<stop stop-color="#FF6C02"/>
<stop offset="1" stop-color="#DF3A68"/>
</linearGradient>
<linearGradient id="paint3_linear_4286_11142" x1="25" y1="592.5" x2="288" y2="592.5" gradientUnits="userSpaceOnUse">
<stop stop-color="#531675"/>
<stop offset="1" stop-color="#4F6BC2"/>
</linearGradient>
</defs>
</svg>
